<svg id="Grupo_137528" data-name="Grupo 137528" xmlns="http://www.w3.org/2000/svg" xmlns:xlink="http://www.w3.org/1999/xlink" width="85" height="83.889" viewBox="0 0 85 83.889">
  <defs>
    <clipPath id="clip-path">
      <rect id="Rectángulo_87934" data-name="Rectángulo 87934" width="85" height="83.889" fill="none"/>
    </clipPath>
  </defs>
  <g id="Grupo_137527" data-name="Grupo 137527" clip-path="url(#clip-path)">
    <path id="Trazado_203366" data-name="Trazado 203366" d="M109.246,3.243c.523.313,1.1.116,1.647.17a3.181,3.181,0,0,0,2.216.595c1.266-.035,2.534-.021,3.8-.006a6.148,6.148,0,0,1,6.07,5.942q.1,8.317,0,16.637a6.13,6.13,0,0,1-5.475,6,23.374,23.374,0,0,1-2.863.164q-18.665-.006-37.33,0a18.318,18.318,0,0,1-2.774-.219,6.145,6.145,0,0,1-5.1-5.809c-.076-5.629-.091-11.261,0-16.889A6.092,6.092,0,0,1,75.619,4q14.062-.02,28.125,0a2.964,2.964,0,0,0,2.126-.594h1.64c.931.757.931.757,1.737-.17" transform="translate(-53.709 -2.511)" fill="#eee"/>
    <path id="Trazado_203367" data-name="Trazado 203367" d="M52.16.9c-.145.83-.76.838-1.413.838-9.432-.006-18.866.076-28.3-.044a6.261,6.261,0,0,0-6.518,6.553c.131,5.121.029,10.247.034,15.371a5.921,5.921,0,0,0,5.9,6.262c.2.012.394.013.591.013q20.061,0,40.123,0c4.018,0,6.449-2.466,6.45-6.486q0-7.686,0-15.372a5.921,5.921,0,0,0-6.278-6.3c-1.464,0-2.928-.016-4.392.007A1.028,1.028,0,0,1,57.184.9c.1-.432.263-.852.788-.842A41.289,41.289,0,0,1,64.63.217a7.488,7.488,0,0,1,6.076,7.217c.047,2.927.03,5.856,0,8.784-.006.587.137.748.735.742,2.928-.034,5.856-.021,8.785-.014a4.429,4.429,0,0,1,4.764,4.731q.02,21.242,0,42.485a4.406,4.406,0,0,1-4.721,4.685q-15.078.01-30.156-.018c-.807,0-.888.2-.768.932.359,2.191.657,4.394.917,6.6.082.7.3.953,1.036.9,1.064-.075,2.139-.033,3.208-.016a3.3,3.3,0,0,1,3.411,3.408c.017.675.01,1.352,0,2.027-.011,1.032-.19,1.206-1.258,1.207q-9.207,0-18.414,0-4.984,0-9.967,0c-1.01,0-1.193-.183-1.2-1.175-.007-.76-.021-1.521.012-2.28a3.267,3.267,0,0,1,3.2-3.177c1.209-.037,2.422-.033,3.632,0,.479.013.708-.1.776-.611q.477-3.639,1.02-7.268c.095-.627-.271-.528-.632-.527-4.73,0-9.461-.007-14.191.01-.651,0-1.1-.164-1.225-.856-.161-.734.355-.931.887-1.064a5.848,5.848,0,0,1,1.431-.061l57.365,0c.422,0,.845.015,1.267-.017a2.439,2.439,0,0,0,2.325-2.346c.016-.253.012-.507.012-.76q0-20.823,0-41.647c0-.2,0-.394-.005-.591a2.463,2.463,0,0,0-2.612-2.588c-2.337-.023-4.675,0-7.012-.008a8.693,8.693,0,0,1-1.012-.021c-1.331.049-1.331.049-1.332,1.381,0,.224.009.448,0,.671-.014.558.246.8.808.82,1.175.037,2.35,0,3.525.022,1.314.02,2.63-.049,3.945.038a1.408,1.408,0,0,1,.993,1.329,8.7,8.7,0,0,1,.033,1.1q0,18.607,0,37.214c0,.14,0,.281,0,.422-.021,1.75-.409,2.148-2.135,2.149q-6.709.005-13.418,0c-1.177,0-1.422-.172-1.725-1.074a1.2,1.2,0,0,1,1.175-1.113,7.624,7.624,0,0,1,1.18-.043q5.7,0,11.4,0c1.253,0,1.288-.037,1.288-1.27q0-17.6,0-35.21c0-1.3-.035-1.324-1.316-1.335-1.463-.013-2.927.033-4.389-.023-1.5.021-1.269.014-1.528,1.31a7.692,7.692,0,0,1-7.177,6.5,26.441,26.441,0,0,1-2.863.138q-18.7,0-37.4-.007a11.67,11.67,0,0,1-4.238-.6,7.571,7.571,0,0,1-4.881-5.609c-.04-.164-.069-.33-.1-.5-.236-1.2-.236-1.2-1.509-1.234-1.492.059-2.984.011-4.475.027-1.164.013-1.231.07-1.232,1.255q-.007,14.144,0,28.288c0,2.336,0,4.672,0,7.009,0,1.188.066,1.253,1.232,1.256,2.9.007,5.8,0,8.7,0H55.807a7.508,7.508,0,0,1,1.432.059c.578.112.992.4,1.02,1.049-.023.735-.471,1.034-1.139,1.1a10.639,10.639,0,0,1-1.1.026H7.14C5,64.041,4.705,63.75,4.7,61.6q0-18.783,0-37.567c0-.872-.066-1.794.992-2.2,2.262-.1,4.528-.019,6.792-.047,1.527-.019,1.527-.018,1.522-1.556,0-1.285,0-1.285-1.293-1.339-2.561.044-5.121.008-7.681.019-2.115.009-3,.865-3,2.95q-.007,21.057,0,42.114c0,1.993.9,2.891,2.882,2.9,2.645.009,5.289,0,7.934,0a3.407,3.407,0,0,1,1.089.092c.484.162.885.4.7,1.031-.087.665-.5.856-1.125.853-3.042-.017-6.084.012-9.126-.018A4.378,4.378,0,0,1,.03,64.748C.011,64.524,0,64.3,0,64.074q0-21.165,0-42.33a4.454,4.454,0,0,1,3.527-4.7,5.95,5.95,0,0,1,1.259-.094c2.873-.008,5.746-.027,8.618.013.676.009.9-.118.887-.851-.051-2.731-.027-5.463-.019-8.2A7.574,7.574,0,0,1,22.151.048Q36.516.035,50.881.039c.652,0,1.195.066,1.279.862" transform="translate(0 0)"/>
    <path id="Trazado_203368" data-name="Trazado 203368" d="M11.634,85.871a.931.931,0,0,0-.783,1.038c0,.169,0,.338,0,.507q0,19.346,0,38.691c0,1.425.132,1.56,1.523,1.56q25.092,0,50.185.006c.663,0,1.261-.018,1.393-.849.448-.391.959-.253,1.463-.179.09.065-.013-.04.075.03.98.783.98.783,1.922-.039a1.716,1.716,0,0,1,1.546.187c.146.668.573.857,1.232.854,4.726-.02,9.452-.01,14.177-.011,1.209,0,1.389-.185,1.389-1.438q0-15.189,0-30.377,0-4.346,0-8.691c0-.6-.066-1.141-.789-1.29-2.044-.115-4.09-.022-6.135-.049-.924-.012-1.049-.082-1.039-.985.009-.766-.233-1.574.255-2.291,2.815-.009,5.63-.042,8.444-.015a2.669,2.669,0,0,1,2.576,2.442,9.624,9.624,0,0,1,.034,1.012c0,13.88-.025,27.76.028,41.64a3.121,3.121,0,0,1-3.449,3.444c-19.569-.052-39.138-.029-58.706-.036-.682,0-1.324-.007-1.5.848l-1.639,0c-.893-.712-.893-.712-1.745,0H20.447c-.114-.714-.6-.854-1.232-.851-2.872.014-5.745.009-8.618,0a2.766,2.766,0,0,1-3.1-3.065q-.01-21.2,0-42.409a2.749,2.749,0,0,1,3.027-3.047c2.675,0,5.349.018,8.024.029a4.777,4.777,0,0,1,.182,2.872c-.045.454-.459.4-.8.4q-2.735,0-5.47,0a2.59,2.59,0,0,0-.835.049" transform="translate(-5.805 -63.881)" fill="#0d2380"/>
    <path id="Trazado_203369" data-name="Trazado 203369" d="M239.945.9a.866.866,0,0,1-.734.972c-.577.086-.854-.3-1-.8.1-.44.293-.8.8-.849a.862.862,0,0,1,.937.68" transform="translate(-184.407 -0.163)" fill="#060606"/>
    <path id="Trazado_203370" data-name="Trazado 203370" d="M72.1,298.256c.122-.459.363-.829.88-.826s.773.346.864.828c-.084.49-.324.833-.864.835s-.762-.373-.88-.837" transform="translate(-55.816 -230.254)" fill="#040505"/>
    <path id="Trazado_203371" data-name="Trazado 203371" d="M134.256,49.942h17.151a6.67,6.67,0,0,0,1.418-.136,2.514,2.514,0,0,0,2.3-2.806q0-7.688,0-15.376a2.258,2.258,0,0,1,.108-1,.818.818,0,0,1,1.462-.018,2.041,2.041,0,0,1,.117.911q0,7.941,0,15.882a4.265,4.265,0,0,1-3.655,4.085,16.347,16.347,0,0,1-2.516.142q-16.6.006-33.2.006a3.418,3.418,0,0,1-1.325-.184.749.749,0,0,1-.523-.858.7.7,0,0,1,.75-.648c.225-.007.451,0,.676,0h17.236" transform="translate(-89.479 -23.354)" fill="#fefefe"/>
    <path id="Trazado_203372" data-name="Trazado 203372" d="M94.894,37.27q0-3.754,0-7.508c0-.225-.006-.45.007-.675a.807.807,0,0,1,.828-.877c.576,0,.854.347.854.921,0,2.109.044,4.219-.02,6.326-.025.841.171,1.158,1.05,1.064a13.24,13.24,0,0,1,2.275.008,5,5,0,0,1-.187,9.988c-1.152.037-2.306.011-3.459.007-1.109,0-1.345-.232-1.347-1.326q-.007-3.965,0-7.93" transform="translate(-73.461 -21.839)"/>
    <path id="Trazado_203373" data-name="Trazado 203373" d="M184.354,35.869c-1.013,0-2.026.02-3.038-.009-.449-.013-.647.074-.637.587.033,1.8-.01,3.6.025,5.4a2.92,2.92,0,0,0,3.017,2.969,2.972,2.972,0,0,0,3.117-2.792c.023-.223.034-.45.079-.669a.76.76,0,0,1,.848-.657.783.783,0,0,1,.79.812,4.776,4.776,0,1,1-9.547.125c-.026-4.079,0-8.158-.013-12.238,0-.632.109-1.186.862-1.164s.842.6.837,1.214c-.012,1.322.037,2.646-.021,3.966-.029.665.2.788.81.776,1.969-.037,3.939-.012,5.908-.015.574,0,1.118.058,1.142.8.026.782-.524.9-1.141.894q-1.519,0-3.038,0" transform="translate(-138.568 -21.858)"/>
    <path id="Trazado_203374" data-name="Trazado 203374" d="M241.621,54.531c1.041,0,2.083,0,3.124,0,.552,0,.956.2.973.8.018.644-.4.884-.985.885-1.914,0-3.827-.01-5.741.009a1.692,1.692,0,0,0-1.873,1.244,1.769,1.769,0,0,0,1.649,2.368c1.125.036,2.251,0,3.377.015a3.518,3.518,0,1,1,.043,7.036c-1.913.037-3.827.007-5.741.01-.6,0-1.1-.157-1.1-.863s.513-.834,1.108-.831c1.857.009,3.715.017,5.572,0a1.829,1.829,0,1,0,.231-3.649c-1.124-.044-2.251-.006-3.377-.016a3.5,3.5,0,0,1-.133-6.995c.955-.037,1.913-.006,2.87-.006v-.005" transform="translate(-182.194 -42.21)"/>
    <path id="Trazado_203375" data-name="Trazado 203375" d="M155.1,70.055c0-1.292.011-2.584,0-3.875-.007-.611.145-1.086.856-1.078.651.007.84.453.84,1.028q0,3.96,0,7.92c0,.592-.251,1.012-.873,1s-.832-.442-.823-1.037c.018-1.319.006-2.639.005-3.959" transform="translate(-120.063 -50.398)" fill="#010101"/>
    <path id="Trazado_203376" data-name="Trazado 203376" d="M94.886,119.425a2.951,2.951,0,0,1-1.232-.214.738.738,0,0,1-.511-.856.691.691,0,0,1,.745-.642c.559-.009,1.118.007,1.676-.007.469-.012.845.11.935.625.1.549-.25.841-.707.985a4.76,4.76,0,0,1-.906.11" transform="translate(-72.097 -91.12)" fill="#fefefe"/>
    <path id="Trazado_203377" data-name="Trazado 203377" d="M155.079,42.784c.06-.638-.219-1.459.825-1.529.668-.045.875.352.875,1.566s-.218,1.623-.881,1.562c-1.089-.1-.739-.972-.819-1.6" transform="translate(-120.054 -31.934)" fill="#020202"/>
    <path id="Trazado_203378" data-name="Trazado 203378" d="M82.765,144.094H81.148c-.144-.747-.667-.856-1.323-.855q-9.249.018-18.5.007-15.288,0-30.576.018c-.777,0-1.04-.132-1.037-.987q.048-18.242,0-36.486c0-.783.206-.994.974-.963,1.686.068,3.376.041,5.064.052a1.466,1.466,0,0,1,.265.954,8.893,8.893,0,0,0,6.906,7.918,15.558,15.558,0,0,0,3.607.316q18.965.025,37.931-.009a12.958,12.958,0,0,0,4.422-.527,8.782,8.782,0,0,0,5.953-6.865,4.256,4.256,0,0,1,.408-1.787c1.829-.012,3.659-.015,5.488-.041.4-.006.579.123.533.531a3.864,3.864,0,0,0,0,.422q0,18.246.016,36.491c0,.748-.154.992-.954.983-4.28-.044-8.56-.012-12.84-.029-.664,0-1.169.132-1.332.855l-1.637-.013c-.136.051-.193-.051-.252-.138-.367-.545-.756-.58-1.172-.054-.085.107-.169.216-.329.2" transform="translate(-23.003 -81.151)" fill="#fff2bf"/>
    <path id="Trazado_203379" data-name="Trazado 203379" d="M115.954,104.844a9.215,9.215,0,0,1-7.437,9.231,15.7,15.7,0,0,1-3.014.208q-19.3.02-38.593-.013a10.478,10.478,0,0,1-6.121-1.434,9.123,9.123,0,0,1-4.324-7.993,1.24,1.24,0,0,1,.166-.028c1.239-.044,1.239-.044,1.446,1.183.719,4.271,3.655,6.7,8.156,6.7q15.669.014,31.339,0c3.153,0,6.311.087,9.458-.06a7.306,7.306,0,0,0,7.308-6.816c.123-.989.5-1.129,1.283-1.019.111.016.223.023.335.034" transform="translate(-43.711 -81.113)" fill="#ccc198"/>
    <path id="Trazado_203380" data-name="Trazado 203380" d="M141.011,352.747c-4.309,0-8.618-.017-12.927.018-.688.005-.9-.209-.808-.846a6.713,6.713,0,0,0,.008-.675,1.606,1.606,0,0,1,1.73-1.754q12-.018,24,0a1.612,1.612,0,0,1,1.731,1.757c.065,1.5.065,1.5-1.395,1.5H141.011" transform="translate(-98.515 -270.549)" fill="#0d2380"/>
    <path id="Trazado_203381" data-name="Trazado 203381" d="M172.518,314.651c.24,1.7.464,3.4.729,5.09.077.492-.046.63-.543.627q-5.571-.026-11.141,0c-.5,0-.619-.138-.542-.629.266-1.693.49-3.393.73-5.09.108-.483.479-.584.892-.587q4.493-.036,8.985,0c.414,0,.784.1.891.589" transform="translate(-124.636 -243.116)" fill="#0d2380"/>
    <path id="Trazado_203382" data-name="Trazado 203382" d="M175.093,307.508c-.209-.333-.531-.342-.88-.341q-4.5.012-9.007,0c-.35,0-.671.007-.881.339.1-.747.227-1.492.3-2.242.035-.383.221-.448.547-.447q4.542.01,9.083,0c.327,0,.511.067.546.449.069.75.194,1.495.3,2.242" transform="translate(-127.211 -235.972)" fill="#07154d"/>
    <path id="Trazado_203383" data-name="Trazado 203383" d="M314.617,82.534c0,.812.027,1.625-.014,2.434-.03.58.159.781.755.77,1.819-.033,3.639-.014,5.458-.009.244,0,.509-.071.72.13-2.634.005-5.268,0-7.9.026-.469,0-.572-.185-.548-.6.026-.447.006-.9.006-1.345,0-1.5,0-1.5,1.525-1.41" transform="translate(-242.372 -63.868)" fill="#07154d"/>
    <path id="Trazado_203384" data-name="Trazado 203384" d="M25.811,85.859a4.436,4.436,0,0,1,1.9-.123c1.427-.031,2.856-.035,4.282,0,.6.016.786-.189.756-.77-.042-.809-.013-1.623-.014-2.434,1.525-.091,1.525-.091,1.525,1.41,0,1.929,0,1.941-1.888,1.944-2.186,0-4.371-.018-6.557-.029" transform="translate(-19.981 -63.868)" fill="#07154d"/>
    <path id="Trazado_203385" data-name="Trazado 203385" d="M264.6,275.841c.151-.43.355-.832.882-.83a.867.867,0,0,1,.871.818c-.085.486-.3.841-.858.849s-.741-.4-.9-.837" transform="translate(-204.84 -212.898)" fill="#050502"/>
    <path id="Trazado_203386" data-name="Trazado 203386" d="M102.344,75.689c0-.9.024-1.8-.01-2.7-.018-.486.152-.638.626-.619.87.034,1.745-.024,2.612.03a3.244,3.244,0,0,1,3.178,3.352,3.279,3.279,0,0,1-3.206,3.255c-.869.049-1.743-.016-2.613.024-.516.024-.608-.2-.6-.648.025-.9.007-1.8.007-2.7" transform="translate(-79.221 -56.025)" fill="#eee"/>
    <path id="Trazado_203387" data-name="Trazado 203387" d="M88.895,148.287H58.9c-.253,0-.507-.007-.76,0a.751.751,0,0,1-.837-.76.818.818,0,0,1,.8-.912,5.489,5.489,0,0,1,.843-.016h58.883c1.107,0,1.108,0,1.108-1.074q0-14.994,0-29.988c0-.253,0-.507.005-.76a.729.729,0,0,1,.694-.8.763.763,0,0,1,.891.6,3.115,3.115,0,0,1,.095.831q.007,15.712,0,31.424c0,1.234-.236,1.46-1.487,1.46H88.895" transform="translate(-44.361 -88.225)" fill="#f8e4ae"/>
    <path id="Trazado_203388" data-name="Trazado 203388" d="M119.2,214.811c0,.422.009.844,0,1.265a3.26,3.26,0,0,1-6.48.4,12.871,12.871,0,0,1,.028-3.531,3.267,3.267,0,0,1,6.442.351c.03.5,0,1.012,0,1.518h.006" transform="translate(-87.177 -162.857)"/>
    <path id="Trazado_203389" data-name="Trazado 203389" d="M239.571,157.652c0,.45.016.9,0,1.35a3.264,3.264,0,0,1-6.471.425,12.121,12.121,0,0,1,.012-3.614,3.266,3.266,0,0,1,6.455.4c.027.477,0,.956,0,1.434h0" transform="translate(-180.351 -118.602)"/>
    <path id="Trazado_203390" data-name="Trazado 203390" d="M153.012,157.636a15.152,15.152,0,0,1,.01-1.686,3.119,3.119,0,0,1,3.2-2.761,3.063,3.063,0,0,1,3.225,2.616,12.055,12.055,0,0,1,0,3.7,3.264,3.264,0,0,1-6.442-.347c-.032-.5,0-1.012,0-1.519h.014" transform="translate(-118.434 -118.59)"/>
    <path id="Trazado_203391" data-name="Trazado 203391" d="M72.8,157.643c0-.422-.01-.844,0-1.265a3.246,3.246,0,0,1,6.489-.065,28.635,28.635,0,0,1-.022,2.951,3.249,3.249,0,0,1-6.456-.1c-.026-.5,0-1.012,0-1.518H72.8" transform="translate(-56.356 -118.599)"/>
    <path id="Trazado_203392" data-name="Trazado 203392" d="M199.659,214.843c0,.422.012.844,0,1.265a3.246,3.246,0,0,1-6.488.009c-.029-.954-.037-1.913.015-2.866a3.251,3.251,0,0,1,6.457-.009c.034.532.005,1.067.005,1.6h.012" transform="translate(-149.523 -162.861)"/>
    <path id="Trazado_203393" data-name="Trazado 203393" d="M279.964,214.8c-.03.606-.021,1.144-.091,1.671a3.258,3.258,0,0,1-6.478-.388c-.018-.9-.026-1.8.005-2.7a3.259,3.259,0,0,1,6.452-.361c.087.609.08,1.231.112,1.777" transform="translate(-211.636 -162.859)"/>
    <path id="Trazado_203394" data-name="Trazado 203394" d="M235.766,212.438a11.921,11.921,0,0,1-1.128.525.79.79,0,0,1-1.064-.415.738.738,0,0,1,.334-1.075c.738-.407,1.484-.807,2.257-1.141.755-.326,1.275.081,1.285,1,.021,1.774.036,3.548-.009,5.321-.017.664.168.888.841.848.64-.038,1.453-.21,1.565.8.072.642-.389.877-1.6.877-1.267,0-2.535-.005-3.8,0-.6,0-1.11-.17-1.105-.861s.524-.826,1.122-.837c1.3-.023,1.3-.036,1.3-1.374v-3.665" transform="translate(-180.643 -162.741)" fill="#010100"/>
    <path id="Trazado_203395" data-name="Trazado 203395" d="M155.466,212.495c-.379.175-.653.3-.928.427-.5.225-.954.207-1.225-.326a.8.8,0,0,1,.454-1.172c.676-.343,1.342-.705,2.031-1.02.8-.363,1.337-.027,1.347.853.021,1.8.044,3.6-.01,5.4-.022.729.226.954.905.863a4.012,4.012,0,0,1,.758.012.826.826,0,0,1,0,1.649c-.786.028-1.574.02-2.361.023-.815,0-1.631.009-2.446-.007-.556-.011-.928-.281-.915-.871.013-.544.366-.762.888-.809,1.507-.137,1.506-.146,1.506-1.668Z" transform="translate(-118.499 -162.772)" fill="#010100"/>
    <path id="Trazado_203396" data-name="Trazado 203396" d="M115.391,155.365c-.47.218-.79.384-1.123.517a.769.769,0,0,1-1.058-.408.729.729,0,0,1,.318-1.077c.764-.416,1.538-.822,2.336-1.165.7-.3,1.2.113,1.211.989.019,1.745.039,3.49-.01,5.234-.02.7.112,1.081.9.925a2.243,2.243,0,0,1,.421,0c.607,0,1.089.2,1.078.89-.01.655-.471.809-1.05.8-1.463-.013-2.927-.016-4.39,0-.591.007-1.033-.177-1.048-.815s.414-.852,1-.884c1.414-.077,1.413-.087,1.413-1.5v-3.512" transform="translate(-87.46 -118.549)" fill="#010000"/>
    <path id="Trazado_203397" data-name="Trazado 203397" d="M195.664,155.374c-.462.217-.781.386-1.115.518a.76.76,0,0,1-1.057-.409.752.752,0,0,1,.324-1.085c.77-.405,1.541-.816,2.34-1.159.676-.29,1.183.105,1.192.912.019,1.8.033,3.6-.008,5.4-.015.638.123.934.816.838a2.793,2.793,0,0,1,1,.056.749.749,0,0,1,.578.9.69.69,0,0,1-.7.7q-2.533.025-5.067,0a.687.687,0,0,1-.694-.71.743.743,0,0,1,.583-.9,3.9,3.9,0,0,1,1.09-.056c.508.036.751-.065.73-.669-.049-1.4-.016-2.811-.016-4.349" transform="translate(-149.619 -118.556)"/>
    <path id="Trazado_203398" data-name="Trazado 203398" d="M75.253,212.454c-.426.211-.717.377-1.024.5a.84.84,0,1,1-.736-1.51c.7-.353,1.392-.735,2.108-1.059.791-.357,1.329,0,1.338.882.017,1.829.028,3.659-.007,5.487-.011.581.143.834.744.755a4.861,4.861,0,0,1,.759,0c.515.013.879.218.9.784a.786.786,0,0,1-.885.89c-1.351.017-2.7.009-4.053.009a6.485,6.485,0,0,1-.759-.018.77.77,0,0,1-.774-.829.758.758,0,0,1,.769-.826l.084-.009c.494-.068,1.19.228,1.437-.153s.092-1.032.1-1.565c.007-1.068,0-2.136,0-3.339" transform="translate(-56.408 -162.762)"/>
    <path id="Trazado_203399" data-name="Trazado 203399" d="M275.868,155.385c-.443.206-.761.37-1.092.5a.833.833,0,0,1-.751-1.481c.742-.4,1.487-.792,2.253-1.138.74-.334,1.264.021,1.274.866.02,1.827.039,3.656-.01,5.482-.018.66.2.849.811.774a3.275,3.275,0,0,1,.924.026.77.77,0,0,1,.688.9.724.724,0,0,1-.761.743q-2.488.013-4.976,0a.719.719,0,0,1-.748-.752.786.786,0,0,1,.63-.874,1.832,1.832,0,0,1,.416-.048c1.343-.072,1.343-.071,1.343-1.387v-3.614" transform="translate(-211.709 -118.556)"/>
    <path id="Trazado_203400" data-name="Trazado 203400" d="M40.3,260.119c-.674.043-1.191-.1-1.155-.88.038-.8.644-.79,1.224-.808.606-.019,1.119.173,1.134.838.019.814-.588.912-1.2.85" transform="translate(-30.305 -200.062)" fill="#f8e4ac"/>
    <path id="Trazado_203401" data-name="Trazado 203401" d="M123.4,220.575c0,.393.014.787,0,1.18a1.57,1.57,0,0,1-3.136.082,19.721,19.721,0,0,1,0-2.526,1.57,1.57,0,0,1,3.139.085c.014.393,0,.786,0,1.18" transform="translate(-93.067 -168.61)" fill="#fff2bf"/>
    <path id="Trazado_203402" data-name="Trazado 203402" d="M243.8,163.457c0,.394.02.789,0,1.181a1.486,1.486,0,0,1-1.485,1.517,1.465,1.465,0,0,1-1.653-1.423,19.33,19.33,0,0,1,0-2.7,1.493,1.493,0,0,1,1.6-1.412,1.513,1.513,0,0,1,1.534,1.485c.032.448.006.9.007,1.35" transform="translate(-186.269 -124.345)" fill="#fff2bf"/>
    <path id="Trazado_203403" data-name="Trazado 203403" d="M160.48,163.376c0-.45-.032-.9.007-1.349a1.5,1.5,0,0,1,1.52-1.406,1.471,1.471,0,0,1,1.567,1.243,10.315,10.315,0,0,1-.011,3.107,1.414,1.414,0,0,1-1.6,1.183,1.464,1.464,0,0,1-1.473-1.345c-.046-.473-.008-.955-.008-1.433h0" transform="translate(-124.225 -124.343)" fill="#fff2bf"/>
    <path id="Trazado_203404" data-name="Trazado 203404" d="M80.3,163.4c0-.449-.025-.9,0-1.348a1.49,1.49,0,0,1,1.56-1.438A1.456,1.456,0,0,1,83.385,162a25.516,25.516,0,0,1,0,2.779,1.413,1.413,0,0,1-1.591,1.374,1.429,1.429,0,0,1-1.488-1.4c-.032-.447-.006-.9-.006-1.348" transform="translate(-62.156 -124.34)" fill="#fff2bf"/>
    <path id="Trazado_203405" data-name="Trazado 203405" d="M203.768,220.593c0,.393.016.787,0,1.179a1.457,1.457,0,0,1-1.533,1.534,1.437,1.437,0,0,1-1.57-1.49c-.034-.841-.034-1.685,0-2.526a1.43,1.43,0,0,1,1.567-1.489,1.445,1.445,0,0,1,1.534,1.529c.021.42,0,.842,0,1.263" transform="translate(-155.322 -168.609)" fill="#fff2bf"/>
    <path id="Trazado_203406" data-name="Trazado 203406" d="M280.9,220.546c0-.393-.013-.787,0-1.18a1.567,1.567,0,0,1,3.129-.109,18.357,18.357,0,0,1,0,2.61,1.452,1.452,0,0,1-1.63,1.44,1.47,1.47,0,0,1-1.5-1.581c-.015-.393,0-.787,0-1.18" transform="translate(-217.453 -168.611)" fill="#fff2bf"/>
  </g>
</svg>
