<svg id="Grupo_137557" data-name="Grupo 137557" xmlns="http://www.w3.org/2000/svg" xmlns:xlink="http://www.w3.org/1999/xlink" width="169.87" height="145.289" viewBox="0 0 169.87 145.289">
  <defs>
    <clipPath id="clip-path">
      <rect id="Rectángulo_87967" data-name="Rectángulo 87967" width="169.87" height="145.289" fill="none"/>
    </clipPath>
    <clipPath id="clip-path-3">
      <rect id="Rectángulo_87954" data-name="Rectángulo 87954" width="74.772" height="99.832" fill="none"/>
    </clipPath>
    <clipPath id="clip-path-4">
      <rect id="Rectángulo_87955" data-name="Rectángulo 87955" width="27.813" height="20.786" fill="none"/>
    </clipPath>
    <clipPath id="clip-path-5">
      <rect id="Rectángulo_87956" data-name="Rectángulo 87956" width="32.469" height="20.196" fill="none"/>
    </clipPath>
    <clipPath id="clip-path-6">
      <rect id="Rectángulo_87957" data-name="Rectángulo 87957" width="73.765" height="44.471" fill="none"/>
    </clipPath>
    <clipPath id="clip-path-7">
      <rect id="Rectángulo_87958" data-name="Rectángulo 87958" width="79.362" height="85.092" fill="none"/>
    </clipPath>
    <clipPath id="clip-path-8">
      <rect id="Rectángulo_87959" data-name="Rectángulo 87959" width="14.823" height="9.637" fill="none"/>
    </clipPath>
    <clipPath id="clip-path-9">
      <rect id="Rectángulo_87960" data-name="Rectángulo 87960" width="14.823" height="9.637" fill="#636363"/>
    </clipPath>
    <clipPath id="clip-path-10">
      <rect id="Rectángulo_87961" data-name="Rectángulo 87961" width="12.794" height="13.772" fill="none"/>
    </clipPath>
    <clipPath id="clip-path-12">
      <rect id="Rectángulo_87963" data-name="Rectángulo 87963" width="39.442" height="33.071" fill="none"/>
    </clipPath>
    <clipPath id="clip-path-13">
      <rect id="Rectángulo_87964" data-name="Rectángulo 87964" width="17.51" height="10.716" fill="none"/>
    </clipPath>
    <clipPath id="clip-path-14">
      <rect id="Rectángulo_87965" data-name="Rectángulo 87965" width="28.767" height="17.359" fill="none"/>
    </clipPath>
  </defs>
  <g id="Grupo_137595" data-name="Grupo 137595" clip-path="url(#clip-path)">
    <g id="Grupo_137594" data-name="Grupo 137594">
      <g id="Grupo_137593" data-name="Grupo 137593" clip-path="url(#clip-path)">
        <path id="Trazado_203420" data-name="Trazado 203420" d="M119.112,237.931l18.377,8.6c2.358,1.1,2.536,3.158.381,4.41l-13.425,7.8a7.8,7.8,0,0,1-7.592-.221l-14.807-10.676Z" transform="translate(-69.007 -160.415)" fill="#7b7979"/>
        <path id="Trazado_203421" data-name="Trazado 203421" d="M101.384,153.553,89.437,182.331a6.242,6.242,0,0,0,2.107,7.456L108,201.633v-.313l-15.74-12.406a5.225,5.225,0,0,1-1.616-6.022l11.444-28.928Z" transform="translate(-60.157 -103.526)" fill="#7b7979"/>
        <path id="Trazado_203422" data-name="Trazado 203422" d="M131.4,176.089l-18.238-9.445a5.622,5.622,0,0,1-2.872-6.286l6.226-26.341-11.663,6.776L93.406,169.72a5.225,5.225,0,0,0,1.616,6.022l15.74,12.406Z" transform="translate(-62.916 -90.355)" fill="#4f4c4d"/>
        <path id="Trazado_203423" data-name="Trazado 203423" d="M110.839,160.135,93.773,170.05l11.574-29.257,11.663-6.776Z" transform="translate(-63.412 -90.355)" fill="#4f4c4d"/>
        <path id="Trazado_203424" data-name="Trazado 203424" d="M119.112,233.9l18.377,9.53c2.358,1.1,2.536,3.23.381,4.482l-13.425,7.8a7.806,7.806,0,0,1-7.592-.221l-14.807-11.675Z" transform="translate(-69.007 -157.698)" fill="#a7a9ac"/>
        <path id="Trazado_203425" data-name="Trazado 203425" d="M58.507,98.226V45.038a4.4,4.4,0,0,1,1.824-3.507L129.42,1.393a1.187,1.187,0,0,1,1.134-.126l-1.97-1.14a1.157,1.157,0,0,0-1.2.092L58.3,40.357a4.4,4.4,0,0,0-1.824,3.507V97.052a1.7,1.7,0,0,0,.557,1.434v0l2.1,1.219v0a1.632,1.632,0,0,1-.626-1.479" transform="translate(-38.189 0)" fill="#a7a9ac"/>
        <path id="Trazado_203426" data-name="Trazado 203426" d="M133.668,61.9l-69.09,40.138c-1.008.585-1.824-.036-1.824-1.388V47.465a4.4,4.4,0,0,1,1.824-3.507l69.09-40.138c1.008-.585,1.824.036,1.824,1.388V58.394a4.4,4.4,0,0,1-1.824,3.507" transform="translate(-42.436 -2.426)" fill="#7b7979"/>
        <path id="Trazado_203427" data-name="Trazado 203427" d="M135.492,52.756,62.754,95.014V47.465a4.4,4.4,0,0,1,1.824-3.507l69.09-40.138c1.008-.585,1.824.036,1.824,1.388Z" transform="translate(-42.436 -2.427)" fill="#141313"/>
        <path id="Trazado_203428" data-name="Trazado 203428" d="M69.327,97.227V52.146l68.481-39.785v45.08Z" transform="translate(-46.881 -8.334)" fill="#4f4c4d"/>
        <path id="Trazado_203429" data-name="Trazado 203429" d="M58.507,188.985,56.473,187.8V134.616l2.033,1.181Z" transform="translate(-38.189 -90.759)" fill="#a7a9ac"/>
        <g id="Grupo_137559" data-name="Grupo 137559" transform="translate(18.285)" style="mix-blend-mode: overlay;isolation: isolate">
          <g id="Grupo_137558" data-name="Grupo 137558">
            <g id="Grupo_137557-2" data-name="Grupo 137557" clip-path="url(#clip-path-3)">
              <path id="Trazado_203430" data-name="Trazado 203430" d="M130.554,1.266h0l-1.97-1.14a1.157,1.157,0,0,0-1.2.092L58.3,40.357a4.4,4.4,0,0,0-1.824,3.5h0V97.052a1.7,1.7,0,0,0,.556,1.434h0l2.1,1.219v0a1.157,1.157,0,0,0,1.2-.091l15.381-8.936,10.323,7.43a7.806,7.806,0,0,0,7.592.221l13.425-7.8a2.476,2.476,0,0,0,1.5-2.281c.091-.936-.544-1.889-1.88-2.514L94.81,79.583l34.611-20.108a4.4,4.4,0,0,0,1.824-3.507V2.78a1.574,1.574,0,0,0-.691-1.514" transform="translate(-56.474 0)" fill="#afafaf"/>
            </g>
          </g>
        </g>
        <path id="Trazado_203431" data-name="Trazado 203431" d="M283.535,384.772l-10.6,6.157a7.9,7.9,0,0,1-7.151-.3l-7.076-4.111c-2.117-1.229-2.346-3.09-.513-4.155l10.6-6.156a7.905,7.905,0,0,1,7.151.3l7.076,4.111c2.116,1.23,2.346,3.09.513,4.155" transform="translate(-173.764 -253.158)" fill="#a7a9ac"/>
        <path id="Trazado_203432" data-name="Trazado 203432" d="M284.764,398.178a2.1,2.1,0,0,1-1.23,1.891l-10.6,6.157a7.905,7.905,0,0,1-7.151-.3l-7.076-4.111a2.946,2.946,0,0,1-1.747-2.358h0v4.415h.009a3.046,3.046,0,0,0,1.742,2.233l7.076,4.111a7.9,7.9,0,0,0,7.151.3l10.6-6.157a2.15,2.15,0,0,0,1.235-1.765h0v-4.415Z" transform="translate(-173.764 -268.454)" fill="#7b7979"/>
        <path id="Trazado_203433" data-name="Trazado 203433" d="M336.117,403.512l-.6.348-.594-.345.6-.348Z" transform="translate(-226.486 -271.817)" fill="#4f4c4d"/>
        <path id="Trazado_203434" data-name="Trazado 203434" d="M337.359,404.922l-.6.348v-.7l.6-.347Z" transform="translate(-227.727 -272.532)" fill="#4f4c4d"/>
        <path id="Trazado_203435" data-name="Trazado 203435" d="M333.736,404.9l-.6.348-.594-.345.6-.348Z" transform="translate(-224.875 -272.756)" fill="#4f4c4d"/>
        <path id="Trazado_203436" data-name="Trazado 203436" d="M334.978,406.314l-.6.348v-.7l.6-.347Z" transform="translate(-226.117 -273.471)" fill="#4f4c4d"/>
        <path id="Trazado_203437" data-name="Trazado 203437" d="M331.356,406.3l-.6.348-.594-.345.6-.348Z" transform="translate(-223.266 -273.694)" fill="#4f4c4d"/>
        <path id="Trazado_203438" data-name="Trazado 203438" d="M332.6,407.706l-.6.348v-.7l.6-.347Z" transform="translate(-224.507 -274.409)" fill="#4f4c4d"/>
        <g id="Grupo_137562" data-name="Grupo 137562" transform="translate(83.196 122.332)" style="mix-blend-mode: overlay;isolation: isolate">
          <g id="Grupo_137561" data-name="Grupo 137561">
            <g id="Grupo_137560" data-name="Grupo 137560" clip-path="url(#clip-path-4)">
              <path id="Trazado_203439" data-name="Trazado 203439" d="M284.764,382.882h0a3.02,3.02,0,0,0-1.743-2.264l-7.076-4.111a7.9,7.9,0,0,0-7.151-.3l-10.6,6.157a2.137,2.137,0,0,0-1.234,1.8h0v4.415h.009c0,.014.005.027.007.041-.095.869.492,1.808,1.735,2.531l7.076,4.111a7.9,7.9,0,0,0,7.151.3l10.6-6.157a2.067,2.067,0,0,0,1.225-2c0-.034.009-.067.01-.1h0v-4.415Z" transform="translate(-256.96 -375.49)" fill="#636363"/>
            </g>
          </g>
        </g>
        <path id="Trazado_203440" data-name="Trazado 203440" d="M266.535,313.616l-8.928,5.187a2.677,2.677,0,0,1-1.32.309,3.47,3.47,0,0,1-1.695-.428l-19.169-11.136a1.342,1.342,0,0,1-.781-1.081v1.214h0a1.356,1.356,0,0,0,.779,1.058l19.169,11.136a3.469,3.469,0,0,0,1.695.428,2.677,2.677,0,0,0,1.32-.309l8.928-5.187a1.021,1.021,0,0,0,.575-.841h0v-1.214a1.016,1.016,0,0,1-.577.864" transform="translate(-158.672 -206.621)" fill="#a7a9ac"/>
        <path id="Trazado_203441" data-name="Trazado 203441" d="M256.287,305.95a3.468,3.468,0,0,1-1.7-.428l-19.169-11.136a1.342,1.342,0,0,1-.781-1.081,1.016,1.016,0,0,1,.576-.864l8.928-5.187a2.675,2.675,0,0,1,1.321-.309,3.466,3.466,0,0,1,1.695.428l19.169,11.136a1.343,1.343,0,0,1,.781,1.082,1.016,1.016,0,0,1-.577.864l-8.928,5.187a2.677,2.677,0,0,1-1.32.309" transform="translate(-158.672 -193.46)" fill="#a7a9ac"/>
        <path id="Trazado_203442" data-name="Trazado 203442" d="M256.222,320.921v1.19l-19.169-11.136v-1.19Z" transform="translate(-160.302 -208.859)" fill="#a7a9ac"/>
        <path id="Trazado_203443" data-name="Trazado 203443" d="M305.572,334.789V333.6l8.928-5.187v1.19Z" transform="translate(-206.637 -221.417)" fill="#a7a9ac"/>
        <path id="Trazado_203444" data-name="Trazado 203444" d="M266.8,300.657l-8.928,5.187a3.149,3.149,0,0,1-2.849-.119l-19.169-11.136c-.843-.49-.935-1.231-.2-1.655l8.928-5.187a3.15,3.15,0,0,1,2.849.119L266.6,299c.843.49.935,1.231.2,1.655" transform="translate(-159.021 -193.808)" fill="#141313"/>
        <path id="Trazado_203445" data-name="Trazado 203445" d="M269.3,300.98l-10.831,6.293L240.84,297.034l10.831-6.292Z" transform="translate(-162.863 -196.02)" fill="#4f4c4d"/>
        <path id="Trazado_203446" data-name="Trazado 203446" d="M312.15,332.893a.517.517,0,0,1,.005-.977,1.848,1.848,0,0,1,1.681,0Z" transform="translate(-210.852 -223.643)" fill="#4f4c4d"/>
        <path id="Trazado_203447" data-name="Trazado 203447" d="M314.558,332.329a.517.517,0,0,1-.005.977,1.848,1.848,0,0,1-1.681,0Z" transform="translate(-211.573 -224.058)" fill="#7b7979"/>
        <path id="Trazado_203448" data-name="Trazado 203448" d="M314.044,332.157a.451.451,0,0,1,0,.853,1.614,1.614,0,0,1-1.468,0,.451.451,0,0,1,0-.853,1.614,1.614,0,0,1,1.468,0" transform="translate(-211.166 -223.824)" fill="#141313"/>
        <path id="Trazado_203449" data-name="Trazado 203449" d="M253.294,296.878l-1.78,1.034a.087.087,0,0,1-.086-.151l1.78-1.034a.086.086,0,0,1,.086,0,.087.087,0,0,1,0,.151" transform="translate(-169.993 -200.047)" fill="#4f4c4d"/>
        <g id="Grupo_137565" data-name="Grupo 137565" transform="translate(75.97 93.485)" style="mix-blend-mode: overlay;isolation: isolate">
          <g id="Grupo_137564" data-name="Grupo 137564">
            <g id="Grupo_137563" data-name="Grupo 137563" clip-path="url(#clip-path-5)">
              <path id="Trazado_203450" data-name="Trazado 203450" d="M266.33,298.509l-19.169-11.136a3.469,3.469,0,0,0-1.695-.427,2.676,2.676,0,0,0-1.321.309l-8.928,5.187a1.016,1.016,0,0,0-.576.864v1.214h0a1.356,1.356,0,0,0,.779,1.058l19.169,11.136a3.466,3.466,0,0,0,1.695.428,2.676,2.676,0,0,0,1.32-.309l8.928-5.187a1.022,1.022,0,0,0,.575-.841h0V299.59a1.343,1.343,0,0,0-.781-1.082" transform="translate(-234.642 -286.945)" fill="#636363"/>
            </g>
          </g>
        </g>
        <path id="Trazado_203451" data-name="Trazado 203451" d="M72.962,372.667,45.2,388.793a3.78,3.78,0,0,1-1.863.435,4.9,4.9,0,0,1-2.4-.6L1.094,365.472A1.878,1.878,0,0,1,0,363.964v1.448a1.878,1.878,0,0,0,1.094,1.508l39.851,23.152a4.905,4.905,0,0,0,2.4.6,3.776,3.776,0,0,0,1.863-.435l27.758-16.126a1.412,1.412,0,0,0,.8-1.2v-1.447a1.412,1.412,0,0,1-.8,1.2" transform="translate(0 -245.387)" fill="#a7a9ac"/>
        <path id="Trazado_203452" data-name="Trazado 203452" d="M43.342,352.477a4.9,4.9,0,0,1-2.4-.6L1.094,328.72A1.879,1.879,0,0,1,0,327.212a1.412,1.412,0,0,1,.8-1.2L28.56,309.888a3.781,3.781,0,0,1,1.863-.435,4.906,4.906,0,0,1,2.4.6l39.851,23.152a1.879,1.879,0,0,1,1.094,1.508,1.412,1.412,0,0,1-.8,1.2L45.2,352.042a3.781,3.781,0,0,1-1.863.435" transform="translate(0 -208.635)" fill="#a7a9ac"/>
        <path id="Trazado_203453" data-name="Trazado 203453" d="M73.279,336.157,45.522,352.283a4.488,4.488,0,0,1-4.06-.169L1.61,328.962c-1.2-.7-1.332-1.754-.291-2.359l27.758-16.126a4.488,4.488,0,0,1,4.06.169L72.988,333.8c1.2.7,1.332,1.754.291,2.359" transform="translate(-0.416 -209.051)" fill="#141313"/>
        <path id="Trazado_203454" data-name="Trazado 203454" d="M78.787,339.245,50.921,355.434,14.248,334.128l27.865-16.189Z" transform="translate(-9.635 -214.357)" fill="#4f4c4d"/>
        <path id="Trazado_203455" data-name="Trazado 203455" d="M50.8,338.783a.139.139,0,0,1,0,.263.5.5,0,0,1-.452,0,.139.139,0,0,1,0-.263.5.5,0,0,1,.452,0" transform="translate(-33.985 -228.373)" fill="#4f4c4d"/>
        <path id="Trazado_203456" data-name="Trazado 203456" d="M172.87,410.739a.642.642,0,0,1,.006-1.213,2.3,2.3,0,0,1,2.088,0Z" transform="translate(-116.609 -275.934)" fill="#4f4c4d"/>
        <path id="Trazado_203457" data-name="Trazado 203457" d="M175.861,410.037a.642.642,0,0,1-.006,1.213,2.3,2.3,0,0,1-2.088,0Z" transform="translate(-117.506 -276.449)" fill="#a7a9ac"/>
        <path id="Trazado_203458" data-name="Trazado 203458" d="M175.261,409.868a.548.548,0,0,1-.006,1.037,1.961,1.961,0,0,1-1.785,0,.548.548,0,0,1,.005-1.037,1.962,1.962,0,0,1,1.785,0" transform="translate(-117.058 -276.192)" fill="#141313"/>
        <path id="Trazado_203459" data-name="Trazado 203459" d="M43.2,391.726v1.448L3.331,370.013v-1.448Z" transform="translate(-2.253 -248.488)" fill="#a7a9ac"/>
        <g id="Grupo_137568" data-name="Grupo 137568" transform="translate(0 100.818)" style="mix-blend-mode: overlay;isolation: isolate">
          <g id="Grupo_137567" data-name="Grupo 137567">
            <g id="Grupo_137566" data-name="Grupo 137566" clip-path="url(#clip-path-6)">
              <path id="Trazado_203460" data-name="Trazado 203460" d="M72.671,333.209,32.82,310.057a4.905,4.905,0,0,0-2.4-.6,3.78,3.78,0,0,0-1.863.435L.8,326.014a1.412,1.412,0,0,0-.8,1.2v1.448a1.869,1.869,0,0,0,1.078,1.5h0l39.867,23.161h0a4.909,4.909,0,0,0,2.4.6,3.78,3.78,0,0,0,1.863-.435l27.758-16.126a1.411,1.411,0,0,0,.8-1.2v-1.447a1.878,1.878,0,0,0-1.094-1.508" transform="translate(0 -309.453)" fill="#636363"/>
            </g>
          </g>
        </g>
        <path id="Trazado_203461" data-name="Trazado 203461" d="M252.694,119.22V86.147a3.473,3.473,0,0,1,1.806-3.471l43.464-25.251a1.374,1.374,0,0,1,1.165-.223h0s-.732-.427-.8-.453h0a1.39,1.39,0,0,0-1.151.229L253.714,82.229a3.473,3.473,0,0,0-1.806,3.471v33.073c0,.889.243,1.39.627,1.565l.655.37a1.772,1.772,0,0,1-.5-1.489" transform="translate(-170.348 -38.226)" fill="#a7a9ac"/>
        <path id="Trazado_203462" data-name="Trazado 203462" d="M256.36,253.45Z" transform="translate(-173.358 -170.878)" fill="#a7a9ac"/>
        <path id="Trazado_203463" data-name="Trazado 203463" d="M334.608,231.606l-43.464,25.251a4.3,4.3,0,0,1-3.89-.162L258.79,240.157a1.686,1.686,0,0,1-.946-1.182h0v1.671a.94.94,0,0,0,0,.168v.013h0A1.692,1.692,0,0,0,258.79,242l28.464,16.537a4.3,4.3,0,0,0,3.89.162l43.464-25.251a1.164,1.164,0,0,0,.671-.974h0v-1.792h0a1.187,1.187,0,0,1-.669.92" transform="translate(-174.359 -155.53)" fill="#7b7979"/>
        <path id="Trazado_203464" data-name="Trazado 203464" d="M403.668,235.324l-43.7,25.39V258.9l43.7-25.39Z" transform="translate(-243.419 -157.433)" fill="#7b7979"/>
        <path id="Trazado_203465" data-name="Trazado 203465" d="M260.775,259.758l28.464,16.537v1.815l-28.464-16.536Z" transform="translate(-176.344 -175.13)" fill="#7b7979"/>
        <path id="Trazado_203466" data-name="Trazado 203466" d="M334.6,193.465,291.14,218.716a4.3,4.3,0,0,1-3.89-.162l-28.464-16.537c-1.152-.669-1.277-1.681-.279-2.26l43.464-25.25a4.3,4.3,0,0,1,3.89.162l28.464,16.537c1.152.669,1.277,1.681.279,2.26" transform="translate(-174.354 -117.39)" fill="#a7a9ac"/>
        <path id="Trazado_203467" data-name="Trazado 203467" d="M327.044,190.085l-41.712,24.233a1.433,1.433,0,0,1-1.3-.054l-15.494-9c-.384-.223-.426-.56-.093-.753l41.712-24.233a1.433,1.433,0,0,1,1.3.054l15.494,9c.384.223.426.56.093.754" transform="translate(-181.381 -121.455)" fill="#7b7979"/>
        <path id="Trazado_203468" data-name="Trazado 203468" d="M280.3,256.46l-2.175,1.263a.574.574,0,0,1-.519-.021l-2.084-1.211c-.153-.089-.17-.224-.037-.3l2.175-1.263a.573.573,0,0,1,.519.021l2.084,1.211c.153.089.17.224.037.3" transform="translate(-186.232 -171.838)" fill="#141313"/>
        <path id="Trazado_203469" data-name="Trazado 203469" d="M289.39,251.213l-2.175,1.263a.572.572,0,0,1-.519-.022l-2.084-1.211c-.153-.089-.17-.224-.037-.3l2.175-1.263a.574.574,0,0,1,.519.021l2.084,1.211c.153.089.17.224.037.3" transform="translate(-192.378 -168.301)" fill="#141313"/>
        <path id="Trazado_203470" data-name="Trazado 203470" d="M298.48,245.965l-2.175,1.263a.574.574,0,0,1-.519-.021L293.7,246c-.153-.089-.17-.224-.037-.3l2.175-1.263a.573.573,0,0,1,.519.021l2.084,1.211c.153.089.17.224.037.3" transform="translate(-198.524 -164.762)" fill="#141313"/>
        <path id="Trazado_203471" data-name="Trazado 203471" d="M307.569,240.718l-2.175,1.263a.574.574,0,0,1-.519-.022l-2.084-1.211c-.153-.089-.17-.224-.037-.3l2.175-1.263a.573.573,0,0,1,.519.021l2.084,1.211c.154.089.17.224.037.3" transform="translate(-204.67 -161.225)" fill="#141313"/>
        <path id="Trazado_203472" data-name="Trazado 203472" d="M316.657,235.47l-2.175,1.263a.574.574,0,0,1-.519-.021L311.88,235.5c-.153-.089-.17-.224-.037-.3l2.175-1.263a.573.573,0,0,1,.519.021l2.084,1.211c.153.089.17.224.037.3" transform="translate(-210.816 -157.687)" fill="#141313"/>
        <path id="Trazado_203473" data-name="Trazado 203473" d="M325.746,230.223l-2.175,1.263a.574.574,0,0,1-.519-.022l-2.084-1.211c-.153-.089-.17-.224-.037-.3l2.175-1.263a.573.573,0,0,1,.519.021l2.084,1.211c.153.089.17.224.037.3" transform="translate(-216.963 -154.149)" fill="#141313"/>
        <path id="Trazado_203474" data-name="Trazado 203474" d="M334.835,224.975l-2.175,1.263a.573.573,0,0,1-.519-.021l-2.084-1.211c-.153-.089-.17-.224-.037-.3l2.175-1.263a.573.573,0,0,1,.519.021l2.084,1.211c.153.089.17.224.037.3" transform="translate(-223.109 -150.611)" fill="#141313"/>
        <path id="Trazado_203475" data-name="Trazado 203475" d="M343.924,219.728l-2.175,1.263a.573.573,0,0,1-.519-.021l-2.084-1.211c-.153-.089-.17-.224-.037-.3l2.175-1.263a.573.573,0,0,1,.519.021l2.084,1.211c.154.089.17.224.037.3" transform="translate(-229.255 -147.073)" fill="#141313"/>
        <path id="Trazado_203476" data-name="Trazado 203476" d="M353.013,214.48l-2.175,1.263a.574.574,0,0,1-.519-.022l-2.084-1.211c-.153-.089-.17-.224-.037-.3l2.175-1.263a.573.573,0,0,1,.519.022l2.084,1.211c.153.089.17.224.037.3" transform="translate(-235.401 -143.535)" fill="#141313"/>
        <path id="Trazado_203477" data-name="Trazado 203477" d="M362.1,209.233l-2.175,1.263a.574.574,0,0,1-.519-.021l-2.084-1.211c-.153-.089-.17-.224-.037-.3l2.175-1.263a.574.574,0,0,1,.519.021l2.084,1.211c.153.089.17.224.037.3" transform="translate(-241.547 -139.997)" fill="#141313"/>
        <path id="Trazado_203478" data-name="Trazado 203478" d="M371.191,203.985l-2.175,1.263a.574.574,0,0,1-.519-.022l-2.084-1.211c-.153-.089-.17-.224-.037-.3l2.175-1.263a.573.573,0,0,1,.519.022l2.084,1.211c.154.089.17.224.037.3" transform="translate(-247.693 -136.459)" fill="#141313"/>
        <path id="Trazado_203479" data-name="Trazado 203479" d="M380.28,198.738,378.1,200a.574.574,0,0,1-.519-.021l-2.084-1.211c-.153-.089-.17-.224-.037-.3l2.175-1.263a.572.572,0,0,1,.519.021l2.084,1.211c.153.089.17.224.037.3" transform="translate(-253.84 -132.921)" fill="#141313"/>
        <path id="Trazado_203480" data-name="Trazado 203480" d="M389.368,193.49l-2.175,1.263a.574.574,0,0,1-.519-.022l-2.084-1.211c-.153-.089-.17-.224-.037-.3l2.175-1.263a.573.573,0,0,1,.519.021l2.084,1.211c.153.089.17.224.037.3" transform="translate(-259.986 -129.383)" fill="#141313"/>
        <path id="Trazado_203481" data-name="Trazado 203481" d="M399.787,185.871l-3.5,2.036a.572.572,0,0,1-.519-.022l-2.084-1.211c-.153-.089-.17-.224-.037-.3l3.5-2.036a.573.573,0,0,1,.519.021l2.084,1.211c.153.089.17.224.037.3" transform="translate(-266.132 -124.247)" fill="#141313"/>
        <path id="Trazado_203482" data-name="Trazado 203482" d="M406.781,190.816l2.175-1.263a.574.574,0,0,1,.519.021l2.084,1.211c.154.089.17.224.037.3l-2.175,1.263a.572.572,0,0,1-.519-.021l-2.084-1.211c-.154-.089-.17-.224-.037-.3" transform="translate(-275.017 -127.763)" fill="#141313"/>
        <path id="Trazado_203483" data-name="Trazado 203483" d="M397.692,196.064l2.175-1.263a.574.574,0,0,1,.519.022l2.084,1.211c.153.089.17.224.037.3l-2.175,1.263a.572.572,0,0,1-.519-.021l-2.084-1.211c-.153-.089-.17-.224-.037-.3" transform="translate(-268.871 -131.301)" fill="#141313"/>
        <path id="Trazado_203484" data-name="Trazado 203484" d="M388.6,201.311l2.175-1.263a.573.573,0,0,1,.519.021l2.084,1.211c.153.089.17.224.037.3l-2.175,1.263a.573.573,0,0,1-.519-.022l-2.084-1.211c-.153-.089-.17-.224-.037-.3" transform="translate(-262.724 -134.838)" fill="#141313"/>
        <path id="Trazado_203485" data-name="Trazado 203485" d="M379.514,206.559l2.175-1.263a.574.574,0,0,1,.519.021l2.084,1.211c.153.089.17.224.037.3l-2.175,1.263a.573.573,0,0,1-.519-.021l-2.084-1.211c-.154-.089-.17-.224-.037-.3" transform="translate(-256.578 -138.377)" fill="#141313"/>
        <path id="Trazado_203486" data-name="Trazado 203486" d="M370.425,211.806l2.175-1.263a.574.574,0,0,1,.519.022l2.084,1.211c.154.089.17.224.037.3l-2.175,1.263a.572.572,0,0,1-.519-.022l-2.084-1.211c-.154-.089-.17-.224-.037-.3" transform="translate(-250.432 -141.914)" fill="#141313"/>
        <path id="Trazado_203487" data-name="Trazado 203487" d="M361.337,217.054l2.175-1.263a.574.574,0,0,1,.519.022l2.084,1.211c.153.089.17.224.037.3l-2.175,1.263a.573.573,0,0,1-.519-.021l-2.084-1.211c-.153-.089-.17-.224-.037-.3" transform="translate(-244.286 -145.452)" fill="#141313"/>
        <path id="Trazado_203488" data-name="Trazado 203488" d="M352.248,222.3l2.175-1.263a.574.574,0,0,1,.519.022l2.084,1.211c.154.089.17.224.037.3l-2.175,1.263a.572.572,0,0,1-.519-.022l-2.084-1.211c-.153-.089-.17-.224-.037-.3" transform="translate(-238.14 -148.99)" fill="#141313"/>
        <path id="Trazado_203489" data-name="Trazado 203489" d="M343.159,227.549l2.175-1.263a.574.574,0,0,1,.519.021l2.084,1.211c.153.089.17.224.037.3l-2.175,1.263a.572.572,0,0,1-.519-.021l-2.084-1.211c-.153-.089-.17-.224-.037-.3" transform="translate(-231.994 -152.528)" fill="#141313"/>
        <path id="Trazado_203490" data-name="Trazado 203490" d="M334.07,232.8l2.175-1.263a.574.574,0,0,1,.519.021l2.084,1.211c.153.089.17.224.037.3l-2.175,1.263a.573.573,0,0,1-.519-.021l-2.084-1.211c-.153-.089-.17-.224-.037-.3" transform="translate(-225.848 -156.066)" fill="#141313"/>
        <path id="Trazado_203491" data-name="Trazado 203491" d="M324.981,238.044l2.175-1.263a.573.573,0,0,1,.519.021l2.084,1.211c.153.089.17.224.037.3l-2.175,1.263a.572.572,0,0,1-.519-.021l-2.084-1.211c-.153-.089-.17-.224-.037-.3" transform="translate(-219.701 -159.604)" fill="#141313"/>
        <path id="Trazado_203492" data-name="Trazado 203492" d="M315.892,243.291l2.175-1.263a.574.574,0,0,1,.519.021l2.084,1.211c.153.089.17.224.037.3l-2.175,1.263a.574.574,0,0,1-.519-.022l-2.084-1.211c-.153-.089-.17-.224-.037-.3" transform="translate(-213.555 -163.142)" fill="#141313"/>
        <path id="Trazado_203493" data-name="Trazado 203493" d="M306.8,248.539l2.175-1.263a.574.574,0,0,1,.519.021l2.084,1.211c.153.089.17.224.037.3l-2.175,1.263a.573.573,0,0,1-.519-.022l-2.084-1.211c-.154-.089-.17-.224-.037-.3" transform="translate(-207.409 -166.68)" fill="#141313"/>
        <path id="Trazado_203494" data-name="Trazado 203494" d="M297.714,253.786l2.175-1.263a.574.574,0,0,1,.519.022l2.084,1.211c.154.089.17.224.037.3l-2.175,1.263a.572.572,0,0,1-.519-.022l-2.084-1.211c-.153-.089-.17-.224-.037-.3" transform="translate(-201.263 -170.217)" fill="#141313"/>
        <path id="Trazado_203495" data-name="Trazado 203495" d="M284.518,259.807l3.5-2.036a.573.573,0,0,1,.519.021L290.626,259c.153.089.17.224.037.3l-3.5,2.036a.573.573,0,0,1-.519-.022l-2.084-1.211c-.153-.089-.17-.224-.037-.3" transform="translate(-192.339 -173.755)" fill="#141313"/>
        <path id="Trazado_203496" data-name="Trazado 203496" d="M409.253,197.266l4.3-2.5a.573.573,0,0,1,.519.022L416.155,196c.154.089.17.224.038.3l-4.3,2.5a.573.573,0,0,1-.519-.022l-2.084-1.211c-.153-.089-.17-.224-.037-.3" transform="translate(-276.689 -131.279)" fill="#141313"/>
        <path id="Trazado_203497" data-name="Trazado 203497" d="M293.625,264.022l4.3-2.5a.573.573,0,0,1,.519.022l2.084,1.211c.154.089.17.224.037.3l-4.3,2.5a.572.572,0,0,1-.519-.022l-2.084-1.211c-.153-.089-.17-.224-.037-.3" transform="translate(-198.497 -176.287)" fill="#141313"/>
        <path id="Trazado_203498" data-name="Trazado 203498" d="M400.164,205.066l2.175-1.263a.574.574,0,0,1,.519.021l2.084,1.211c.153.089.17.224.037.3L402.8,206.6a.572.572,0,0,1-.519-.021l-2.084-1.211c-.153-.089-.17-.224-.037-.3" transform="translate(-270.542 -137.37)" fill="#141313"/>
        <path id="Trazado_203499" data-name="Trazado 203499" d="M391.075,210.314l2.175-1.263a.573.573,0,0,1,.519.022l2.084,1.211c.153.089.17.224.037.3l-2.175,1.263a.573.573,0,0,1-.519-.022l-2.084-1.211c-.153-.089-.17-.224-.037-.3" transform="translate(-264.396 -140.908)" fill="#141313"/>
        <path id="Trazado_203500" data-name="Trazado 203500" d="M381.986,215.561l2.175-1.263a.574.574,0,0,1,.519.021l2.084,1.211c.153.089.17.224.037.3l-2.175,1.263a.574.574,0,0,1-.519-.022l-2.084-1.211c-.153-.089-.17-.224-.037-.3" transform="translate(-258.25 -144.446)" fill="#141313"/>
        <path id="Trazado_203501" data-name="Trazado 203501" d="M372.9,220.809l2.175-1.263a.574.574,0,0,1,.519.021l2.084,1.211c.153.089.17.224.037.3l-2.175,1.264a.573.573,0,0,1-.519-.022l-2.084-1.211c-.153-.089-.17-.224-.037-.3" transform="translate(-252.104 -147.984)" fill="#141313"/>
        <path id="Trazado_203502" data-name="Trazado 203502" d="M363.808,226.056l2.175-1.263a.573.573,0,0,1,.519.021l2.084,1.211c.154.089.17.224.037.3l-2.175,1.263a.573.573,0,0,1-.519-.022l-2.084-1.211c-.154-.089-.17-.224-.037-.3" transform="translate(-245.957 -151.522)" fill="#141313"/>
        <path id="Trazado_203503" data-name="Trazado 203503" d="M354.719,231.3l2.175-1.263a.573.573,0,0,1,.519.021l2.084,1.211c.154.089.17.224.037.3l-2.175,1.263a.574.574,0,0,1-.519-.022l-2.084-1.211c-.154-.089-.17-.224-.037-.3" transform="translate(-239.811 -155.06)" fill="#141313"/>
        <path id="Trazado_203504" data-name="Trazado 203504" d="M345.63,236.551l2.175-1.263a.573.573,0,0,1,.519.021l2.084,1.211c.154.089.17.224.037.3l-2.175,1.263a.572.572,0,0,1-.519-.021l-2.084-1.211c-.153-.089-.17-.224-.037-.3" transform="translate(-233.665 -158.597)" fill="#141313"/>
        <path id="Trazado_203505" data-name="Trazado 203505" d="M336.541,241.8l2.175-1.263a.574.574,0,0,1,.519.022l2.084,1.211c.153.089.17.224.037.3l-2.175,1.263a.573.573,0,0,1-.519-.021l-2.084-1.211c-.153-.089-.17-.224-.037-.3" transform="translate(-227.519 -162.136)" fill="#141313"/>
        <path id="Trazado_203506" data-name="Trazado 203506" d="M327.452,247.046l2.175-1.263a.573.573,0,0,1,.519.021l2.084,1.211c.153.089.17.224.037.3l-2.175,1.263a.574.574,0,0,1-.519-.022l-2.084-1.211c-.153-.089-.17-.224-.037-.3" transform="translate(-221.372 -165.673)" fill="#141313"/>
        <path id="Trazado_203507" data-name="Trazado 203507" d="M318.363,252.294l2.175-1.263a.574.574,0,0,1,.519.021l2.084,1.211c.153.089.17.224.037.3L321,253.828a.573.573,0,0,1-.519-.022L318.4,252.6c-.153-.089-.17-.224-.037-.3" transform="translate(-215.226 -169.211)" fill="#141313"/>
        <path id="Trazado_203508" data-name="Trazado 203508" d="M309.274,257.541l2.175-1.263a.574.574,0,0,1,.519.022l2.084,1.211c.153.089.17.224.037.3l-2.175,1.263a.573.573,0,0,1-.519-.021l-2.084-1.211c-.153-.089-.17-.224-.037-.3" transform="translate(-209.08 -172.749)" fill="#141313"/>
        <path id="Trazado_203509" data-name="Trazado 203509" d="M413.773,203.328l5.76-3.346a.573.573,0,0,1,.519.021l2.084,1.211c.153.089.17.224.037.3l-5.76,3.346a.572.572,0,0,1-.519-.021l-2.084-1.211c-.153-.089-.17-.224-.037-.3" transform="translate(-279.745 -134.794)" fill="#141313"/>
        <path id="Trazado_203510" data-name="Trazado 203510" d="M404.684,212.886l2.175-1.263a.574.574,0,0,1,.519.021l2.084,1.211c.153.089.17.224.037.3l-2.175,1.263a.573.573,0,0,1-.519-.021l-2.084-1.211c-.153-.089-.17-.224-.037-.3" transform="translate(-273.599 -142.642)" fill="#141313"/>
        <path id="Trazado_203511" data-name="Trazado 203511" d="M395.6,218.133l2.175-1.263a.574.574,0,0,1,.519.022l2.084,1.211c.153.089.17.224.037.3l-2.175,1.263a.573.573,0,0,1-.519-.022l-2.084-1.211c-.153-.089-.17-.224-.037-.3" transform="translate(-267.453 -146.18)" fill="#141313"/>
        <path id="Trazado_203512" data-name="Trazado 203512" d="M386.506,223.381l2.175-1.263a.573.573,0,0,1,.519.022l2.084,1.211c.153.089.17.224.037.3l-2.175,1.263a.573.573,0,0,1-.519-.021l-2.084-1.211c-.153-.089-.17-.224-.037-.3" transform="translate(-261.306 -149.718)" fill="#141313"/>
        <path id="Trazado_203513" data-name="Trazado 203513" d="M377.417,228.628l2.175-1.263a.574.574,0,0,1,.519.021L382.2,228.6c.153.089.17.224.037.3l-2.175,1.263a.573.573,0,0,1-.519-.022l-2.084-1.211c-.153-.089-.17-.224-.037-.3" transform="translate(-255.16 -153.256)" fill="#141313"/>
        <path id="Trazado_203514" data-name="Trazado 203514" d="M368.328,233.876l2.175-1.263a.574.574,0,0,1,.519.021l2.084,1.211c.154.089.17.224.037.3l-2.175,1.263a.573.573,0,0,1-.519-.021l-2.084-1.211c-.153-.089-.17-.224-.037-.3" transform="translate(-249.014 -156.794)" fill="#141313"/>
        <path id="Trazado_203515" data-name="Trazado 203515" d="M359.239,239.123l2.175-1.263a.573.573,0,0,1,.519.022l2.084,1.211c.153.089.17.224.037.3l-2.175,1.263a.573.573,0,0,1-.519-.021l-2.084-1.211c-.153-.089-.17-.224-.037-.3" transform="translate(-242.868 -160.331)" fill="#141313"/>
        <path id="Trazado_203516" data-name="Trazado 203516" d="M350.15,244.371l2.175-1.263a.574.574,0,0,1,.519.021l2.084,1.211c.153.089.17.224.037.3L352.79,245.9a.572.572,0,0,1-.519-.021l-2.084-1.211c-.153-.089-.17-.224-.037-.3" transform="translate(-236.721 -163.87)" fill="#141313"/>
        <path id="Trazado_203517" data-name="Trazado 203517" d="M341.062,249.618l2.174-1.263a.574.574,0,0,1,.519.022l2.084,1.211c.153.089.17.224.037.3l-2.175,1.263a.572.572,0,0,1-.518-.022L341.1,249.92c-.153-.089-.17-.224-.037-.3" transform="translate(-230.576 -167.407)" fill="#141313"/>
        <path id="Trazado_203518" data-name="Trazado 203518" d="M331.972,254.866l2.175-1.263a.573.573,0,0,1,.519.021l2.084,1.211c.154.089.17.224.037.3l-2.175,1.263a.573.573,0,0,1-.519-.021l-2.084-1.211c-.153-.089-.17-.224-.037-.3" transform="translate(-224.429 -170.946)" fill="#141313"/>
        <path id="Trazado_203519" data-name="Trazado 203519" d="M322.884,260.113l2.174-1.263a.574.574,0,0,1,.519.021l2.084,1.211c.153.089.17.224.037.3l-2.175,1.263a.573.573,0,0,1-.519-.022l-2.084-1.211c-.153-.089-.17-.224-.037-.3" transform="translate(-218.283 -174.483)" fill="#141313"/>
        <path id="Trazado_203520" data-name="Trazado 203520" d="M302.657,267.456l5.781-3.359a.573.573,0,0,1,.519.022l2.084,1.211c.154.089.17.224.037.3l-5.781,3.358a.574.574,0,0,1-.519-.021l-2.084-1.211c-.153-.089-.17-.224-.037-.3" transform="translate(-204.605 -178.021)" fill="#141313"/>
        <path id="Trazado_203521" data-name="Trazado 203521" d="M350.094,240.682l13.946-8.1a.573.573,0,0,1,.519.021l2.084,1.211c.153.089.17.224.037.3l-13.946,8.1a.572.572,0,0,1-.519-.022l-2.084-1.211c-.153-.089-.17-.224-.037-.3" transform="translate(-236.683 -156.772)" fill="#141313"/>
        <path id="Trazado_203522" data-name="Trazado 203522" d="M406.611,222.2l2.175-1.263a.573.573,0,0,1,.519.022l2.084,1.211c.153.089.17.224.037.3l-2.175,1.263a.572.572,0,0,1-.519-.021l-2.084-1.211c-.153-.089-.17-.224-.037-.3" transform="translate(-274.902 -148.924)" fill="#141313"/>
        <path id="Trazado_203523" data-name="Trazado 203523" d="M395.538,227.824l2.817-1.637a.573.573,0,0,1,.519.022l2.084,1.211c.153.089.17.224.037.3l-2.817,1.636a.574.574,0,0,1-.519-.021l-2.084-1.211c-.153-.089-.17-.224-.037-.3" transform="translate(-267.414 -152.462)" fill="#141313"/>
        <path id="Trazado_203524" data-name="Trazado 203524" d="M332.107,265.21l-2.175,1.263c-.133.078-.117.212.037.3l2.084,1.211a.573.573,0,0,0,.519.022l2.175-1.264c.133-.077.116-.212-.037-.3l-2.084-1.211a.574.574,0,0,0-.519-.021" transform="translate(-223.049 -178.771)" fill="#141313"/>
        <path id="Trazado_203525" data-name="Trazado 203525" d="M341.839,258.817l-2.817,1.637c-.133.077-.116.212.037.3l2.084,1.211a.574.574,0,0,0,.519.021l2.817-1.637c.133-.077.116-.212-.038-.3l-2.084-1.211a.574.574,0,0,0-.519-.021" transform="translate(-229.196 -174.461)" fill="#141313"/>
        <path id="Trazado_203526" data-name="Trazado 203526" d="M433.878,206.46l2.175-1.263a.574.574,0,0,1,.519.022l2.084,1.211c.154.089.17.224.037.3l-2.175,1.263a.572.572,0,0,1-.519-.021l-2.084-1.211c-.153-.089-.17-.224-.037-.3" transform="translate(-293.341 -138.31)" fill="#141313"/>
        <path id="Trazado_203527" data-name="Trazado 203527" d="M424.789,211.708l2.175-1.263a.573.573,0,0,1,.519.021l2.084,1.211c.153.089.17.224.037.3l-2.175,1.263a.573.573,0,0,1-.519-.021l-2.084-1.211c-.153-.089-.17-.224-.037-.3" transform="translate(-287.194 -141.848)" fill="#141313"/>
        <path id="Trazado_203528" data-name="Trazado 203528" d="M415.7,216.955l2.175-1.263a.574.574,0,0,1,.519.021l2.084,1.211c.153.089.17.224.037.3l-2.175,1.263a.573.573,0,0,1-.519-.021l-2.084-1.211c-.153-.089-.17-.224-.037-.3" transform="translate(-281.048 -145.386)" fill="#141313"/>
        <path id="Trazado_203529" data-name="Trazado 203529" d="M311.689,273.443l5.139-2.985a.573.573,0,0,1,.519.021l2.084,1.211c.154.089.17.224.037.3l-5.139,2.985a.572.572,0,0,1-.519-.022l-2.084-1.211c-.153-.089-.17-.224-.037-.3" transform="translate(-210.713 -182.309)" fill="#141313"/>
        <path id="Trazado_203530" data-name="Trazado 203530" d="M273.458,252.5l-2.175,1.263a.574.574,0,0,1-.519-.021l-1.036-.6c-.153-.089-.17-.224-.037-.3l2.175-1.263a.573.573,0,0,1,.519.021l1.036.6c.153.089.17.224.037.3" transform="translate(-182.312 -169.582)" fill="#141313"/>
        <path id="Trazado_203531" data-name="Trazado 203531" d="M282.547,247.258l-2.175,1.263a.573.573,0,0,1-.519-.022l-1.036-.6c-.153-.089-.17-.224-.037-.3l2.175-1.263a.574.574,0,0,1,.519.021l1.036.6c.153.089.17.224.037.3" transform="translate(-188.458 -166.044)" fill="#141313"/>
        <path id="Trazado_203532" data-name="Trazado 203532" d="M291.636,242.01l-2.175,1.263a.574.574,0,0,1-.519-.021l-1.036-.6c-.153-.089-.17-.224-.037-.3l2.175-1.263a.575.575,0,0,1,.519.022l1.036.6c.153.089.17.224.037.3" transform="translate(-194.604 -162.506)" fill="#141313"/>
        <path id="Trazado_203533" data-name="Trazado 203533" d="M300.724,236.763l-2.175,1.263a.573.573,0,0,1-.519-.021l-1.036-.6c-.154-.089-.17-.224-.037-.3l2.174-1.263a.575.575,0,0,1,.519.021l1.036.6c.154.089.17.224.038.3" transform="translate(-200.75 -158.968)" fill="#141313"/>
        <path id="Trazado_203534" data-name="Trazado 203534" d="M309.813,231.515l-2.175,1.263a.573.573,0,0,1-.519-.021l-1.036-.6c-.153-.089-.17-.224-.037-.3l2.175-1.263a.574.574,0,0,1,.519.021l1.036.6c.153.089.17.224.037.3" transform="translate(-206.896 -155.43)" fill="#141313"/>
        <path id="Trazado_203535" data-name="Trazado 203535" d="M318.9,226.268l-2.175,1.263a.574.574,0,0,1-.519-.021l-1.036-.6c-.153-.089-.17-.224-.037-.3l2.175-1.263a.574.574,0,0,1,.519.021l1.036.6c.153.089.17.224.037.3" transform="translate(-213.042 -151.892)" fill="#141313"/>
        <path id="Trazado_203536" data-name="Trazado 203536" d="M327.991,221.02l-2.175,1.263a.574.574,0,0,1-.519-.021l-1.036-.6c-.153-.089-.17-.224-.037-.3l2.175-1.263a.574.574,0,0,1,.519.021l1.036.6c.153.089.17.224.037.3" transform="translate(-219.189 -148.354)" fill="#141313"/>
        <path id="Trazado_203537" data-name="Trazado 203537" d="M337.08,215.773l-2.175,1.263a.574.574,0,0,1-.519-.021l-1.036-.6c-.153-.089-.17-.224-.037-.3l2.175-1.263a.573.573,0,0,1,.519.022l1.036.6c.153.089.17.224.037.3" transform="translate(-225.335 -144.817)" fill="#141313"/>
        <path id="Trazado_203538" data-name="Trazado 203538" d="M346.169,210.525l-2.175,1.263a.573.573,0,0,1-.519-.022l-1.036-.6c-.153-.089-.17-.224-.037-.3l2.175-1.263a.574.574,0,0,1,.519.021l1.036.6c.153.089.17.224.037.3" transform="translate(-231.481 -141.278)" fill="#141313"/>
        <path id="Trazado_203539" data-name="Trazado 203539" d="M355.258,205.278l-2.175,1.263a.573.573,0,0,1-.519-.021l-1.036-.6c-.153-.089-.17-.224-.037-.3l2.175-1.263a.575.575,0,0,1,.519.021l1.036.6c.153.089.17.224.037.3" transform="translate(-237.627 -137.741)" fill="#141313"/>
        <path id="Trazado_203540" data-name="Trazado 203540" d="M364.347,200.03l-2.175,1.263a.574.574,0,0,1-.519-.021l-1.036-.6c-.153-.089-.17-.224-.037-.3l2.175-1.263a.574.574,0,0,1,.519.021l1.036.6c.153.089.17.224.037.3" transform="translate(-243.774 -134.203)" fill="#141313"/>
        <path id="Trazado_203541" data-name="Trazado 203541" d="M373.436,194.783l-2.175,1.263a.573.573,0,0,1-.519-.021l-1.036-.6c-.153-.089-.17-.224-.037-.3l2.175-1.263a.574.574,0,0,1,.519.021l1.036.6c.153.089.17.224.037.3" transform="translate(-249.92 -130.665)" fill="#141313"/>
        <path id="Trazado_203542" data-name="Trazado 203542" d="M382.525,189.535,380.35,190.8a.573.573,0,0,1-.519-.021l-1.036-.6c-.153-.089-.17-.224-.037-.3l2.175-1.263a.574.574,0,0,1,.519.021l1.036.6c.153.089.17.224.037.3" transform="translate(-256.066 -127.127)" fill="#141313"/>
        <path id="Trazado_203543" data-name="Trazado 203543" d="M392.943,181.917l-3.5,2.036a.574.574,0,0,1-.519-.021l-1.036-.6c-.153-.089-.17-.224-.037-.3l3.5-2.036a.574.574,0,0,1,.519.021l1.036.6c.154.089.17.224.037.3" transform="translate(-262.212 -121.991)" fill="#141313"/>
        <path id="Trazado_203544" data-name="Trazado 203544" d="M410.032,212.59l.286-.166.285.166-.286.166Z" transform="translate(-277.276 -143.218)" fill="#141313"/>
        <path id="Trazado_203545" data-name="Trazado 203545" d="M365.161,244.184l13.946-8.1a.573.573,0,0,1,.519.021l11.938,6.935c.153.089.17.224.037.3l-13.946,8.1a.573.573,0,0,1-.519-.022L365.2,244.485c-.153-.089-.17-.224-.037-.3" transform="translate(-246.872 -159.133)" fill="#7b7979"/>
        <path id="Trazado_203546" data-name="Trazado 203546" d="M422.613,265.158l-7.09,4.119a.211.211,0,0,0,0,.4l7.778-4.519a.754.754,0,0,0-.686,0" transform="translate(-280.892 -178.715)" fill="#7b7979"/>
        <path id="Trazado_203547" data-name="Trazado 203547" d="M307.532,181.593l-36.751,21.351-.5-.292L307.03,181.3Z" transform="translate(-182.77 -122.234)" fill="#7b7979"/>
        <path id="Trazado_203548" data-name="Trazado 203548" d="M252.694,146.143v33.073l-.786-.457V145.687Z" transform="translate(-170.347 -98.223)" fill="#a7a9ac"/>
        <path id="Trazado_203549" data-name="Trazado 203549" d="M299.605,96.267l-43.464,25.251c-1,.579-1.806.249-1.806-1.374V87.071a3.473,3.473,0,0,1,1.806-3.471l43.464-25.251c1-.579,1.806-.323,1.806,1.374V92.8c0,2.161-.715,2.841-1.806,3.471" transform="translate(-171.989 -39.15)" fill="#7b7979"/>
        <path id="Trazado_203550" data-name="Trazado 203550" d="M301.655,166.523a3.247,3.247,0,0,1-1.461,2.535l-43.7,25.39c-.806.468-1.461.092-1.461-.838Z" transform="translate(-172.458 -112.271)" fill="#4f4c4d"/>
        <path id="Trazado_203551" data-name="Trazado 203551" d="M255.03,121.045V87.02a3.247,3.247,0,0,1,1.461-2.535l43.7-25.39c.806-.468,1.461-.092,1.461.838V93.958Z" transform="translate(-172.459 -39.706)" fill="#141313"/>
        <path id="Trazado_203552" data-name="Trazado 203552" d="M260.236,122.835V91.015L303.49,65.886v31.82Z" transform="translate(-175.979 -44.421)" fill="#4f4c4d"/>
        <g id="Grupo_137571" data-name="Grupo 137571" transform="translate(81.56 18.472)" style="mix-blend-mode: overlay;isolation: isolate">
          <g id="Grupo_137570" data-name="Grupo 137570">
            <g id="Grupo_137569" data-name="Grupo 137569" clip-path="url(#clip-path-7)">
              <path id="Trazado_203553" data-name="Trazado 203553" d="M331.267,113.383a1.559,1.559,0,0,0-.949-1.341L301.854,95.505a4.3,4.3,0,0,0-3.89-.162c1.09-.63,1.806-1.31,1.806-3.471V58.8c0-.945-.252-1.442-.646-1.6l.005,0h0s-.732-.427-.8-.453h0a1.39,1.39,0,0,0-1.151.229L253.714,82.229a3.47,3.47,0,0,0-1.805,3.462h0v33.083c0,.889.243,1.39.627,1.565l.655.37c-.011-.008-.02-.018-.03-.027a1.159,1.159,0,0,0,1.34-.089,1.127,1.127,0,0,0-.667,1.078h0v1.671a.91.91,0,0,0,0,.168v.013h0a1.692,1.692,0,0,0,.946,1.177l28.464,16.536a4.3,4.3,0,0,0,3.89.162l43.464-25.25a1.164,1.164,0,0,0,.671-.974h0v-1.792Z" transform="translate(-251.908 -56.699)" fill="#afafaf"/>
            </g>
          </g>
        </g>
        <path id="Trazado_203554" data-name="Trazado 203554" d="M337.677,371.637l7.851,4.561,3.89-2.26v1.291l-3.89,2.26-7.851-4.561a1.413,1.413,0,0,1-.81-1.092h0v-.02q0-.024,0-.049v-1.215h0a1.418,1.418,0,0,0,.81,1.086" transform="translate(-227.798 -249.828)" fill="#4f4c4d"/>
        <path id="Trazado_203555" data-name="Trazado 203555" d="M345.524,372.788l-7.851-4.561a1.2,1.2,0,0,1-.012-2.267,4.289,4.289,0,0,1,3.9.007l7.851,4.561Z" transform="translate(-227.794 -246.418)" fill="#7b7979"/>
        <path id="Trazado_203556" data-name="Trazado 203556" d="M339.374,375.174v-1.291l7.851,4.561v1.291Z" transform="translate(-229.495 -252.074)" fill="#4f4c4d"/>
        <path id="Trazado_203557" data-name="Trazado 203557" d="M374.5,390.569v-.645l2.636-1.532v.645Z" transform="translate(-253.25 -261.856)" fill="#7b7979"/>
        <path id="Trazado_203558" data-name="Trazado 203558" d="M374.747,390.253v.463l2.479-1.44v-.463Z" transform="translate(-253.415 -262.14)" fill="#4f4c4d"/>
        <path id="Trazado_203559" data-name="Trazado 203559" d="M377.284,389.62,374.913,391v.178l2.371-1.377Z" transform="translate(-253.527 -262.684)" fill="#7b7979"/>
        <path id="Trazado_203560" data-name="Trazado 203560" d="M368.088,383.206l-2.62,1.522,2.925,1.7,2.62-1.522Z" transform="translate(-247.14 -258.36)" fill="#a7a9ac"/>
        <path id="Trazado_203561" data-name="Trazado 203561" d="M374.611,386.624l-.261.152.491.285.261-.152Z" transform="translate(-253.147 -260.664)" fill="#4f4c4d"/>
        <path id="Trazado_203562" data-name="Trazado 203562" d="M371.389,388.485l.261-.152.492.286-.261.152Z" transform="translate(-251.144 -261.817)" fill="#4f4c4d"/>
        <path id="Trazado_203563" data-name="Trazado 203563" d="M368.393,389.577l-2.925-1.7v.645l2.925,1.7Z" transform="translate(-247.14 -261.51)" fill="#7b7979"/>
        <path id="Trazado_203564" data-name="Trazado 203564" d="M356.293,360.445l7.851,4.561,3.89-2.26v1.291l-3.89,2.26-7.851-4.561a1.415,1.415,0,0,1-.811-1.092h0v-.02c0-.016,0-.033,0-.049v-1.215h0a1.419,1.419,0,0,0,.81,1.086" transform="translate(-240.386 -242.282)" fill="#4f4c4d"/>
        <path id="Trazado_203565" data-name="Trazado 203565" d="M364.14,361.6l-7.851-4.561a1.2,1.2,0,0,1-.012-2.267,4.289,4.289,0,0,1,3.9.007l7.851,4.561Z" transform="translate(-240.382 -238.873)" fill="#7b7979"/>
        <path id="Trazado_203566" data-name="Trazado 203566" d="M357.99,363.982v-1.291l7.851,4.561v1.291Z" transform="translate(-242.083 -244.529)" fill="#4f4c4d"/>
        <path id="Trazado_203567" data-name="Trazado 203567" d="M393.119,379.378v-.645l2.636-1.532v.645Z" transform="translate(-265.839 -254.311)" fill="#7b7979"/>
        <path id="Trazado_203568" data-name="Trazado 203568" d="M393.363,379.061v.463l2.479-1.44v-.463Z" transform="translate(-266.004 -254.595)" fill="#4f4c4d"/>
        <path id="Trazado_203569" data-name="Trazado 203569" d="M395.9,378.428l-2.371,1.377v.179l2.371-1.377Z" transform="translate(-266.116 -255.138)" fill="#7b7979"/>
        <path id="Trazado_203570" data-name="Trazado 203570" d="M386.7,372.014l-2.62,1.522,2.925,1.7,2.62-1.522Z" transform="translate(-259.729 -250.814)" fill="#a7a9ac"/>
        <path id="Trazado_203571" data-name="Trazado 203571" d="M393.228,375.432l-.261.152.491.285.261-.152Z" transform="translate(-265.735 -253.118)" fill="#4f4c4d"/>
        <path id="Trazado_203572" data-name="Trazado 203572" d="M390.005,377.293l.261-.152.491.285-.261.152Z" transform="translate(-263.733 -254.271)" fill="#4f4c4d"/>
        <path id="Trazado_203573" data-name="Trazado 203573" d="M387.009,378.385l-2.925-1.7v.645l2.925,1.7Z" transform="translate(-259.729 -253.964)" fill="#7b7979"/>
        <g id="Grupo_137574" data-name="Grupo 137574" transform="translate(109.067 119.076)" style="mix-blend-mode: overlay;isolation: isolate">
          <g id="Grupo_137573" data-name="Grupo 137573">
            <g id="Grupo_137572" data-name="Grupo 137572" clip-path="url(#clip-path-8)">
              <path id="Trazado_203574" data-name="Trazado 203574" d="M336.867,367.142h0a1.337,1.337,0,0,1,.8-1.182,4.288,4.288,0,0,1,3.9.007l7.851,4.561v1.127l2.253,1.309.016-.009v.645l-2.636,1.532-2.667-1.549-.856.5L341.6,371.8l-3.925-2.281a1.415,1.415,0,0,1-.811-1.092h0v-.02c0-.016,0-.032,0-.049v-1.215Z" transform="translate(-336.864 -365.494)" fill="#636363"/>
            </g>
          </g>
        </g>
        <g id="Grupo_137577" data-name="Grupo 137577" transform="translate(115.094 115.429)" style="mix-blend-mode: overlay;isolation: isolate">
          <g id="Grupo_137576" data-name="Grupo 137576">
            <g id="Grupo_137575" data-name="Grupo 137575" clip-path="url(#clip-path-9)">
              <path id="Trazado_203575" data-name="Trazado 203575" d="M355.482,355.95h0a1.337,1.337,0,0,1,.8-1.182,4.288,4.288,0,0,1,3.9.007l7.851,4.561v1.127l2.253,1.309.016-.009v.645l-2.636,1.532L365,362.39l-.856.5-3.925-2.28-3.925-2.281a1.416,1.416,0,0,1-.811-1.092h0v-.02c0-.016,0-.032,0-.049V355.95Z" transform="translate(-355.48 -354.302)" fill="#636363"/>
            </g>
          </g>
        </g>
        <path id="Trazado_203576" data-name="Trazado 203576" d="M268.175,347.463a1.144,1.144,0,0,0-.515-.894.365.365,0,0,0-.361-.039h0l0,0-.277.159.13.235a1.177,1.177,0,0,0,.43.776l.147.265.281-.162h0a.348.348,0,0,0,.17-.342" transform="translate(-180.565 -233.611)" fill="#a7a9ac"/>
        <path id="Trazado_203577" data-name="Trazado 203577" d="M267,347.091a1.143,1.143,0,0,1,.515.894c0,.328-.231.461-.515.3a1.143,1.143,0,0,1-.515-.894c0-.328.231-.461.515-.3" transform="translate(-180.206 -233.963)" fill="#4f4c4d"/>
        <path id="Trazado_203578" data-name="Trazado 203578" d="M239.456,350.9a2.738,2.738,0,0,1-2.745-.269,9.3,9.3,0,0,1-4.046-7.345,3.147,3.147,0,0,1,1.3-2.91l4.7-2.731a3.146,3.146,0,0,0-1.3,2.91,9.3,9.3,0,0,0,4.046,7.345,2.737,2.737,0,0,0,2.745.269Z" transform="translate(-157.335 -227.64)" fill="#a7a9ac"/>
        <path id="Trazado_203579" data-name="Trazado 203579" d="M241.413,337.369a2.734,2.734,0,0,0-2.751-.266h0l-4.717,2.741,0,0a3.163,3.163,0,0,0-1.275,2.9,9.3,9.3,0,0,0,4.046,7.345,2.749,2.749,0,0,0,2.725.281l0,0,4.718-2.741a3.143,3.143,0,0,0,1.3-2.914,9.3,9.3,0,0,0-4.046-7.345m-4.7,12.1a8.145,8.145,0,0,1-3.543-6.431c0-2.415,1.586-3.451,3.543-2.315a8.146,8.146,0,0,1,3.543,6.431c0,2.415-1.586,3.451-3.543,2.315" transform="translate(-157.335 -227.101)" fill="#a7a9ac"/>
        <path id="Trazado_203580" data-name="Trazado 203580" d="M236.711,345.753c-2.235-1.3-4.046-.115-4.046,2.644a9.3,9.3,0,0,0,4.046,7.345c2.235,1.3,4.046.115,4.046-2.644a9.3,9.3,0,0,0-4.046-7.345m0,9.368a8.145,8.145,0,0,1-3.543-6.431c0-2.415,1.586-3.451,3.543-2.315a8.145,8.145,0,0,1,3.543,6.431c0,2.415-1.586,3.451-3.543,2.315" transform="translate(-157.335 -232.753)" fill="#7b7979"/>
        <path id="Trazado_203581" data-name="Trazado 203581" d="M242.365,364.646a1.133,1.133,0,0,1,.576.844c.026.326-.19.478-.482.339a1.131,1.131,0,0,1-.576-.844c-.026-.327.19-.478.482-.338" transform="translate(-163.567 -245.812)" fill="#7b7979"/>
        <path id="Trazado_203582" data-name="Trazado 203582" d="M247.132,361.628a1.134,1.134,0,0,1,.576.844c.026.326-.19.478-.482.339a1.131,1.131,0,0,1-.576-.844c-.026-.326.19-.478.482-.338" transform="translate(-166.79 -243.777)" fill="#7b7979"/>
        <path id="Trazado_203583" data-name="Trazado 203583" d="M249.209,348.536a9.3,9.3,0,0,0-4.046-7.345l4.7-2.731a9.3,9.3,0,0,1,4.046,7.345Z" transform="translate(-165.786 -228.192)" fill="#7b7979"/>
        <path id="Trazado_203584" data-name="Trazado 203584" d="M245.162,346.843a9.3,9.3,0,0,1,4.046,7.345l-.5-.293a8.145,8.145,0,0,0-3.543-6.431Z" transform="translate(-165.786 -233.844)" fill="#4f4c4d"/>
        <path id="Trazado_203585" data-name="Trazado 203585" d="M249.8,348.616a9.548,9.548,0,0,0-3.93-7.141l4.471-2.6a9.221,9.221,0,0,1,3.93,7.141Z" transform="translate(-166.267 -228.473)" fill="#141313"/>
        <path id="Trazado_203586" data-name="Trazado 203586" d="M250.658,348.744a9.651,9.651,0,0,0-1.2-3.858,8.876,8.876,0,0,0-2.553-2.976l4.136-2.4a9.146,9.146,0,0,1,3.755,6.835Z" transform="translate(-166.962 -228.898)" fill="#4f4c4d"/>
        <g id="Grupo_137580" data-name="Grupo 137580" transform="translate(75.33 109.741)" style="mix-blend-mode: overlay;isolation: isolate">
          <g id="Grupo_137579" data-name="Grupo 137579">
            <g id="Grupo_137578" data-name="Grupo 137578" clip-path="url(#clip-path-10)">
              <path id="Trazado_203587" data-name="Trazado 203587" d="M244.689,341.345l.086-.05h0a.348.348,0,0,0,.17-.342,1.144,1.144,0,0,0-.515-.894.364.364,0,0,0-.361-.039h0l-.051.029a7.878,7.878,0,0,0-2.6-2.682,2.735,2.735,0,0,0-2.751-.266l-4.718,2.741,0,0c-.015.008-.028.021-.042.029-.048.029-.093.063-.139.1-.03.022-.062.041-.091.065s-.027.026-.041.038c-.044.038-.085.081-.126.124s-.058.054-.085.084c-.011.012-.02.027-.031.04-.04.047-.075.1-.112.151-.025.035-.053.067-.077.1-.008.012-.014.026-.022.039-.035.057-.065.119-.1.18-.021.042-.046.08-.066.124-.005.011-.009.024-.014.035-.03.067-.054.14-.08.212-.017.048-.038.092-.054.142,0,.009-.005.02-.008.03-.024.08-.042.165-.062.25-.012.052-.028.1-.039.155,0,.007,0,.014,0,.021-.018.1-.03.2-.043.308-.006.05-.016.1-.02.149v.011c-.015.163-.022.332-.022.508a7.816,7.816,0,0,0,.318,2.129,9.783,9.783,0,0,0,.373,1.065,10.4,10.4,0,0,0,.494,1.026,10.1,10.1,0,0,0,.6.958,7.486,7.486,0,0,0,2.262,2.167q.2.115.391.2l.013.006c.044.02.086.034.13.052.08.033.16.069.238.1l.025.008c.05.017.1.028.148.042.065.019.131.041.2.055l.036.006c.051.01.1.016.15.023s.113.021.168.026l.045,0c.05,0,.1,0,.147,0s.1,0,.146,0c.018,0,.036,0,.054-.006.048,0,.094-.01.141-.017s.085-.008.127-.016c.021,0,.04-.011.061-.016.045-.01.088-.023.132-.036s.073-.019.108-.031.044-.02.066-.029c.042-.017.083-.036.123-.056s.056-.022.082-.036l0,0,.016-.009h0l4.7-2.731a3.142,3.142,0,0,0,1.3-2.913,8.592,8.592,0,0,0-.77-3.369m-7.2-.062a8.534,8.534,0,0,1,2.716,5.147,9.916,9.916,0,0,1-2.716-5.147" transform="translate(-232.665 -336.842)" fill="#636363"/>
            </g>
          </g>
        </g>
        <path id="Trazado_203588" data-name="Trazado 203588" d="M223.715,321.856a1.144,1.144,0,0,0-.515-.894.365.365,0,0,0-.361-.039h0l0,0-.277.159.13.235a1.18,1.18,0,0,0,.43.776l.147.265.281-.162h0a.348.348,0,0,0,.17-.342" transform="translate(-150.5 -216.347)" fill="#a7a9ac"/>
        <path id="Trazado_203589" data-name="Trazado 203589" d="M222.542,321.485a1.144,1.144,0,0,1,.515.894c0,.328-.231.461-.515.3a1.143,1.143,0,0,1-.515-.894c0-.328.231-.461.515-.3" transform="translate(-150.141 -216.699)" fill="#4f4c4d"/>
        <path id="Trazado_203590" data-name="Trazado 203590" d="M195,325.293a2.737,2.737,0,0,1-2.745-.269,9.3,9.3,0,0,1-4.046-7.345,3.147,3.147,0,0,1,1.3-2.91l4.7-2.731a3.146,3.146,0,0,0-1.3,2.91,9.3,9.3,0,0,0,4.046,7.345,2.737,2.737,0,0,0,2.745.269Z" transform="translate(-127.27 -210.377)" fill="#a7a9ac"/>
        <path id="Trazado_203591" data-name="Trazado 203591" d="M196.954,311.764a2.734,2.734,0,0,0-2.751-.266h0l-4.717,2.741,0,0a3.163,3.163,0,0,0-1.275,2.9,9.3,9.3,0,0,0,4.046,7.345,2.749,2.749,0,0,0,2.725.281l0,0,4.718-2.741a3.143,3.143,0,0,0,1.3-2.914,9.3,9.3,0,0,0-4.046-7.345m-4.7,12.1a8.145,8.145,0,0,1-3.543-6.431c0-2.415,1.586-3.451,3.543-2.315a8.145,8.145,0,0,1,3.543,6.431c0,2.415-1.586,3.451-3.543,2.315" transform="translate(-127.27 -209.838)" fill="#a7a9ac"/>
        <path id="Trazado_203592" data-name="Trazado 203592" d="M192.252,320.148c-2.235-1.3-4.046-.114-4.046,2.644a9.3,9.3,0,0,0,4.046,7.345c2.235,1.3,4.046.115,4.046-2.644a9.3,9.3,0,0,0-4.046-7.345m0,9.368a8.145,8.145,0,0,1-3.543-6.431c0-2.415,1.586-3.451,3.543-2.315a8.145,8.145,0,0,1,3.543,6.431c0,2.415-1.586,3.451-3.543,2.315" transform="translate(-127.27 -215.49)" fill="#7b7979"/>
        <path id="Trazado_203593" data-name="Trazado 203593" d="M197.906,339.041a1.135,1.135,0,0,1,.576.844c.026.326-.19.478-.482.338a1.132,1.132,0,0,1-.576-.844c-.026-.326.19-.478.482-.338" transform="translate(-133.502 -228.549)" fill="#7b7979"/>
        <path id="Trazado_203594" data-name="Trazado 203594" d="M202.672,336.023a1.132,1.132,0,0,1,.576.844c.026.326-.19.478-.482.338a1.132,1.132,0,0,1-.576-.844c-.026-.326.19-.478.482-.338" transform="translate(-136.726 -226.514)" fill="#7b7979"/>
        <path id="Trazado_203595" data-name="Trazado 203595" d="M204.749,322.931a9.3,9.3,0,0,0-4.046-7.345l4.7-2.731a9.3,9.3,0,0,1,4.046,7.345Z" transform="translate(-135.721 -210.928)" fill="#7b7979"/>
        <path id="Trazado_203596" data-name="Trazado 203596" d="M200.7,321.238a9.3,9.3,0,0,1,4.046,7.345l-.5-.293a8.145,8.145,0,0,0-3.543-6.431Z" transform="translate(-135.721 -216.581)" fill="#4f4c4d"/>
        <path id="Trazado_203597" data-name="Trazado 203597" d="M205.343,323.011a9.548,9.548,0,0,0-3.93-7.141l4.471-2.6a9.22,9.22,0,0,1,3.93,7.141Z" transform="translate(-136.201 -211.21)" fill="#141313"/>
        <path id="Trazado_203598" data-name="Trazado 203598" d="M206.2,323.139a9.649,9.649,0,0,0-1.2-3.858,8.871,8.871,0,0,0-2.553-2.975l4.136-2.4a9.144,9.144,0,0,1,3.755,6.835Z" transform="translate(-136.897 -211.635)" fill="#4f4c4d"/>
        <g id="Grupo_137583" data-name="Grupo 137583" transform="translate(60.936 101.399)" style="mix-blend-mode: overlay;isolation: isolate">
          <g id="Grupo_137582" data-name="Grupo 137582">
            <g id="Grupo_137581" data-name="Grupo 137581" clip-path="url(#clip-path-10)">
              <path id="Trazado_203599" data-name="Trazado 203599" d="M200.23,315.74l.086-.05h0a.347.347,0,0,0,.17-.342,1.144,1.144,0,0,0-.515-.894.364.364,0,0,0-.361-.039h0l0,0-.051.029a7.881,7.881,0,0,0-2.6-2.682,2.735,2.735,0,0,0-2.751-.266l-4.718,2.741,0,0c-.015.009-.028.021-.042.029-.048.029-.093.063-.139.1-.03.022-.062.041-.091.065s-.027.026-.041.038c-.044.038-.085.081-.126.124s-.058.054-.085.084c-.011.012-.02.027-.031.04-.039.047-.075.1-.112.151-.025.035-.053.067-.077.1-.008.012-.014.026-.022.039-.035.057-.065.119-.1.18-.022.042-.046.08-.066.124-.005.011-.009.024-.014.035-.03.067-.054.14-.08.212-.017.048-.038.092-.054.142l-.008.03c-.024.08-.042.166-.062.25-.012.052-.028.1-.039.155,0,.007,0,.014,0,.021-.018.1-.03.2-.043.308-.006.05-.016.1-.02.149v.011c-.015.163-.022.332-.022.508a7.816,7.816,0,0,0,.318,2.129,9.787,9.787,0,0,0,.373,1.065,10.4,10.4,0,0,0,.494,1.026,10.1,10.1,0,0,0,.6.958,7.487,7.487,0,0,0,2.262,2.167q.2.115.391.2l.013.006c.044.02.086.034.13.052.08.033.16.069.238.1l.025.007c.05.017.1.028.148.042.065.019.131.041.2.055l.036.006c.051.01.1.016.15.023s.113.021.168.026l.045,0c.05,0,.1,0,.147,0s.1,0,.146,0c.018,0,.036,0,.054-.006.048,0,.094-.01.141-.017s.085-.008.127-.016c.021,0,.04-.011.061-.016.045-.01.088-.023.132-.036s.073-.019.108-.031.044-.02.066-.029c.042-.017.083-.036.123-.056s.056-.022.082-.036l0,0,.016-.009h0l4.7-2.731a3.142,3.142,0,0,0,1.3-2.913,8.592,8.592,0,0,0-.77-3.369m-7.2-.062a8.534,8.534,0,0,1,2.716,5.147,9.916,9.916,0,0,1-2.716-5.147" transform="translate(-188.205 -311.237)" fill="#636363"/>
            </g>
          </g>
        </g>
        <path id="Trazado_203600" data-name="Trazado 203600" d="M437.04,274.571a15.9,15.9,0,0,0-7.163-12.432c-1.986-1.154-3.783-1.264-5.081-.51h0l-25.077,14.529,10.06,17.621L434.936,279.2l.012-.007.044-.026v0c1.266-.756,2.048-2.344,2.048-4.6" transform="translate(-270.302 -176.068)" fill="#7b7979"/>
        <path id="Trazado_203601" data-name="Trazado 203601" d="M400.331,306.8a15.9,15.9,0,0,1,7.163,12.432c0,4.568-3.207,6.408-7.163,4.109a15.9,15.9,0,0,1-7.163-12.432c0-4.568,3.207-6.408,7.163-4.11" transform="translate(-265.872 -206.179)" fill="#7b7979"/>
        <path id="Trazado_203602" data-name="Trazado 203602" d="M400.06,311.5a13.832,13.832,0,0,1,6.231,10.814c0,3.973-2.79,5.574-6.231,3.575a13.833,13.833,0,0,1-6.231-10.814c0-3.973,2.79-5.574,6.231-3.575" transform="translate(-266.319 -209.433)" fill="#4f4c4d"/>
        <path id="Trazado_203603" data-name="Trazado 203603" d="M402.926,312.875a7.062,7.062,0,0,0-1.325-.605c-1.782.041-3,1.488-3,3.971a12.391,12.391,0,0,0,5.581,9.688c1.957,1.137,3.678.972,4.675-.209a6.457,6.457,0,0,0,.3-2.03,13.831,13.831,0,0,0-6.231-10.814" transform="translate(-269.546 -210.534)" fill="#141313"/>
        <path id="Trazado_203604" data-name="Trazado 203604" d="M404.043,312.028a7.061,7.061,0,0,0-1.324-.6c-1.782.041-3,1.488-3,3.971a12.391,12.391,0,0,0,5.581,9.688c1.957,1.137,3.678.972,4.675-.209a6.444,6.444,0,0,0,.3-2.03,13.832,13.832,0,0,0-6.231-10.814" transform="translate(-270.302 -209.963)" fill="#4f4c4d"/>
        <path id="Trazado_203605" data-name="Trazado 203605" d="M403.861,276.987c1.3-.754,3.094-.643,5.08.51A15.9,15.9,0,0,1,416.1,289.93c0,2.254-.782,3.842-2.048,4.6l22.4-12.972c1.266-.756,2.048-2.344,2.048-4.6a15.9,15.9,0,0,0-7.163-12.432c-1.986-1.154-3.783-1.264-5.08-.51Z" transform="translate(-273.103 -177.677)" fill="#141313"/>
        <path id="Trazado_203606" data-name="Trazado 203606" d="M474.761,323.139l-3.271,1.9v-2.02l3.271-1.9Z" transform="translate(-318.835 -216.5)" fill="#4f4c4d"/>
        <g id="Grupo_137586" data-name="Grupo 137586" transform="translate(127.296 85.081)" style="mix-blend-mode: overlay;isolation: isolate">
          <g id="Grupo_137585" data-name="Grupo 137585">
            <g id="Grupo_137584" data-name="Grupo 137584" clip-path="url(#clip-path-12)">
              <path id="Trazado_203607" data-name="Trazado 203607" d="M432.61,274.571a15.9,15.9,0,0,0-7.163-12.432c-1.986-1.154-3.783-1.264-5.081-.51h0l-17.442,10.105-6.294,3.645.028-.015-1.369.793h0c-1.31.738-2.121,2.344-2.121,4.642a12.67,12.67,0,0,0,.695,3.96,15.034,15.034,0,0,0,2.963,5.378,13.149,13.149,0,0,0,3.5,3.094c1.954,1.135,3.725,1.259,5.017.545v0l.034-.02.029-.017,19.518-11.307,4.3-2.488.01-.007,1.271-.736.012-.007.044-.026v0c1.266-.756,2.048-2.344,2.048-4.6" transform="translate(-393.168 -261.149)" fill="#636363"/>
            </g>
          </g>
        </g>
        <path id="Trazado_203608" data-name="Trazado 203608" d="M405.246,404.364a.847.847,0,0,0-.382-.663l-.218-.127-8.1-4.708-.032-.019a.269.269,0,0,0-.268-.029l8.389-4.874a.268.268,0,0,1,.272.026l8.354,4.853a.848.848,0,0,1,.382.663.265.265,0,0,1-.116.249l-8.385,4.872a.27.27,0,0,0,.108-.244" transform="translate(-267.951 -265.583)" fill="#404040"/>
        <path id="Trazado_203609" data-name="Trazado 203609" d="M397.071,398.957l8.354,4.853,8.393-4.876-8.354-4.853Z" transform="translate(-268.511 -265.692)" fill="#4f4c4d"/>
        <path id="Trazado_203610" data-name="Trazado 203610" d="M408.758,400.833c-1.972,1.146-1.962,3.009.022,4.162a7.873,7.873,0,0,0,7.165.013c1.972-1.146,1.962-3.009-.022-4.162a7.874,7.874,0,0,0-7.165-.013m1.449.842a4.7,4.7,0,0,1,4.276.008,1.314,1.314,0,0,1,.014,2.484,4.7,4.7,0,0,1-4.276-.008,1.314,1.314,0,0,1-.013-2.484" transform="translate(-275.418 -269.668)" fill="#a7a9ac"/>
        <path id="Trazado_203611" data-name="Trazado 203611" d="M422.981,409.119l.257.513.626-.364Z" transform="translate(-286.032 -275.831)" fill="#a7a9ac"/>
        <path id="Trazado_203612" data-name="Trazado 203612" d="M420.744,408.192l.162.094.626-.364-.163-.094Z" transform="translate(-284.52 -274.96)" fill="#a7a9ac"/>
        <path id="Trazado_203613" data-name="Trazado 203613" d="M419.825,407.661l.162.095.626-.364-.163-.094Z" transform="translate(-283.898 -274.602)" fill="#a7a9ac"/>
        <path id="Trazado_203614" data-name="Trazado 203614" d="M396.273,408.938l8.354,4.853a.848.848,0,0,1,.382.663c0,.244-.171.342-.382.219l-8.354-4.853a.847.847,0,0,1-.382-.663c0-.244.171-.342.382-.219" transform="translate(-267.713 -275.673)" fill="#a7a9ac"/>
        <path id="Trazado_203615" data-name="Trazado 203615" d="M404.944,414.8c.127,0,.141-.141.141-.2a.783.783,0,0,0-.347-.6l-8.354-4.853a.28.28,0,0,0-.136-.043c-.13,0-.141.154-.141.2a.784.784,0,0,0,.347.6l8.354,4.853A.28.28,0,0,0,404.944,414.8Z" transform="translate(-267.859 -275.819)" fill="#404040"/>
        <g id="Grupo_137589" data-name="Grupo 137589" transform="translate(128.178 128.336)" style="mix-blend-mode: overlay;isolation: isolate">
          <g id="Grupo_137588" data-name="Grupo 137588">
            <g id="Grupo_137587" data-name="Grupo 137587" clip-path="url(#clip-path-13)">
              <path id="Trazado_203616" data-name="Trazado 203616" d="M395.891,399.067a.847.847,0,0,0,.382.663l8.354,4.853a.254.254,0,0,0,.288.014s-.009.008-.014.011l8.385-4.871a.265.265,0,0,0,.116-.249.848.848,0,0,0-.382-.663l-8.354-4.853a.267.267,0,0,0-.272-.026L396,398.819a.153.153,0,0,1,.017-.007.255.255,0,0,0-.131.254" transform="translate(-395.891 -393.919)" fill="#d7e7f6"/>
            </g>
          </g>
        </g>
        <path id="Trazado_203617" data-name="Trazado 203617" d="M445.914,363.748a1.008,1.008,0,0,0-.454-.788l-8.921-5.183a.317.317,0,0,0-.323-.031h0l18.937-11h0a.317.317,0,0,1,.323.031l8.921,5.183a1.009,1.009,0,0,1,.454.788.313.313,0,0,1-.14.3l-18.924,10.994a.321.321,0,0,0,.127-.289" transform="translate(-294.981 -233.756)" fill="#404040"/>
        <path id="Trazado_203618" data-name="Trazado 203618" d="M456.153,346.9l8.921,5.183-18.937,11-8.921-5.183Z" transform="translate(-295.658 -233.885)" fill="#4f4c4d"/>
        <path id="Trazado_203619" data-name="Trazado 203619" d="M440.4,359.05l7.612,4.423a1.508,1.508,0,0,0,1.364-.057l16.394-9.524c.4-.235.447-.589.1-.793l-7.612-4.422a1.507,1.507,0,0,0-1.364.057L440.5,358.258c-.4.234-.447.589-.1.792" transform="translate(-297.652 -234.988)" fill="#a7a9ac"/>
        <path id="Trazado_203620" data-name="Trazado 203620" d="M451.486,358.311l7.631,4.433,13.752-7.989-7.631-4.433Z" transform="translate(-305.308 -236.189)" fill="#4f4c4d"/>
        <path id="Trazado_203621" data-name="Trazado 203621" d="M453.562,382.241a.681.681,0,0,0,.007,1.288,2.437,2.437,0,0,0,2.217,0,.681.681,0,0,0-.007-1.288,2.437,2.437,0,0,0-2.217,0" transform="translate(-306.404 -257.531)" fill="#4f4c4d"/>
        <path id="Trazado_203622" data-name="Trazado 203622" d="M436.267,380.544l8.921,5.183a1.008,1.008,0,0,1,.454.788c0,.29-.2.406-.454.261l-8.921-5.183a1.008,1.008,0,0,1-.454-.788c0-.29.2-.406.454-.261" transform="translate(-294.71 -256.523)" fill="#4f4c4d"/>
        <path id="Trazado_203623" data-name="Trazado 203623" d="M445.586,386.938c.142,0,.157-.161.157-.23a.92.92,0,0,0-.408-.708l-8.921-5.182a.325.325,0,0,0-.157-.05c-.142,0-.158.161-.158.23a.92.92,0,0,0,.408.708l8.921,5.183a.326.326,0,0,0,.157.05" transform="translate(-294.904 -256.716)" fill="#a7a9ac"/>
        <g id="Grupo_137592" data-name="Grupo 137592" transform="translate(141.103 112.957)" style="mix-blend-mode: overlay;isolation: isolate">
          <g id="Grupo_137591" data-name="Grupo 137591">
            <g id="Grupo_137590" data-name="Grupo 137590" clip-path="url(#clip-path-14)">
              <path id="Trazado_203624" data-name="Trazado 203624" d="M435.944,357.745h0l18.937-11h0a.317.317,0,0,1,.323.031l8.921,5.183a1.008,1.008,0,0,1,.454.788.314.314,0,0,1-.139.3l-18.924,10.994a.314.314,0,0,1-.328-.028l-8.921-5.183a1.008,1.008,0,0,1-.454-.788.319.319,0,0,1,.131-.292" transform="translate(-435.813 -346.712)" fill="#636363"/>
            </g>
          </g>
        </g>
      </g>
    </g>
  </g>
</svg>
