<svg xmlns="http://www.w3.org/2000/svg" width="1240.667" height="823" viewBox="0 0 1240.667 823">
  <g id="Grupo_141138" data-name="Grupo 141138" transform="translate(-180.333 -402)">
    <rect id="Rectángulo_89997" data-name="Rectángulo 89997" width="238" height="62" rx="10" transform="translate(1182.333 402)" fill="#0d2380"/>
    <text id="Redes_de_datos" data-name="Redes de datos" transform="translate(1197.333 421)" fill="#fff" font-size="18" font-family="Roboto-Bold, Roboto" font-weight="700"><tspan x="-62.112" y="17">Redes de datos</tspan></text>
    <rect id="Rectángulo_89999" data-name="Rectángulo 89999" width="238" height="163" rx="5" transform="translate(1182.333 474)" fill="#fc502d"/>
    <text id="Son_el_conjunto_de_elementos_que_hacen_posible_la_transferencia_de_informacións" data-name="Son el conjunto de elementos que hacen posible la transferencia de informacións" transform="translate(1208.333 500)" fill="#fff" font-size="18" font-family="Roboto-Bold, Roboto" font-weight="700"><tspan x="-74.808" y="17">Son el conjunto de </tspan><tspan x="-86.366" y="41">elementos que hacen </tspan><tspan x="-38.94" y="65">posible la </tspan><tspan x="-65.856" y="89">transferencia de </tspan><tspan x="-53.49" y="113">información</tspan><tspan y="113" font-family="Roboto-Regular, Roboto" font-weight="400">s</tspan></text>
    <rect id="Rectángulo_90010" data-name="Rectángulo 90010" width="230" height="67" rx="5" transform="translate(439.333 534)" fill="#fc502d"/>
    <text id="Se_compone_de" data-name="Se compone de" transform="translate(464.333 556)" fill="#fff" font-size="18" font-family="Roboto-Bold, Roboto" font-weight="700"><tspan x="-62.451" y="17">Se compone de</tspan></text>
    <path id="Trazado_211663" data-name="Trazado 211663" d="M-12107-9677h-267.333v135" transform="translate(13289.333 10110.001)" fill="none" stroke="#707070" stroke-width="2"/>
    <line id="Línea_212" data-name="Línea 212" x2="513" transform="translate(669.333 568)" fill="none" stroke="#707070" stroke-width="2"/>
    <line id="Línea_213" data-name="Línea 213" y2="261" transform="translate(553.833 601.5)" fill="none" stroke="#707070" stroke-width="2"/>
    <rect id="Rectángulo_90033" data-name="Rectángulo 90033" width="205" height="59" rx="10" transform="translate(452.333 611)" fill="#d3d3d3"/>
    <text id="Activos_tecnológicos" data-name="Activos tecnológicos" transform="translate(466.333 630)" fill="#12263f" font-size="16" font-family="Roboto-Regular, Roboto"><tspan x="-74.27" y="15">Activos tecnológicos</tspan></text>
    <rect id="Rectángulo_90034" data-name="Rectángulo 90034" width="213" height="75" rx="10" transform="translate(447.333 707)" fill="#d3d3d3"/>
    <text id="Incluye" transform="translate(462.333 734)" fill="#12263f" font-size="16" font-family="Roboto-Regular, Roboto"><tspan x="-25.102" y="15">Incluye</tspan></text>
    <line id="Línea_214" data-name="Línea 214" x2="484" transform="translate(285.333 830)" fill="none" stroke="#707070" stroke-width="2"/>
    <rect id="Rectángulo_90039" data-name="Rectángulo 90039" width="213" height="75" rx="10" transform="translate(447.333 792)" fill="#fff2bf"/>
    <text id="Infraestructura_lógica" data-name="Infraestructura lógica" transform="translate(462.333 819)" fill="#12263f" font-size="16" font-family="Roboto-Regular, Roboto"><tspan x="-75.93" y="15">Infraestructura lógica</tspan></text>
    <line id="Línea_215" data-name="Línea 215" y2="15" transform="translate(306.833 864.5)" fill="none" stroke="#707070" stroke-width="2"/>
    <line id="Línea_216" data-name="Línea 216" y2="15" transform="translate(781.833 864.5)" fill="none" stroke="#707070" stroke-width="2"/>
    <rect id="Rectángulo_90040" data-name="Rectángulo 90040" width="252" height="199" rx="10" transform="translate(180.333 877)" fill="#fff2bf"/>
    <rect id="Rectángulo_90041" data-name="Rectángulo 90041" width="213" height="199" rx="10" transform="translate(675.333 877)" fill="#fff2bf"/>
    <text id="Contenidos_archivos_producción_almacenada_digitalmente_y_recursos_digitales_que_generan_valor_en_la_empresa." data-name="Contenidos, archivos, producción almacenada digitalmente, y recursos digitales que generan valor en la empresa." transform="translate(690.333 926)" fill="#12263f" font-size="16" font-family="Roboto-Regular, Roboto"><tspan x="-75.734" y="15">Contenidos, archivos, </tspan><tspan x="-85.586" y="35">producción almacenada </tspan><tspan x="-84.609" y="55">digitalmente, y recursos </tspan><tspan x="-76.004" y="75">digitales que generan </tspan><tspan x="-71.457" y="95">valor en la empresa.</tspan></text>
    <g id="Grupo_141049" data-name="Grupo 141049" transform="translate(-3.773 34)">
      <text id="Equipos_de_red_Equipos_de_seguridad_Cableado_estructurado_Redes_de_energía_eléctrica" data-name="Equipos de redEquipos de seguridadCableado estructuradoRedes de energía eléctrica" transform="translate(229.333 866)" fill="#12263f" font-size="16" font-family="Roboto-Regular, Roboto"><tspan x="0" y="15">Equipos de red</tspan><tspan x="0" y="48">Equipos de seguridad</tspan><tspan x="0" y="81">Cableado estructurado</tspan><tspan x="0" y="114">Redes de energía </tspan><tspan x="0" y="147">eléctrica</tspan></text>
      <path id="comprobado" d="M0,69.769l4.482,4.49,8.606-8.6-1.236-1.218L4.482,71.8,1.218,68.542Z" transform="translate(208.106 807.148)" fill="#fc502d"/>
      <path id="comprobado-2" data-name="comprobado" d="M0,69.769l4.482,4.49,8.606-8.6-1.236-1.218L4.482,71.8,1.218,68.542Z" transform="translate(208.106 840.148)" fill="#fc502d"/>
      <path id="comprobado-3" data-name="comprobado" d="M0,69.769l4.482,4.49,8.606-8.6-1.236-1.218L4.482,71.8,1.218,68.542Z" transform="translate(208.106 873.148)" fill="#fc502d"/>
      <path id="comprobado-4" data-name="comprobado" d="M0,69.769l4.482,4.49,8.606-8.6-1.236-1.218L4.482,71.8,1.218,68.542Z" transform="translate(208.106 907.148)" fill="#fc502d"/>
    </g>
    <rect id="Rectángulo_90042" data-name="Rectángulo 90042" width="213" height="199" rx="10" transform="translate(447.333 877)" fill="#fff2bf"/>
    <text id="Conjunto_de_configuraciones_a_nivel_de_software_servicios_de_red_y_programas_para_la_gestión_y_administración_de_la_red." data-name="Conjunto de configuraciones a nivel de software, servicios de red y programas para la gestión y administración de la red." transform="translate(462.333 916)" fill="#12263f" font-size="16" font-family="Roboto-Regular, Roboto"><tspan x="-42.746" y="15">Conjunto de </tspan><tspan x="-81.535" y="35">configuraciones a nivel </tspan><tspan x="-88.098" y="55">de software, servicios de </tspan><tspan x="-83.684" y="75">red y programas para la </tspan><tspan x="-87.047" y="95">gestión y administración </tspan><tspan x="-32.492" y="115">de la red.</tspan></text>
    <rect id="Rectángulo_90043" data-name="Rectángulo 90043" width="213" height="75" rx="10" transform="translate(200.333 792)" fill="#fff2bf"/>
    <text id="Infraestructura_física" data-name="Infraestructura física" transform="translate(215.333 819)" fill="#12263f" font-size="16" font-family="Roboto-Regular, Roboto"><tspan x="-73.816" y="15">Infraestructura física</tspan></text>
    <rect id="Rectángulo_90044" data-name="Rectángulo 90044" width="213" height="75" rx="10" transform="translate(675.333 792)" fill="#fff2bf"/>
    <text id="Activos_digitales" data-name="Activos digitales" transform="translate(690.333 819)" fill="#12263f" font-size="16" font-family="Roboto-Regular, Roboto"><tspan x="-58.598" y="15">Activos digitales</tspan></text>
    <path id="Trazado_211664" data-name="Trazado 211664" d="M-12735.5-9422.086h571.166v27" transform="translate(13289.333 10102.086)" fill="none" stroke="#707070" stroke-width="2"/>
    <line id="Línea_217" data-name="Línea 217" y1="15" transform="translate(1125.333 777)" fill="none" stroke="#707070" stroke-width="2"/>
    <rect id="Rectángulo_90045" data-name="Rectángulo 90045" width="213" height="75" rx="10" transform="translate(1020.333 707)" fill="#d3d3d3"/>
    <text id="Deben_ser_clasificados_e_inventariados" data-name="Deben ser clasificados e inventariados" transform="translate(1035.333 724)" fill="#12263f" font-size="16" font-family="Roboto-Regular, Roboto"><tspan x="-86.59" y="15">Deben ser clasificados e </tspan><tspan x="-47.996" y="35">inventariados</tspan></text>
    <rect id="Rectángulo_90046" data-name="Rectángulo 90046" width="213" height="75" rx="10" transform="translate(1020.333 792)" fill="#d3d3d3"/>
    <text id="de_cada_activo_debe_registrarse" data-name="de cada activo debe registrarse" transform="translate(1035.333 809)" fill="#12263f" font-size="16" font-family="Roboto-Regular, Roboto"><tspan x="-71.043" y="15">de cada activo debe </tspan><tspan x="-38.012" y="35">registrarse</tspan></text>
    <path id="Trazado_211665" data-name="Trazado 211665" d="M-12164.333-9243v12.531h-105v205.188" transform="translate(13289.333 10110)" fill="none" stroke="#707070" stroke-width="2"/>
    <rect id="Rectángulo_90047" data-name="Rectángulo 90047" width="213" height="75" rx="10" transform="translate(915.333 895)" fill="#fff2bf"/>
    <text id="Nombre_y_código" data-name="Nombre y código" transform="translate(930.333 922)" fill="#12263f" font-size="16" font-family="Roboto-Regular, Roboto"><tspan x="-60.637" y="15">Nombre y código</tspan></text>
    <rect id="Rectángulo_90048" data-name="Rectángulo 90048" width="213" height="75" rx="10" transform="translate(915.333 980)" fill="#fff2bf"/>
    <text id="Proceso_ubicación_y_fechas_clave" data-name="Proceso, ubicación y fechas clave" transform="translate(930.333 997)" fill="#12263f" font-size="16" font-family="Roboto-Regular, Roboto"><tspan x="-73.152" y="15">Proceso, ubicación y </tspan><tspan x="-44.457" y="35">fechas clave</tspan></text>
    <rect id="Rectángulo_90049" data-name="Rectángulo 90049" width="213" height="75" rx="10" transform="translate(915.333 1065)" fill="#fff2bf"/>
    <text id="Tipo" transform="translate(930.333 1092)" fill="#12263f" font-size="16" font-family="Roboto-Regular, Roboto"><tspan x="-15.766" y="15">Tipo</tspan></text>
    <path id="Trazado_211666" data-name="Trazado 211666" d="M-12385.91-9007.5h-32.648v83.824h17.885" transform="translate(13300.911 10110)" fill="none" stroke="#707070" stroke-width="2"/>
    <rect id="Rectángulo_90050" data-name="Rectángulo 90050" width="213" height="75" rx="10" transform="translate(892.333 1150)" fill="#fff2bf"/>
    <text id="Información_software_Equipo_Recurso_Humano_u_Otro" data-name="Información, softwareEquipo, Recurso Humano u Otro" transform="translate(907.333 1157)" fill="#12263f" font-size="16" font-family="Roboto-Regular, Roboto"><tspan x="-77.414" y="17">Información, </tspan><tspan y="17" font-family="Roboto-Italic, Roboto" font-style="italic">software</tspan><tspan y="17"></tspan><tspan x="-89.563" y="37">Equipo, Recurso Humano </tspan><tspan x="-21.695" y="57">u Otro</tspan></text>
    <path id="Trazado_211667" data-name="Trazado 211667" d="M-12164.333-9230.5h171.833v139.82" transform="translate(13289.333 10110)" fill="none" stroke="#707070" stroke-width="2"/>
    <rect id="Rectángulo_90051" data-name="Rectángulo 90051" width="213" height="75" rx="10" transform="translate(1190.333 895)" fill="#fff2bf"/>
    <text id="Propietario_custodia_y_acceso" data-name="Propietario, custodia y acceso" transform="translate(1205.333 912)" fill="#12263f" font-size="16" font-family="Roboto-Regular, Roboto"><tspan x="-79.023" y="15">Propietario, custodia y </tspan><tspan x="-25.652" y="35">acceso</tspan></text>
    <path id="Trazado_211668" data-name="Trazado 211668" d="M-11881.948-9092.5h20.338v92h-42.784" transform="translate(13281.61 10110)" fill="none" stroke="#707070" stroke-width="2"/>
    <rect id="Rectángulo_90053" data-name="Rectángulo 90053" width="213" height="75" rx="10" transform="translate(1169.333 1072)" fill="#fff2bf"/>
    <text id="Confidencialidad_integridad_y_disponibilidad" data-name="Confidencialidad, integridad y disponibilidad" transform="translate(1184.333 1079)" fill="#12263f" font-size="16" font-family="Roboto-Regular, Roboto"><tspan x="-61.086" y="15">Confidencialidad, </tspan><tspan x="-41.484" y="35">integridad y </tspan><tspan x="-49.672" y="55">disponibilidad</tspan></text>
    <rect id="Rectángulo_90054" data-name="Rectángulo 90054" width="213" height="75" rx="10" transform="translate(1190.333 980)" fill="#fff2bf"/>
    <text id="Clasificación" transform="translate(1205.333 1007)" fill="#12263f" font-size="16" font-family="Roboto-Regular, Roboto"><tspan x="-45.641" y="15">Clasificación</tspan></text>
  </g>
</svg>
