<svg xmlns="http://www.w3.org/2000/svg" width="70.313" height="80" viewBox="0 0 70.313 80">
  <g id="ubicacion" transform="translate(-31)">
    <g id="Grupo_141282" data-name="Grupo 141282" transform="translate(31)">
      <g id="Grupo_141281" data-name="Grupo 141281">
        <path id="Trazado_212136" data-name="Trazado 212136" d="M79.512,52.857C88.025,39.5,86.955,41.165,87.2,40.817a25.589,25.589,0,0,0,4.737-14.88,25.781,25.781,0,1,0-46.689,15.07L52.8,52.857C44.726,54.1,31,57.8,31,65.938c0,2.968,1.937,7.2,11.166,10.494C48.61,78.732,57.13,80,66.156,80c16.879,0,35.156-4.761,35.156-14.062C101.313,57.794,87.6,54.1,79.512,52.857ZM49.164,38.429q-.039-.06-.081-.118A21.094,21.094,0,1,1,83.4,38.074c-.226.3.952-1.532-17.243,27.018ZM66.156,75.313c-18.437,0-30.469-5.419-30.469-9.375,0-2.659,6.182-7.03,19.882-8.735l8.61,13.51a2.344,2.344,0,0,0,3.953,0l8.61-13.51c13.7,1.7,19.883,6.076,19.883,8.735C96.625,69.86,84.7,75.313,66.156,75.313Z" transform="translate(-31)" fill="#0d2380"/>
      </g>
    </g>
    <g id="Grupo_141284" data-name="Grupo 141284" transform="translate(54.438 14.219)">
      <g id="Grupo_141283" data-name="Grupo 141283">
        <path id="Trazado_212137" data-name="Trazado 212137" d="M192.719,91a11.719,11.719,0,1,0,11.719,11.719A11.732,11.732,0,0,0,192.719,91Zm0,18.75a7.031,7.031,0,1,1,7.031-7.031A7.039,7.039,0,0,1,192.719,109.75Z" transform="translate(-181 -91)" fill="#0d2380"/>
      </g>
    </g>
  </g>
</svg>
