<svg xmlns="http://www.w3.org/2000/svg" width="66.653" height="80" viewBox="0 0 66.653 80">
  <g id="trabajadores-por-cuenta-propia" transform="translate(-5.005)">
    <path id="Trazado_212134" data-name="Trazado 212134" d="M5.35,71.1A6.769,6.769,0,0,0,11.773,80H64.89a6.769,6.769,0,0,0,6.423-8.9l-5-15a21.659,21.659,0,0,0-1.28-2.984l.364-1.384a4.033,4.033,0,0,0-3.9-5.059H60.013a21.567,21.567,0,0,0-14.188-5.333H45v-.965a15.825,15.825,0,0,0,5.924-5.392A16.841,16.841,0,0,0,52.361,29.7a4.541,4.541,0,0,0,3.3-4.364v-8a17.333,17.333,0,1,0-34.666,0v8A4.541,4.541,0,0,0,24.3,29.7a16.812,16.812,0,0,0,1.44,5.279,15.82,15.82,0,0,0,5.923,5.392v.965h-.827A21.566,21.566,0,0,0,16.65,46.666H15.166a4.033,4.033,0,0,0-3.9,5.059l.365,1.385A21.659,21.659,0,0,0,10.348,56.1ZM17,77.333V74.666H59.665v2.667Zm51.786-5.391a4.1,4.1,0,0,1-3.895,5.391H62.331V74.666a2.667,2.667,0,0,0-2.281-2.628l3.867-14.7ZM55.493,46.666H43.626A6.605,6.605,0,0,0,44.859,44h.961A18.9,18.9,0,0,1,55.493,46.666Zm-17.161-44A14.684,14.684,0,0,1,53,17.333V21.2a4.385,4.385,0,0,0-.648-.24,5.916,5.916,0,0,0-5.2-4.771,16.133,16.133,0,0,1-7.344-2.933,2.6,2.6,0,0,0-2.94,0,15.655,15.655,0,0,1-7.305,2.933,5.887,5.887,0,0,0-5.248,4.775,4.332,4.332,0,0,0-.644.239V17.333A14.684,14.684,0,0,1,38.331,2.667ZM28.121,33.77a15.908,15.908,0,0,1-1.257-5.305A1.333,1.333,0,0,0,25.53,27.2a1.867,1.867,0,0,1,0-3.733,1.333,1.333,0,0,0,1.333-1.333A3.292,3.292,0,0,1,29.8,18.849a18,18,0,0,0,8.483-3.395,18.584,18.584,0,0,0,8.627,3.4,3.257,3.257,0,0,1,2.892,3.28,1.333,1.333,0,0,0,1.333,1.333,1.867,1.867,0,1,1,0,3.733A1.333,1.333,0,0,0,49.8,28.465a15.928,15.928,0,0,1-1.256,5.305C47.245,36.332,41.231,40,38.331,40S29.418,36.332,28.121,33.77Zm10.211,8.9a11.121,11.121,0,0,0,4-.971v.971a4,4,0,1,1-8,0V41.7A11.121,11.121,0,0,0,38.331,42.666ZM30.838,44h.96a6.605,6.605,0,0,0,1.233,2.667H21.165A18.9,18.9,0,0,1,30.838,44ZM14.084,49.866a1.361,1.361,0,0,1,1.083-.533H61.5a1.365,1.365,0,0,1,1.321,1.712L57.3,72H19.36L13.845,51.045a1.357,1.357,0,0,1,.239-1.179ZM16.617,72.04a2.667,2.667,0,0,0-2.285,2.627v2.667H11.773a4.1,4.1,0,0,1-3.895-5.392l4.865-14.6Z" transform="translate(0)" fill="#0d2380"/>
    <path id="Trazado_212135" data-name="Trazado 212135" d="M31.667,53.667c3.676,0,6.667-2.392,6.667-5.333S35.343,43,31.667,43,25,45.392,25,48.333,27.991,53.667,31.667,53.667Zm0-8c2.168,0,4,1.221,4,2.667S33.835,51,31.667,51s-4-1.221-4-2.667S29.5,45.667,31.667,45.667Z" transform="translate(6.665 14.333)" fill="#0d2380"/>
  </g>
</svg>
