<svg id="Grupo_140686" data-name="Grupo 140686" xmlns="http://www.w3.org/2000/svg" xmlns:xlink="http://www.w3.org/1999/xlink" width="195.453" height="177.243" viewBox="0 0 195.453 177.243">
  <defs>
    <clipPath id="clip-path">
      <rect id="Rectángulo_89853" data-name="Rectángulo 89853" width="195.453" height="177.243" fill="none"/>
    </clipPath>
    <clipPath id="clip-path-3">
      <rect id="Rectángulo_89843" data-name="Rectángulo 89843" width="182.183" height="107.007" fill="none"/>
    </clipPath>
    <clipPath id="clip-path-4">
      <path id="Trazado_211224" data-name="Trazado 211224" d="M72.673,41.386,7.7,78.9l-6.48-3.382,2.356,6.81.008-.006a2.051,2.051,0,0,0,.963,1.023l114.67,66.206a4.716,4.716,0,0,0,4.241.175l68.428-39.508a1.412,1.412,0,0,0,.662-.735l.01.007,2.372-6.179s-4.888,2.351-5.961,2.951L76.914,41.561a4.939,4.939,0,0,0-2.4-.6,3.76,3.76,0,0,0-1.843.423" transform="translate(-1.222 -40.963)" fill="none"/>
    </clipPath>
    <linearGradient id="linear-gradient" x1="-0.009" y1="1.099" x2="-0.002" y2="1.099" gradientUnits="objectBoundingBox">
      <stop offset="0" stop-color="#5761d7"/>
      <stop offset="0.178" stop-color="#5b65d8"/>
      <stop offset="0.388" stop-color="#6a72de"/>
      <stop offset="0.614" stop-color="#8288e8"/>
      <stop offset="0.85" stop-color="#a3a7f5"/>
      <stop offset="1" stop-color="#bcbeff"/>
    </linearGradient>
    <clipPath id="clip-path-5">
      <path id="Trazado_211225" data-name="Trazado 211225" d="M72.059,35.78,1.929,76.27c-1.113.642-.974,1.766.312,2.509l117.524,67.852a4.834,4.834,0,0,0,4.346.18l70.129-40.489c1.115-.644.974-1.768-.312-2.511L76.405,35.961a5.049,5.049,0,0,0-2.459-.615,3.855,3.855,0,0,0-1.887.434" transform="translate(-1.177 -35.346)" fill="none"/>
    </clipPath>
    <linearGradient id="linear-gradient-2" x1="-0.007" y1="1.142" x2="0.001" y2="1.142" gradientUnits="objectBoundingBox">
      <stop offset="0" stop-color="#c0bff6"/>
      <stop offset="0.294" stop-color="#c4c3f6"/>
      <stop offset="0.641" stop-color="#d2d2f9"/>
      <stop offset="1" stop-color="#e9e9fd"/>
    </linearGradient>
    <clipPath id="clip-path-7">
      <path id="Trazado_211238" data-name="Trazado 211238" d="M85.809,54.986,67.8,65.383a1.136,1.136,0,0,0,0,2.152l26.332,15.2a4.119,4.119,0,0,0,3.727,0l18.006-10.4a1.135,1.135,0,0,0,0-2.152l-26.332-15.2a4.122,4.122,0,0,0-3.727,0" transform="translate(-67.03 -54.541)" fill="none"/>
    </clipPath>
    <linearGradient id="linear-gradient-3" x1="-1.856" y1="3.52" x2="-1.828" y2="3.52" xlink:href="#linear-gradient-2"/>
    <clipPath id="clip-path-9">
      <path id="Trazado_211240" data-name="Trazado 211240" d="M16.817.159l0-.011L15.026,1.176l1.193.5L1.363,89.819a3.352,3.352,0,0,0,1.542,3.016l118.011,68.132-.1-.029.3,1.639,1.755-1.015h0a1.115,1.115,0,0,0,.625-.9l14.974-88.84a3.348,3.348,0,0,0-1.542-3.016L18.2.253A1.694,1.694,0,0,0,17.365,0a.972.972,0,0,0-.548.159" transform="translate(-1.338)" fill="none"/>
    </clipPath>
    <linearGradient id="linear-gradient-4" x1="-0.012" y1="1.09" x2="-0.002" y2="1.09" xlink:href="#linear-gradient-2"/>
    <clipPath id="clip-path-10">
      <path id="Trazado_211241" data-name="Trazado 211241" d="M104.29,51.411,82.967,137.719l5.971,3.446-.1-.029.3,1.639,1.755-1.015h0a1.115,1.115,0,0,0,.625-.9l14.974-88.84a2.68,2.68,0,0,0-.252-1.47Z" transform="translate(-82.967 -50.547)" fill="none"/>
    </clipPath>
    <linearGradient id="linear-gradient-5" x1="-4.892" y1="1.159" x2="-4.834" y2="1.159" xlink:href="#linear-gradient"/>
  </defs>
  <g id="Grupo_140684" data-name="Grupo 140684" clip-path="url(#clip-path)">
    <g id="Grupo_140667" data-name="Grupo 140667">
      <g id="Grupo_140666" data-name="Grupo 140666" clip-path="url(#clip-path)">
        <g id="Grupo_140665" data-name="Grupo 140665" transform="translate(8.155 70.237)" style="mix-blend-mode: lighten;isolation: isolate">
          <g id="Grupo_140664" data-name="Grupo 140664">
            <g id="Grupo_140663" data-name="Grupo 140663" clip-path="url(#clip-path-3)">
              <path id="Trazado_211223" data-name="Trazado 211223" d="M119.406,157.473a10.725,10.725,0,0,1-5.361-1.432L7.409,94.476a3.1,3.1,0,0,1,0-5.372L74.187,50.549a.622.622,0,0,1,.621,0l111.685,64.481a3.1,3.1,0,0,1,0,5.374l-61.727,35.637a10.724,10.724,0,0,1-5.36,1.432M74.5,51.8l-.209.12L8.028,90.177a1.864,1.864,0,0,0,0,3.226l106.636,61.565a9.676,9.676,0,0,0,9.482,0l61.725-35.637a1.864,1.864,0,0,0,0-3.227Z" transform="translate(-5.859 -50.467)" fill="#fc502d"/>
            </g>
          </g>
        </g>
      </g>
    </g>
    <g id="Grupo_140669" data-name="Grupo 140669" transform="translate(1.701 57.01)">
      <g id="Grupo_140668" data-name="Grupo 140668" clip-path="url(#clip-path-4)">
        <rect id="Rectángulo_89845" data-name="Rectángulo 89845" width="193.711" height="109.387" transform="translate(0 0)" fill="url(#linear-gradient)"/>
      </g>
    </g>
    <g id="Grupo_140671" data-name="Grupo 140671" transform="translate(1.638 49.193)">
      <g id="Grupo_140670" data-name="Grupo 140670" clip-path="url(#clip-path-5)">
        <rect id="Rectángulo_89846" data-name="Rectángulo 89846" width="194.539" height="112.108" transform="translate(-0.362 0)" fill="url(#linear-gradient-2)"/>
      </g>
    </g>
    <g id="Grupo_140673" data-name="Grupo 140673">
      <g id="Grupo_140672" data-name="Grupo 140672" clip-path="url(#clip-path)">
        <path id="Trazado_211226" data-name="Trazado 211226" d="M2.238,66.369,119.76,134.221a4.834,4.834,0,0,0,4.346.18l70.129-40.489a1.455,1.455,0,0,0,.682-.759,1.182,1.182,0,0,1-.682,1.435l-70.129,40.49a4.83,4.83,0,0,1-4.346-.181L2.238,67.047c-.866-.5-1.2-1.169-.994-1.752a2.076,2.076,0,0,0,.994,1.074" transform="translate(0.465 25.579)" fill="#fff"/>
        <path id="Trazado_211227" data-name="Trazado 211227" d="M113.227,105.164v-1.289c0-.122-.074-.178-.166-.125l-4.545,2.625a.4.4,0,0,0-.167.316v1.289c0,.122.075.18.167.127l4.545-2.625a.4.4,0,0,0,.166-.317" transform="translate(42.446 40.636)" fill="#2842a2"/>
        <path id="Trazado_211228" data-name="Trazado 211228" d="M108.342,107.984v-1.289c0-.122-.074-.178-.166-.125l-4.545,2.625a.4.4,0,0,0-.167.316V110.8c0,.122.075.18.167.127l4.545-2.625a.4.4,0,0,0,.166-.317" transform="translate(40.532 41.741)" fill="#2842a2"/>
        <path id="Trazado_211229" data-name="Trazado 211229" d="M149.463,108.907,51.8,52.522a2.1,2.1,0,0,0-2.1,0L14.921,72.644a.75.75,0,0,0,0,1.3L112.537,130.3a2.1,2.1,0,0,0,2.1,0l34.824-20.1a.75.75,0,0,0,0-1.3" transform="translate(5.699 20.465)" fill="#adb1f2"/>
        <path id="Trazado_211230" data-name="Trazado 211230" d="M149.463,110.206l-.349.2L51.8,54.226a2.1,2.1,0,0,0-2.1,0L15.272,74.144l-.351-.2a.75.75,0,0,1,0-1.3L49.7,52.524a2.1,2.1,0,0,1,2.1,0l97.66,56.385a.75.75,0,0,1,0,1.3" transform="translate(5.699 20.465)" fill="#9198db"/>
        <path id="Trazado_211231" data-name="Trazado 211231" d="M37.918,56.719l89.959,51.937,4.459-1.78L41.69,54.541Z" transform="translate(14.854 21.366)" fill="#24126a"/>
        <path id="Trazado_211232" data-name="Trazado 211232" d="M31.274,60.555l79.569,45.939,3.773-2.177-79.57-45.94Z" transform="translate(12.251 22.869)" fill="#24126a"/>
        <path id="Trazado_211233" data-name="Trazado 211233" d="M26.946,63.053l93.684,54.089,3.772-2.178L30.718,60.875Z" transform="translate(10.556 23.848)" fill="#24126a"/>
        <path id="Trazado_211234" data-name="Trazado 211234" d="M22.618,65.552,116.3,119.641l3.772-2.178L26.39,63.374Z" transform="translate(8.861 24.827)" fill="#24126a"/>
        <path id="Trazado_211235" data-name="Trazado 211235" d="M18.291,68.051l93.684,54.089,3.772-2.178L22.062,65.872Z" transform="translate(7.165 25.806)" fill="#24126a"/>
        <path id="Trazado_211236" data-name="Trazado 211236" d="M102.555,94.037l3.772,2.178,3.772-2.178-3.772-2.178Z" transform="translate(40.176 35.986)" fill="#24126a"/>
        <path id="Trazado_211237" data-name="Trazado 211237" d="M85.158,91.687,103.894,102.5l3.773-2.177-18.872-10.9Z" transform="translate(33.361 35.035)" fill="#24126a"/>
      </g>
    </g>
    <g id="Grupo_140675" data-name="Grupo 140675" transform="translate(93.289 75.907)">
      <g id="Grupo_140674" data-name="Grupo 140674" clip-path="url(#clip-path-7)">
        <rect id="Rectángulo_89848" data-name="Rectángulo 89848" width="50.125" height="28.791" transform="translate(-0.257)" fill="url(#linear-gradient-3)"/>
      </g>
    </g>
    <g id="Grupo_140677" data-name="Grupo 140677">
      <g id="Grupo_140676" data-name="Grupo 140676" clip-path="url(#clip-path)">
        <path id="Trazado_211239" data-name="Trazado 211239" d="M115.866,71.071l-26.333-15.2a4.119,4.119,0,0,0-3.727,0L67.8,66.264a1.6,1.6,0,0,0-.647.636c-.273-.521-.065-1.105.647-1.517l18.006-10.4a4.119,4.119,0,0,1,3.727,0l26.333,15.2c.711.412.919,1,.647,1.517a1.623,1.623,0,0,0-.647-.636" transform="translate(26.261 21.366)" fill="#9198db"/>
      </g>
    </g>
    <g id="Grupo_140679" data-name="Grupo 140679" transform="translate(1.862)">
      <g id="Grupo_140678" data-name="Grupo 140678" clip-path="url(#clip-path-9)">
        <rect id="Rectángulo_89850" data-name="Rectángulo 89850" width="137.452" height="162.577" transform="translate(-0.146)" fill="url(#linear-gradient-4)"/>
      </g>
    </g>
    <g id="Grupo_140681" data-name="Grupo 140681" transform="translate(115.469 70.349)">
      <g id="Grupo_140680" data-name="Grupo 140680" clip-path="url(#clip-path-10)">
        <rect id="Rectángulo_89851" data-name="Rectángulo 89851" width="23.601" height="92.228" transform="translate(0 0)" fill="url(#linear-gradient-5)"/>
      </g>
    </g>
    <g id="Grupo_140683" data-name="Grupo 140683">
      <g id="Grupo_140682" data-name="Grupo 140682" clip-path="url(#clip-path)">
        <path id="Trazado_211242" data-name="Trazado 211242" d="M1.566,93.6,120.3,162.152c.916.529,1.7.223,1.862-.727l14.974-88.838a3.35,3.35,0,0,0-1.542-3.016L16.861,1.023C15.945.494,15.159.8,15,1.748L.024,90.587A3.354,3.354,0,0,0,1.566,93.6" transform="translate(0 0.3)" fill="#453c9e"/>
      </g>
    </g>
  </g>
</svg>
