<svg id="Grupo_140687" data-name="Grupo 140687" xmlns="http://www.w3.org/2000/svg" xmlns:xlink="http://www.w3.org/1999/xlink" width="196.59" height="178.274" viewBox="0 0 196.59 178.274">
  <defs>
    <clipPath id="clip-path">
      <path id="Trazado_211263" data-name="Trazado 211263" d="M0,0H196.59V178.274H0Z" fill="none"/>
    </clipPath>
    <clipPath id="clip-path-2">
      <rect id="Rectángulo_89855" data-name="Rectángulo 89855" width="196.59" height="178.274" fill="none"/>
    </clipPath>
    <clipPath id="clip-path-3">
      <rect id="Rectángulo_89854" data-name="Rectángulo 89854" width="183.243" height="107.629" fill="none"/>
    </clipPath>
    <clipPath id="clip-path-4">
      <path id="Trazado_211244" data-name="Trazado 211244" d="M118.735,41.565,6.026,106.638c-1.079-.6-6-2.968-6-2.968l2.384,6.215.011-.007a1.414,1.414,0,0,0,.666.739l68.826,39.737a4.743,4.743,0,0,0,4.265-.176L191.52,83.588a2.076,2.076,0,0,0,.969-1.029l.008.006,2.37-6.849-6.518,3.4L123,41.389a3.785,3.785,0,0,0-1.853-.426,4.963,4.963,0,0,0-2.412.6" transform="translate(-0.03 -40.963)" fill="none"/>
    </clipPath>
    <linearGradient id="linear-gradient" y1="1.099" x2="0.007" y2="1.099" gradientUnits="objectBoundingBox">
      <stop offset="0" stop-color="#5761d7"/>
      <stop offset="0.178" stop-color="#5b65d8"/>
      <stop offset="0.388" stop-color="#6a72de"/>
      <stop offset="0.614" stop-color="#8288e8"/>
      <stop offset="0.85" stop-color="#a3a7f5"/>
      <stop offset="1" stop-color="#bcbeff"/>
    </linearGradient>
    <clipPath id="clip-path-5">
      <path id="Trazado_211245" data-name="Trazado 211245" d="M119.277,35.965,1.069,104.21c-1.292.748-1.433,1.877-.314,2.525L71.294,147.46a4.862,4.862,0,0,0,4.372-.181L193.871,79.032c1.293-.748,1.435-1.879.314-2.524L123.648,35.783a3.877,3.877,0,0,0-1.9-.437,5.079,5.079,0,0,0-2.474.619" transform="translate(0 -35.346)" fill="none"/>
    </clipPath>
    <linearGradient id="linear-gradient-2" x1="0.002" y1="1.142" x2="0.009" y2="1.142" gradientUnits="objectBoundingBox">
      <stop offset="0" stop-color="#c0bff6"/>
      <stop offset="0.294" stop-color="#c4c3f6"/>
      <stop offset="0.641" stop-color="#d2d2f9"/>
      <stop offset="1" stop-color="#e9e9fd"/>
    </linearGradient>
    <clipPath id="clip-path-7">
      <path id="Trazado_211258" data-name="Trazado 211258" d="M65.023,54.989,38.537,70.281a1.143,1.143,0,0,0,0,2.164L56.648,82.9a4.146,4.146,0,0,0,3.75,0L86.883,67.61a1.142,1.142,0,0,0,0-2.164L68.772,54.989a4.146,4.146,0,0,0-3.749,0" transform="translate(-37.761 -54.541)" fill="none"/>
    </clipPath>
    <linearGradient id="linear-gradient-3" x1="-1.043" y1="3.52" x2="-1.016" y2="3.52" xlink:href="#linear-gradient-2"/>
    <clipPath id="clip-path-9">
      <path id="Trazado_211260" data-name="Trazado 211260" d="M161.544.255,42.124,69.2a3.368,3.368,0,0,0-1.551,3.033l15.061,89.356a1.119,1.119,0,0,0,.629.908h0l1.767,1.02.3-1.649-.1.029,118.7-68.528a3.375,3.375,0,0,0,1.551-3.033L163.536,1.69l1.2-.507-1.8-1.034V.16a.973.973,0,0,0-.55-.16,1.7,1.7,0,0,0-.84.255" transform="translate(-40.548)" fill="none"/>
    </clipPath>
    <linearGradient id="linear-gradient-4" x1="-0.409" y1="1.09" x2="-0.399" y2="1.09" xlink:href="#linear-gradient-2"/>
    <clipPath id="clip-path-10">
      <path id="Trazado_211261" data-name="Trazado 211261" d="M40.573,52.025l15.061,89.356a1.119,1.119,0,0,0,.629.908h0l1.767,1.02.3-1.649-.1.029,6.005-3.466L42.789,51.416l-1.964-.869a2.706,2.706,0,0,0-.252,1.478" transform="translate(-40.549 -50.547)" fill="none"/>
    </clipPath>
    <linearGradient id="linear-gradient-5" x1="-2.389" y1="1.159" x2="-2.33" y2="1.159" xlink:href="#linear-gradient"/>
  </defs>
  <g id="Enmascarar_grupo_140144" data-name="Enmascarar grupo 140144" clip-path="url(#clip-path)">
    <g id="Grupo_140691" data-name="Grupo 140691">
      <g id="Grupo_140690" data-name="Grupo 140690" clip-path="url(#clip-path-2)">
        <g id="Grupo_140689" data-name="Grupo 140689" transform="translate(5.144 70.645)" style="mix-blend-mode: lighten;isolation: isolate">
          <g id="Grupo_140688" data-name="Grupo 140688">
            <g id="Grupo_140687-2" data-name="Grupo 140687" clip-path="url(#clip-path-3)">
              <path id="Trazado_211243" data-name="Trazado 211243" d="M72.711,158.1a10.783,10.783,0,0,1-5.391-1.44L5.234,120.811a3.122,3.122,0,0,1,0-5.4L117.569,50.55a.626.626,0,0,1,.624,0l.522.3,66.644,38.478a3.121,3.121,0,0,1,0,5.4L78.1,156.655a10.8,10.8,0,0,1-5.394,1.44M117.881,51.81,5.857,116.485a1.876,1.876,0,0,0,0,3.246l62.085,35.844a9.732,9.732,0,0,0,9.537,0L184.736,93.652a1.875,1.875,0,0,0,0-3.245Z" transform="translate(-3.675 -50.467)" fill="#fc502d"/>
            </g>
          </g>
        </g>
      </g>
    </g>
    <g id="Grupo_140693" data-name="Grupo 140693" transform="translate(0.042 57.342)">
      <g id="Grupo_140692" data-name="Grupo 140692" clip-path="url(#clip-path-4)">
        <rect id="Rectángulo_89856" data-name="Rectángulo 89856" width="194.837" height="110.024" transform="translate(0 0)" fill="url(#linear-gradient)"/>
      </g>
    </g>
    <g id="Grupo_140695" data-name="Grupo 140695" transform="translate(0 49.479)">
      <g id="Grupo_140694" data-name="Grupo 140694" clip-path="url(#clip-path-5)">
        <rect id="Rectángulo_89857" data-name="Rectángulo 89857" width="195.67" height="112.76" transform="translate(-0.364 0)" fill="url(#linear-gradient-2)"/>
      </g>
    </g>
    <g id="Grupo_140697" data-name="Grupo 140697">
      <g id="Grupo_140696" data-name="Grupo 140696" clip-path="url(#clip-path-2)">
        <path id="Trazado_211246" data-name="Trazado 211246" d="M193.868,66.376,75.663,134.622a4.862,4.862,0,0,1-4.372.181L.753,94.079a1.461,1.461,0,0,1-.685-.763,1.19,1.19,0,0,0,.685,1.443l70.538,40.726a4.858,4.858,0,0,0,4.372-.182L193.868,67.057c.871-.5,1.205-1.176,1-1.762a2.088,2.088,0,0,1-1,1.081" transform="translate(0.003 26.108)" fill="#fff"/>
        <path id="Trazado_211247" data-name="Trazado 211247" d="M28.583,105.172v-1.3c0-.123.074-.179.167-.126l4.572,2.64a.4.4,0,0,1,.168.318V108c0,.123-.076.181-.168.127l-4.572-2.64a.4.4,0,0,1-.167-.319" transform="translate(11.429 41.476)" fill="#2842a2"/>
        <path id="Trazado_211248" data-name="Trazado 211248" d="M33.467,107.992v-1.3c0-.123.074-.179.167-.126l4.572,2.64a.4.4,0,0,1,.168.318v1.3c0,.123-.076.181-.168.127l-4.572-2.64a.4.4,0,0,1-.167-.319" transform="translate(13.382 42.603)" fill="#2842a2"/>
        <path id="Trazado_211249" data-name="Trazado 211249" d="M29.058,109.237l98.229-56.713a2.117,2.117,0,0,1,2.117,0l34.979,20.238a.754.754,0,0,1,0,1.306L66.2,130.755a2.112,2.112,0,0,1-2.114,0L29.058,110.543a.754.754,0,0,1,0-1.306" transform="translate(11.468 20.888)" fill="#adb1f2"/>
        <path id="Trazado_211250" data-name="Trazado 211250" d="M29.058,110.543l.351.2,97.877-56.509a2.117,2.117,0,0,1,2.117,0l34.627,20.035.353-.2a.755.755,0,0,0,0-1.306L129.4,52.525a2.117,2.117,0,0,0-2.117,0L29.058,109.237a.754.754,0,0,0,0,1.306" transform="translate(11.468 20.888)" fill="#9198db"/>
        <path id="Trazado_211251" data-name="Trazado 211251" d="M129.644,56.731,39.163,108.971l-4.485-1.79,91.173-52.64Z" transform="translate(13.866 21.808)" fill="#24126a"/>
        <path id="Trazado_211252" data-name="Trazado 211252" d="M133.107,60.568,53.075,106.774l-3.795-2.189,80.033-46.207Z" transform="translate(19.704 23.342)" fill="#24126a"/>
        <path id="Trazado_211253" data-name="Trazado 211253" d="M141.489,63.066,47.26,117.47l-3.794-2.191,94.229-54.4Z" transform="translate(17.38 24.341)" fill="#24126a"/>
        <path id="Trazado_211254" data-name="Trazado 211254" d="M145.817,65.565l-94.229,54.4-3.794-2.191,94.229-54.4Z" transform="translate(19.11 25.34)" fill="#24126a"/>
        <path id="Trazado_211255" data-name="Trazado 211255" d="M150.145,68.063l-94.229,54.4-3.794-2.191,94.229-54.4Z" transform="translate(20.841 26.339)" fill="#24126a"/>
        <path id="Trazado_211256" data-name="Trazado 211256" d="M40.049,94.049,36.255,96.24l-3.794-2.191,3.794-2.191Z" transform="translate(12.98 36.729)" fill="#24126a"/>
        <path id="Trazado_211257" data-name="Trazado 211257" d="M61.745,91.7,42.9,102.58l-3.795-2.189L58.087,89.431Z" transform="translate(15.636 35.759)" fill="#24126a"/>
      </g>
    </g>
    <g id="Grupo_140699" data-name="Grupo 140699" transform="translate(52.859 76.349)">
      <g id="Grupo_140698" data-name="Grupo 140698" clip-path="url(#clip-path-7)">
        <rect id="Rectángulo_89859" data-name="Rectángulo 89859" width="50.417" height="28.959" transform="translate(-0.259)" fill="url(#linear-gradient-3)"/>
      </g>
    </g>
    <g id="Grupo_140701" data-name="Grupo 140701">
      <g id="Grupo_140700" data-name="Grupo 140700" clip-path="url(#clip-path-2)">
        <path id="Trazado_211259" data-name="Trazado 211259" d="M38.534,71.167,65.021,55.875a4.143,4.143,0,0,1,3.749,0L86.881,66.332a1.614,1.614,0,0,1,.651.64c.274-.524.066-1.111-.651-1.526L68.769,54.989a4.143,4.143,0,0,0-3.749,0L38.534,70.281c-.715.414-.925,1-.651,1.526a1.623,1.623,0,0,1,.651-.64" transform="translate(15.101 21.808)" fill="#9198db"/>
      </g>
    </g>
    <g id="Grupo_140703" data-name="Grupo 140703" transform="translate(56.761)">
      <g id="Grupo_140702" data-name="Grupo 140702" clip-path="url(#clip-path-9)">
        <rect id="Rectángulo_89861" data-name="Rectángulo 89861" width="138.251" height="163.523" transform="translate(-0.148 0)" fill="url(#linear-gradient-4)"/>
      </g>
    </g>
    <g id="Grupo_140705" data-name="Grupo 140705" transform="translate(56.762 70.758)">
      <g id="Grupo_140704" data-name="Grupo 140704" clip-path="url(#clip-path-10)">
        <rect id="Rectángulo_89862" data-name="Rectángulo 89862" width="23.739" height="92.765" transform="translate(-0.052 0)" fill="url(#linear-gradient-5)"/>
      </g>
    </g>
    <g id="Grupo_140707" data-name="Grupo 140707">
      <g id="Grupo_140706" data-name="Grupo 140706" clip-path="url(#clip-path-2)">
        <path id="Trazado_211262" data-name="Trazado 211262" d="M178.266,94.143,58.845,163.091c-.921.532-1.711.224-1.873-.731L41.911,73.006a3.369,3.369,0,0,1,1.551-3.033L162.882,1.024c.922-.532,1.712-.225,1.873.729L179.817,91.11a3.371,3.371,0,0,1-1.551,3.033" transform="translate(16.748 0.306)" fill="#453c9e"/>
      </g>
    </g>
  </g>
</svg>
