<svg id="Grupo_137507" data-name="Grupo 137507" xmlns="http://www.w3.org/2000/svg" xmlns:xlink="http://www.w3.org/1999/xlink" width="85" height="84.841" viewBox="0 0 85 84.841">
  <defs>
    <clipPath id="clip-path">
      <rect id="Rectángulo_87929" data-name="Rectángulo 87929" width="85" height="84.841" fill="none"/>
    </clipPath>
  </defs>
  <g id="Grupo_137506" data-name="Grupo 137506" clip-path="url(#clip-path)">
    <path id="Trazado_203332" data-name="Trazado 203332" d="M0,125.378a2.481,2.481,0,0,1,2.583-1.342c1.119.076,2.247.016,3.467.016a7.415,7.415,0,0,1-.486-3.407q0-16.442-.014-32.884c0-.975.167-1.741,1.245-2,.8-.148,1.166.337,1.407.974a5.213,5.213,0,0,1,.2,1.883q0,16.142,0,32.284c0,2.473.406,2.878,2.892,2.878H71.764c.249,0,.5-.013.746.01.745,0,1.492.025,2.236-.025a1.761,1.761,0,0,0,1.849-1.9c.015-.3.008-.607.008-.91q0-20.516,0-41.031c0-2.411-.422-2.829-2.855-2.829-.387,0-.773-.014-1.159-.018-1.489.029-2.979-.005-4.469.015-.868.012-.951.105-.956.949,0,.894.091,1,.982,1.016,1.71.03,3.421-.042,5.133.037.989.26,1.291.613,1.353,1.593.021.33.012.661.012.992q0,18.773,0,37.546c0,.331.009.662-.014.992-.068.97-.384,1.33-1.374,1.575a7.954,7.954,0,0,1-.993.04H13.114c-2.514,0-2.754-.239-2.754-2.741q0-11.549,0-23.1c0-1.817-.238-3.636-.125-5.447.19-3.063-.192-6.116-.033-9.175.092-1.763.641-2.307,2.395-2.316,1.383-.008,2.765.014,4.148-.009.818-.014.9-.152.925-1,.017-.655-.219-.956-.91-.949-2.074.021-4.148-.017-6.221.017-1.513.025-2.094.638-2.135,2.133a11.766,11.766,0,0,1-.125,2.639c-.237.924-.675,1.244-1.489,1.131A1.23,1.23,0,0,1,5.571,81.7c-.013-1.076-.045-2.158.04-3.228a4.46,4.46,0,0,1,4.416-4.113c2.434-.035,4.869-.023,7.3,0,.515,0,.769-.093.689-.665a5.127,5.127,0,0,1,0-.993,1.916,1.916,0,0,1,2.073-1.983c1.134-.015,2.269-.01,3.4,0a1.963,1.963,0,0,1,2.184,2.138c.052,1.492.052,1.492,1.58,1.492,1.1,0,1.1,0,1.1-1.078,0-2.292-.006-4.584,0-6.876.006-1.513.67-2.18,2.168-2.193,1.079-.01,2.158-.008,3.237,0a1.957,1.957,0,0,1,2.242,2.223c.008,2.43.016,4.86-.009,7.29-.005.492.094.651.626.648q5.893-.038,11.786,0c.468,0,.646-.12.59-.593a6.608,6.608,0,0,1-.006-.91,1.97,1.97,0,0,1,2.183-2.138q1.66-.014,3.32,0a1.93,1.93,0,0,1,2.148,2.15c.026,1.481.026,1.481,1.523,1.481a1.33,1.33,0,0,1,.249,0c.775.15.985-.195.919-.927a2.464,2.464,0,0,1,.527-2.1,2.066,2.066,0,0,1,1.572-.613c1.134.01,2.269-.006,3.4,0a1.937,1.937,0,0,1,2.15,2.078c.07,1.552.07,1.552,1.608,1.552,1.992,0,3.984,0,5.976,0a4.545,4.545,0,0,1,4.858,4.8c.025,4.142.007,8.284.008,12.425q0,14.538,0,29.076a7.4,7.4,0,0,1-.492,3.4c1.225,0,2.353.059,3.473-.016A2.477,2.477,0,0,1,85,125.378v4.97a5.232,5.232,0,0,1-2.993,4.057,10.9,10.9,0,0,1-1.655.416H73.877a1.281,1.281,0,0,1-.992-1.324c.361-1.1.705-1.375,1.819-1.4.93-.02,1.86-.007,2.79-.008.66.02,1.323.028,1.982,0a2.823,2.823,0,0,0,2.786-2.808c.026-.549-.016-1.1.013-1.649.035-.656-.274-.872-.893-.857-.936.021-1.873.011-2.811.007-5.893.05-11.785.011-17.677.022-2.683.005-5.367,0-8.05,0-1.048,0-1.091.049-1.294,1.077a3.426,3.426,0,0,1-3.306,2.862c-3.844.082-7.69.088-11.534,0a3.382,3.382,0,0,1-3.264-2.9c-.191-.97-.256-1.039-1.245-1.039q-14.191-.008-28.382,0c-.972,0-1.041.08-1.061,1.029-.009.414-.01.828,0,1.242A2.852,2.852,0,0,0,5.8,132.07c.359.01.719,0,1.079,0H67.631a10.732,10.732,0,0,1,1.327.031,1.526,1.526,0,0,1,1.484,1.486,1.239,1.239,0,0,1-1.047,1.23H4.482A5.14,5.14,0,0,1,0,130.349Z" transform="translate(0 -49.981)"/>
    <path id="Trazado_203333" data-name="Trazado 203333" d="M96.414,168.431c-.276.009-.552.026-.828.026q-30.524,0-61.049.006a2.762,2.762,0,0,1-1.875-.5,2.35,2.35,0,0,1-.725-2.02q.009-11.506,0-23.013,0-5.422,0-10.844c0-1.25-.169-1.48-1.279-1.915q0-1.377-.008-2.753a1.309,1.309,0,0,0,1.279-1.444c.026-.855-.006-1.711.017-2.566a2.025,2.025,0,0,1,2.19-2.163c2.35-.018,4.7.006,7.051-.015.488,0,.667.117.677.64.034,1.855.055,1.855-1.774,1.855-1.327,0-2.655,0-3.982,0-1.278,0-1.7.384-1.72,1.666-.028,1.848-.014,3.7-.007,5.547.011,2.757.044,5.513.046,8.27q.01,12.46,0,24.92c0,1.536.31,1.846,1.834,1.846H96c.359,0,.718.016,1.077.024a2,2,0,0,1-.659,2.432" transform="translate(-23.863 -94.387)" fill="#0d2380"/>
    <path id="Trazado_203334" data-name="Trazado 203334" d="M228.891,13.226c0,1.6.009,3.2,0,4.8-.01,1.486-.689,2.153-2.193,2.166-1.132.01-2.265.017-3.4,0a1.9,1.9,0,0,1-2.054-2.07q-.024-4.961,0-9.922a1.934,1.934,0,0,1,2.046-2.1q1.781-.038,3.562,0a1.9,1.9,0,0,1,2.035,2.09c.016,1.681,0,3.362,0,5.044" transform="translate(-172.247 -4.729)"/>
    <path id="Trazado_203335" data-name="Trazado 203335" d="M275.543,31.517c0,1.075.014,2.151,0,3.226a1.969,1.969,0,0,1-2.187,2.213c-1.1.019-2.21.023-3.315,0a1.957,1.957,0,0,1-2.156-2.164q-.033-3.308,0-6.617a1.924,1.924,0,0,1,2.151-2.146c1.133-.015,2.266-.016,3.4,0a1.892,1.892,0,0,1,2.107,2.1c.026,1.13.005,2.26.006,3.391" transform="translate(-208.555 -20.255)"/>
    <path id="Trazado_203336" data-name="Trazado 203336" d="M81.325,35.41c0-1.1-.018-2.206,0-3.309a1.921,1.921,0,0,1,2.158-2.14c1.16-.008,2.321-.016,3.481,0a1.846,1.846,0,0,1,2,1.874q.078,3.6,0,7.2a1.843,1.843,0,0,1-2.019,1.851q-1.782.025-3.564,0a1.919,1.919,0,0,1-2.052-2c0-.055,0-.11,0-.165q0-1.655,0-3.309" transform="translate(-63.313 -23.32)"/>
    <path id="Trazado_203337" data-name="Trazado 203337" d="M175.41,45.025c0-1.131-.014-2.262,0-3.392a1.879,1.879,0,0,1,2.029-2q1.782-.021,3.565,0a1.871,1.871,0,0,1,2.043,1.988q.027,3.475,0,6.949a1.873,1.873,0,0,1-1.9,1.974c-1.27.042-2.543.042-3.813,0a1.9,1.9,0,0,1-1.92-2.043c-.014-1.158,0-2.316,0-3.475" transform="translate(-136.567 -30.848)"/>
    <path id="Trazado_203338" data-name="Trazado 203338" d="M128.053,4.568c0-.855-.016-1.71,0-2.565A1.868,1.868,0,0,1,130.02.017c1.243-.023,2.488-.025,3.731,0a1.858,1.858,0,0,1,1.934,1.857q.069,2.687,0,5.378a1.858,1.858,0,0,1-1.931,1.861c-1.271.028-2.543.031-3.814,0a1.841,1.841,0,0,1-1.879-1.9c-.027-.882-.006-1.765-.006-2.648Z" transform="translate(-99.695 0)"/>
    <path id="Trazado_203339" data-name="Trazado 203339" d="M114,180.885c-.276.009-.552.026-.828.026q-26.726,0-53.453.019c-.758,0-.935-.192-.934-.936q.037-17.768,0-35.536c0-.7.182-.879.862-.841a27.557,27.557,0,0,0,3.318,0c.732-.048.833.219.831.872q-.034,12.756-.013,25.513c0,2.683,1.318,4.547,3.635,5.187a7.04,7.04,0,0,0,1.892.186q18.966,0,37.931,0c2.815,0,4.706-1.3,5.347-3.659a7.135,7.135,0,0,0,.17-1.89q0-12.508,0-25.016c0-1.211,0-1.211,1.242-1.146a1.406,1.406,0,0,1,.269,1.094q.01,17.518,0,35.036a1.406,1.406,0,0,1-.269,1.094" transform="translate(-45.766 -111.811)" fill="#f2f2f2"/>
    <path id="Trazado_203340" data-name="Trazado 203340" d="M81.482,352.607a9.978,9.978,0,0,0-2.792.151c-.077-1.145-.448-1.465-1.716-1.465H14.642c-2.617,0-3.741-1.11-3.721-3.722.005-.678-.315-1.579.145-1.97.389-.331,1.264-.1,1.924-.1q14.11,0,28.22-.013c.6,0,.839.088.861.778a3.159,3.159,0,0,0,3.374,3.206q5.478.015,10.956,0a3.194,3.194,0,0,0,3.387-3.291c.024-.507.113-.7.683-.7q13.2.031,26.393.016c.082,0,.165.015.247.022a1.015,1.015,0,0,1,.236.762,22.053,22.053,0,0,1-.021,2.623,2.647,2.647,0,0,1-1.375,2.363c-.909.009-1.818.02-2.727.025-1.174.007-1.434.2-1.743,1.316" transform="translate(-8.422 -268.936)" fill="#a8daf4"/>
    <path id="Trazado_203341" data-name="Trazado 203341" d="M136.55,123.388a6.146,6.146,0,0,0-3.134-.619q-18.634.007-37.267,0a6.732,6.732,0,0,0-3.457.556,1.388,1.388,0,0,1-.121-.862c0-5.605.008-11.21-.019-16.815,0-.679.162-.889.862-.872,1.836.045,1.836.01,1.836,1.869q0,5.3,0,10.6c0,1.73.668,2.384,2.419,2.391,1,0,1.992.013,2.988,0a2,2,0,0,0,2.245-2.252c.011-2.733.024-5.467-.012-8.2-.008-.618.145-.785.771-.774,1.915.033,1.915,0,1.915,1.94,0,.3,0,.608,0,.911a1.937,1.937,0,0,0,2.164,2.134c1.134.008,2.269.014,3.4,0a1.931,1.931,0,0,0,2.078-2.066c.016-.8.023-1.6,0-2.4-.014-.406.133-.493.519-.509,2.156-.093,2.155-.1,2.155,2.017,0,1.739-.008,3.479,0,5.218a1.961,1.961,0,0,0,2.151,2.173c1.134.022,2.269.026,3.4,0a1.93,1.93,0,0,0,2.089-2.137c.01-3.341.021-6.682-.012-10.023-.006-.654.106-.909.838-.889,1.848.05,1.849.011,1.849,1.85q0,5.923,0,11.845c0,1.784.668,2.463,2.438,2.478,1,.008,1.992.018,2.988,0,1.543-.033,2.224-.716,2.227-2.249.008-4.363.016-8.725-.011-13.088,0-.638.143-.846.815-.832,1.881.039,1.881.006,1.881,1.909v16.7Z" transform="translate(-72.058 -81.575)" fill="#fff2bf"/>
    <path id="Trazado_203342" data-name="Trazado 203342" d="M94.771,214.6a2.28,2.28,0,0,1-2.182-2.437c-.039-1.571-.011-3.144-.012-4.717,0-2.483-.012-4.965,0-7.448a2.415,2.415,0,0,1,2.7-2.72q18.118-.01,36.236,0a4.928,4.928,0,0,1,.492.048,1.748,1.748,0,0,1,.646.622c.229.5.548,1.021.279,1.569s-.872.367-1.343.372c-1.822.02-3.644.006-5.466.01a2.76,2.76,0,0,0-.982.076c-.63.17-.728.915-1.273,1.178-.994.051-2.012.355-2.941-.279a1.621,1.621,0,0,0-1.6-.791q-11.238.018-22.475.011c-1.182,0-1.557.323-1.579,1.512-.054,2.9-.046,5.793,0,8.69a1.537,1.537,0,0,0,.852,1.575,2.7,2.7,0,0,0,1.305.149q16.8,0,33.6,0c.221,0,.442,0,.664,0,1.087.01,1.331.156,1.336.8a1.755,1.755,0,0,1-1.424,1.835c-.138.008-.277,0-.415,0q-17.8,0-35.591,0a2.2,2.2,0,0,1-.821-.055" transform="translate(-72.072 -153.592)" fill="#fc502d"/>
    <path id="Trazado_203343" data-name="Trazado 203343" d="M308.148,180.917V143.694c1.022-.009,2.046.012,3.067-.04.549-.028.686.147.681.684-.026,2.87-.012,5.74-.012,8.61q0,13.577.02,27.155c0,.686-.154.91-.856.858-.962-.072-1.933-.034-2.9-.043" transform="translate(-239.918 -111.844)" fill="#e3e3e3"/>
    <path id="Trazado_203344" data-name="Trazado 203344" d="M327.659,168.469a3.825,3.825,0,0,0,.659-2.432c1.036-.293,1.215-.541,1.215-1.734q0-18.671,0-37.342c0-.58-.016-1.16,0-1.739a1.3,1.3,0,0,0-1.218-1.486,14.225,14.225,0,0,1-.659-2.432c.69-.009,1.381-.031,2.07-.025a2.052,2.052,0,0,1,2.29,2.307c.011,3.943,0,7.886,0,11.828q0,15.179,0,30.358c0,2.081-.64,2.725-2.71,2.723-.552,0-1.1-.017-1.656-.027" transform="translate(-255.109 -94.425)" fill="#0d2380"/>
    <path id="Trazado_203345" data-name="Trazado 203345" d="M102.515,214.64c.358-.014.717-.041,1.075-.041q17.591,0,35.182,0a1.772,1.772,0,0,0,1.8-1.859c-.01-.267-.1-.419-.384-.416-.249,0-.5,0-.747,0q-17.342,0-34.685-.006c-.347,0-.722.118-1.04-.139.422-.453.98-.3,1.486-.3q15.769-.014,31.538-.008c1.162,0,2.324.023,3.486-.011.992-.028,1.227-.254,1.234-1.248q.033-4.6,0-9.194c-.008-1.044-.236-1.259-1.291-1.268-2.13-.019-4.26,0-6.391-.011-.406,0-.841.066-1.173-.275.245-.26.566-.167.858-.167,2.145-.008,4.291-.02,6.436.006.632.008.776-.224.606-.791a5.8,5.8,0,0,0-.76-1.54c.772-.011,1.547-.066,2.316-.022a2.284,2.284,0,0,1,2.222,2.157,6.664,6.664,0,0,1,.031.744q0,5.754,0,11.509c0,2.093-.874,2.958-2.991,2.959q-19,.013-38,.016a1.616,1.616,0,0,1-.814-.088" transform="translate(-79.816 -153.635)" fill="#fc502d"/>
    <path id="Trazado_203346" data-name="Trazado 203346" d="M350.142,351.485a4.138,4.138,0,0,0,1.178-3.2c-.061-.845-.016-1.7-.018-2.547,1.1-.008,2.2.006,3.3-.035.465-.017.546.17.531.573-.027.74.009,1.482-.014,2.223a3.053,3.053,0,0,1-3,3.006c-.658.021-1.318-.011-1.978-.019" transform="translate(-272.614 -269.156)" fill="#87c2df"/>
    <path id="Trazado_203347" data-name="Trazado 203347" d="M139.281,79.179c0-1.1.018-2.2-.009-3.3-.011-.434.13-.548.561-.563,2.12-.072,2.119-.086,2.119,1.976,0,1.677-.013,3.355.008,5.033.006.456-.047.675-.607.682-2.073.023-2.073.048-2.073-2.012q0-.908,0-1.815" transform="translate(-108.434 -58.622)" fill="#fff2bf"/>
    <path id="Trazado_203348" data-name="Trazado 203348" d="M169.522,345.647c1.876,0,3.753-.008,5.629.009.269,0,.716-.22.719.368,0,.494-.037.958-.633,1.093a2.271,2.271,0,0,1-.495.02q-5.257,0-10.513,0a2.019,2.019,0,0,1-.575-.038c-.536-.162-.557-.61-.559-1.069,0-.589.443-.372.714-.374,1.9-.017,3.808-.009,5.712-.009" transform="translate(-126.983 -269.091)" fill="#87c2df"/>
    <path id="Trazado_203349" data-name="Trazado 203349" d="M307.966,121.3a3.828,3.828,0,0,1,.659,2.432c-1.9.008-3.8.011-5.706.031-.376,0-.586-.1-.541-.507a1.24,1.24,0,0,0,0-.165c-.049-1.819-.049-1.823,1.785-1.818,1.268,0,2.536.017,3.8.027" transform="translate(-235.416 -94.422)" fill="#0d2380"/>
    <path id="Trazado_203350" data-name="Trazado 203350" d="M255.82,146.234v-.578c0-2.01,0-1.99,2.005-2,.53,0,.7.122.686.674-.043,1.265-.031,2.533,0,3.8.01.46-.123.606-.6.618-2.086.052-2.086.068-2.086-2.02Z" transform="translate(-199.176 -111.849)" fill="#f1f1f1"/>
    <path id="Trazado_203351" data-name="Trazado 203351" d="M115.97,145.406c0-1.753,0-1.719,1.737-1.768.72-.02,1.083.124.95.921-.054.322.01.662-.013.992-.041.6.283,1.443-.138,1.729-.576.391-1.442.093-2.182.13-.311.016-.356-.184-.354-.43,0-.524,0-1.049,0-1.573" transform="translate(-90.291 -111.832)" fill="#f0f0f0"/>
    <path id="Trazado_203352" data-name="Trazado 203352" d="M257.164,123.756c-1.371,0-1.371,0-1.371-1.31,0-1.176,0-1.176,1.341-1.176s1.33,0,1.33,1.269c0,1.217,0,1.217-1.3,1.217" transform="translate(-199.155 -94.418)" fill="#0d2380"/>
    <path id="Trazado_203353" data-name="Trazado 203353" d="M210.47,121.228c1.307,0,1.307,0,1.307,1.29a3.221,3.221,0,0,0,0,.494c.1.607-.2.787-.746.7a.538.538,0,0,0-.082,0c-1.926.01-1.907.011-1.855-1.908.013-.491.186-.626.63-.581.245.025.495,0,.743,0" transform="translate(-162.788 -94.376)" fill="#0d2380"/>
    <path id="Trazado_203354" data-name="Trazado 203354" d="M163.96,123.756c-1.328,0-1.328,0-1.328-1.269,0-1.216,0-1.216,1.382-1.216,1.285,0,1.285,0,1.285,1.228,0,1.257,0,1.257-1.339,1.257" transform="translate(-126.622 -94.419)" fill="#0d2380"/>
    <path id="Trazado_203355" data-name="Trazado 203355" d="M117.362,123.756c-1.335,0-1.335,0-1.335-1.265,0-1.221,0-1.221,1.378-1.221,1.293,0,1.293,0,1.293,1.224,0,1.262,0,1.262-1.337,1.262" transform="translate(-90.336 -94.418)" fill="#0d2380"/>
    <path id="Trazado_203356" data-name="Trazado 203356" d="M210.354,143.577a.735.735,0,0,1,.083,0c.376.039.983-.167,1.084.1a3.981,3.981,0,0,1,.077,1.614c-.025.375-.392.253-.6.224-.677-.1-1.512.365-1.993-.233-.256-.319-.068-1.009-.042-1.53.011-.221.242-.169.4-.172.331-.006.661,0,.992,0" transform="translate(-162.626 -111.755)" fill="#f0f0f0"/>
    <path id="Trazado_203357" data-name="Trazado 203357" d="M235.143,21.814c0,1.325-.015,2.651.008,3.976.008.44-.086.619-.584.633-2.1.057-2.095.076-2.095-2.022,0-2.154.012-4.308-.009-6.461,0-.478.088-.67.629-.678,2.051-.027,2.051-.05,2.051,1.984v2.568" transform="translate(-180.991 -13.435)" fill="#fff2bf"/>
    <path id="Trazado_203358" data-name="Trazado 203358" d="M281.8,40.181c0,.8-.015,1.6.006,2.4.011.42-.129.561-.567.581-2.138.1-2.137.111-2.137-1.985,0-1.13.02-2.26-.009-3.388-.012-.472.146-.6.613-.616,2.1-.06,2.095-.075,2.095,2.02q0,.5,0,.992" transform="translate(-217.299 -28.926)" fill="#fff2bf"/>
    <path id="Trazado_203359" data-name="Trazado 203359" d="M92.535,44.017c0-.825.016-1.65-.007-2.473-.011-.4.133-.5.523-.519,2.182-.11,2.181-.121,2.181,2.075,0,1.1-.019,2.2.009,3.3.012.465-.139.6-.607.609-2.1.048-2.1.064-2.1-2q0-.495,0-.99" transform="translate(-72.04 -31.912)" fill="#fff2bf"/>
    <path id="Trazado_203360" data-name="Trazado 203360" d="M189.311,53.707c0,.827-.012,1.655.005,2.482.007.348-.1.525-.47.478a1.088,1.088,0,0,0-.166,0c-2.036.052-2.036.052-2.036-1.972,0-1.158.014-2.317-.008-3.475-.007-.393.118-.5.513-.521,2.161-.107,2.16-.119,2.16,2.015q0,.5,0,.993" transform="translate(-145.312 -39.445)" fill="#fff2bf"/>
    <path id="Trazado_203361" data-name="Trazado 203361" d="M141.96,13.237c0,2.12,0,2.11-2.151,2.01-.376-.017-.537-.1-.527-.5.024-1.043.021-2.087,0-3.13-.007-.38.1-.508.5-.529,2.175-.115,2.175-.128,2.175,2.153" transform="translate(-108.442 -8.599)" fill="#fff2bf"/>
    <path id="Trazado_203362" data-name="Trazado 203362" d="M133.627,208.551c2.654-.014,5.309-.036,7.963-.037a1.106,1.106,0,0,1,1.223,1.179q.035,5.009,0,10.018a1.139,1.139,0,0,1-1.235,1.178c-.193.01-.387.007-.581.007q-17.632,0-35.264,0c-.331,0-.663-.017-.994-.025a1.345,1.345,0,0,1-.913-1.42c0-3.175-.01-6.35.008-9.525.006-1,.433-1.425,1.423-1.426q11.577-.013,23.154-.007c.752,0,1.29.262,1.438,1.063a1.173,1.173,0,0,1-.963,1.593,9.59,9.59,0,0,1-2.558.147c-1.147.018-1.162.006-1.306,1.162A4.658,4.658,0,0,1,124,215.115a3.811,3.811,0,0,1-4.145,1.179,3.734,3.734,0,0,1-2.759-3.2,7.1,7.1,0,0,0-.306-1.61,2.175,2.175,0,0,0-.18,1.209,3.836,3.836,0,0,1-3.329,3.731,3.922,3.922,0,0,1-4.455-3.164,9.466,9.466,0,0,1-.171-1.229c-.035-.861-.663-.7-1.2-.729-.625-.031-.812.292-.809.864.011,1.738.02,3.477,0,5.215-.01.706.318.89.963.886,3.069-.017,6.138-.008,9.207-.008q10.949,0,21.9,0c1.3,0,1.3-.006,1.306-1.273,0-1.573.009-3.146,0-4.719-.006-.862-.094-.951-.952-.961-1.327-.016-2.654,0-3.981-.007a3.461,3.461,0,0,1-1.463-.24c-.558-.258-.993-.619-.821-1.337a1.62,1.62,0,0,1,.829-1.169" transform="translate(-80.834 -162.328)"/>
    <path id="Trazado_203363" data-name="Trazado 203363" d="M141.608,213.458c.4,1.075.659,1.264,1.836,1.274,1.6.013,3.209.033,4.811-.011.671-.019.914.151.9.862q-.072,2.9,0,5.8c.016.675-.214.827-.85.825q-11.2-.029-22.4-.012c-3.319,0-6.637-.013-9.955.012-.6,0-.82-.145-.808-.783.039-1.986.027-3.974.006-5.961-.005-.507.1-.789.68-.729.6.062,1.345-.236,1.769.129s.14,1.145.216,1.738a3.729,3.729,0,0,0,7.248.849,7,7,0,0,0,.173-2.051c.012-.286-.088-.645.4-.656s.411.326.431.625a11.633,11.633,0,0,0,.163,1.891,3.723,3.723,0,0,0,7.28-.544c.018-.165.04-.329.055-.494.133-1.483.133-1.483,1.673-1.484.664,0,1.329.026,1.991-.013,1.019-.059,1.348-.409,1.435-1.429a10.536,10.536,0,0,0,2.951.165" transform="translate(-89.645 -166.066)" fill="#0d2380"/>
    <path id="Trazado_203364" data-name="Trazado 203364" d="M139.477,219.693c.671-.032,1.313-.165,1.215.938-.114,1.274-.41,1.842-1.282,1.83s-1.153-.587-1.258-1.867c-.1-1.236.722-.852,1.325-.9" transform="translate(-107.555 -171.031)" fill="#fc502d"/>
    <path id="Trazado_203365" data-name="Trazado 203365" d="M177.108,219.744c1.371.017,1.223-.157,1.232.969.01,1.236-.359,1.78-1.194,1.8-.875.025-1.283-.539-1.273-1.806.009-1.124-.135-.949,1.235-.966" transform="translate(-136.931 -171.088)" fill="#fc502d"/>
  </g>
</svg>
