<svg id="Grupo_140548" data-name="Grupo 140548" xmlns="http://www.w3.org/2000/svg" xmlns:xlink="http://www.w3.org/1999/xlink" width="85" height="67.384" viewBox="0 0 85 67.384">
  <defs>
    <clipPath id="clip-path">
      <rect id="Rectángulo_89547" data-name="Rectángulo 89547" width="85" height="67.383" fill="none"/>
    </clipPath>
  </defs>
  <g id="Grupo_140547" data-name="Grupo 140547" clip-path="url(#clip-path)">
    <path id="Trazado_208901" data-name="Trazado 208901" d="M0,7.849c.205-.645.381-1.3.619-1.933A9.177,9.177,0,0,1,14.145,1.45a2.089,2.089,0,0,1,1.077,1.97c-.034,3.9,0,7.8-.027,11.7,0,.554.1.745.707.745q24.309-.027,48.619,0c.587,0,.728-.158.723-.732-.028-3.429-.017-6.858-.013-10.287A4.477,4.477,0,0,1,70.024.017c1.272,0,2.544-.014,3.816,0a4.456,4.456,0,0,1,4.511,4.528q.033,5.268-.008,10.536c0,.591.1.81.75.782,1.38-.059,2.766.016,4.147-.031a1.9,1.9,0,0,1,1.76.813V66.283a1.359,1.359,0,0,1-1.529,1.1c-.525-.01-1.051,0-1.577,0H50.436a7.4,7.4,0,0,1-1.325-.054A1.453,1.453,0,0,1,47.8,65.961,1.8,1.8,0,0,1,49.7,64.368c.387-.023.774-.012,1.161-.012H80.89c1.321-.007,1.35-.03,1.35-1.34q0-15.3,0-30.6,0-6.262,0-12.523c0-1.27-.041-1.347-1.3-1.3-.723.029-1.487-.3-2.169.185a1.993,1.993,0,0,0-.156,1.134c-.009,2.323.014,4.646-.012,6.968-.013,1.2-.354,1.634-1.413,1.92a1.542,1.542,0,0,1-1.565-1.59c-.055-.634-.023-1.272-.023-1.908q0-6.1,0-12.2c0-1.119-.058-1.166-1.169-1.176-.47,0-.94.012-1.41-.017-1.327.05-2.654,0-3.982.024-.945.015-1.033.093-1.037,1.059-.013,2.461,0,4.922,0,7.383q0,13.107,0,26.214c0,.3.017.609,0,.912-.039.678.274.927.94.922,1.354-.011,2.71-.038,4.064.015.469-.028.939-.014,1.409-.016,1.16-.006,1.187-.031,1.192-1.227,0-1.244,0-2.488,0-3.732,0-3.317-.013-6.635.008-9.952.008-1.26.358-1.7,1.455-1.962a1.572,1.572,0,0,1,1.519,1.808c.032,1.962.01,3.925.01,5.887,0,3.317-.005,6.634,0,9.95a4.166,4.166,0,0,1-.458,2.079c-1.626,2.955-3.039,6.019-4.579,9.019A2.651,2.651,0,0,1,72.226,61.8a2.105,2.105,0,0,1-.926,0,1.7,1.7,0,0,1-1.034-1.011c-1.566-3.237-3.3-6.39-4.9-9.61a4.539,4.539,0,0,1-.386-2.1q0-14.438,0-28.877c0-1.638,0-1.639-1.618-1.639H16.978c-1.442,0-1.442,0-1.444,1.48,0,2.351.014,4.7-.009,7.053a1.9,1.9,0,0,1-1.044,2c-1.474.165-1.951-.255-1.953-1.792q-.016-10.867,0-21.734c0-.332-.018-.665,0-1a1.243,1.243,0,0,0-.909-1.319A6.487,6.487,0,0,0,9.522,2.78C5.864,2.457,2.685,5.7,2.71,9.7c.083,13.435.031,26.87.033,40.306a2.376,2.376,0,0,0,.1.981A9.63,9.63,0,0,1,8.49,48.608a10.283,10.283,0,0,1,3.365.35c.49.17.656-.083.664-.531.005-.3.006-.608.006-.913q0-6.471,0-12.942c0-.277,0-.553,0-.83.034-1.368.473-1.768,1.841-1.683a1.631,1.631,0,0,1,1.106,1.508,9.041,9.041,0,0,1,.038,1.326q0,7.757,0,15.514a6.683,6.683,0,0,1-.057,1.241,1.527,1.527,0,0,1-2.3,1.19c-.226-.105-.433-.245-.652-.364A6.457,6.457,0,0,0,4.4,53.69,6.365,6.365,0,0,0,4.01,61.8a6.484,6.484,0,0,0,5.23,2.576q16.477-.03,32.953-.009c.387,0,.775-.013,1.162.015a1.558,1.558,0,0,1,1.662,1.882,1.412,1.412,0,0,1-1.474,1.091c-.3.016-.608.014-.913.014q-16.723,0-33.445,0a9.249,9.249,0,0,1-8.3-4.9A8.093,8.093,0,0,1,0,59.311V7.849" transform="translate(0 0)"/>
    <path id="Trazado_208902" data-name="Trazado 208902" d="M12.41,126.24a6.247,6.247,0,0,1-.663-6.567,6.369,6.369,0,0,1,5.435-3.912,6.319,6.319,0,0,1,4.465,1.157,1.4,1.4,0,0,0,1.54.234,1.383,1.383,0,0,0,.673-1.407q0-8.784,0-17.568a1.557,1.557,0,0,0-.779-1.527.721.721,0,0,1-.728-.788q0-.856,0-1.712a.723.723,0,0,1,.729-.788,1.61,1.61,0,0,0,.779-1.613c-.014-2.71.015-5.42-.021-8.129-.009-.66.122-.886.844-.885q24.182.034,48.364,0c.708,0,.847.2.846.874-.022,10.065-.012,20.13-.025,30.195a3.665,3.665,0,0,0,.414,1.738q2.415,4.71,4.8,9.436a2.061,2.061,0,0,0,.946,1.106c-.134.442-.518.354-.824.356q-4.759.023-9.519,0c-.3,0-.62.017-.809-.3.789-1.219.6-2.59.608-3.93,0-1.521.021-3.043-.007-4.564-.022-1.182-.433-1.608-1.615-1.625-2.351-.035-4.7,0-7.054-.014-1.295-.006-1.431-.146-1.448-1.42-.009-.664.026-1.329-.018-1.991-.069-1.03-.416-1.378-1.461-1.391-2.3-.029-4.592-.007-6.888-.011-.3,0-.608,0-.913-.019a.8.8,0,0,1-.828-.845,9.819,9.819,0,0,0-.1-1.405c-.175-.815-.528-1.181-1.354-1.193-3.153-.044-6.307-.054-9.46,0-.948.017-1.339.485-1.362,1.521-.041,1.77,0,3.541-.016,5.311-.009,1.289-.149,1.432-1.428,1.438-2.269.009-4.537-.007-6.805.006-1.5.009-1.88.385-1.888,1.862-.011,1.964.043,3.93-.023,5.892a5.242,5.242,0,0,0,.636,2.352c-.277.444-.731.319-1.123.319q-6.65.013-13.3,0a1.2,1.2,0,0,1-.619-.207" transform="translate(-8.652 -64.414)" fill="#ebf3fe"/>
    <path id="Trazado_208903" data-name="Trazado 208903" d="M17.183,57.633a9.435,9.435,0,0,0-5.852,2.74c-.2-.165-.124-.343-.124-.493q-.007-20.831,0-41.662a6.674,6.674,0,0,1,5.407-6.793,4.441,4.441,0,0,1,1.565-.067,1.439,1.439,0,0,1,.73,1.226,9.37,9.37,0,0,1,.037,1.242q0,21.011,0,42.021c0,.083,0,.166,0,.249-.007,1.441-.007,1.442-1.437,1.482a.948.948,0,0,0-.324.055" transform="translate(-8.714 -8.811)" fill="#cae1fe"/>
    <path id="Trazado_208904" data-name="Trazado 208904" d="M16.973,126.214l.557-.023c.2.134.43.071.647.082.165.008.332,0,.5,0,17.7-.2,35.4-.187,53.1-.119,3.478.013,6.96.089,10.441.12,2.461.022,4.915-.255,7.377-.157a1.809,1.809,0,0,0,.726-.144,3,3,0,0,0,2.316-3.379q0-18.952.014-37.9c0-.859-.026-1.6-1.039-1.833a21.033,21.033,0,0,1,3.818-.131c.212-.015.29.113.291.306s0,.387,0,.581q0,22.273.018,44.545c0,.716-.15.9-.889.9q-15.886-.042-31.772-.019c-1.248,0-1.523.194-1.877,1.3-.787,0-1.575.013-2.362-.01a.829.829,0,0,0-.773.327c0-1.227-.383-1.6-1.654-1.6q-16.763,0-33.526.01a6.98,6.98,0,0,1-5.541-2.311,5.25,5.25,0,0,1-.376-.539" transform="translate(-13.215 -64.388)" fill="#cae1fe"/>
    <path id="Trazado_208905" data-name="Trazado 208905" d="M38.248,57.776a.7.7,0,0,1,.213-.117c1.278-.176,1.278-.174,1.278-1.47q0-21.321.012-42.641a3.581,3.581,0,0,0-.509-2.047,6.136,6.136,0,0,1,.824.027c2.171.354,2.432.662,2.432,2.823q0,10.987,0,21.975c0,1.306.424,1.682,1.713,1.576a.783.783,0,0,0-.5.822,8.408,8.408,0,0,1,0,1.644.782.782,0,0,0,.5.822c-1.294-.1-1.71.269-1.712,1.575q-.008,7.334,0,14.669v1.024a10.516,10.516,0,0,0-4.25-.681" transform="translate(-29.779 -8.954)" fill="#bdd7fa"/>
    <path id="Trazado_208906" data-name="Trazado 208906" d="M311.106,89.426c-1.6.015-3.2.021-4.8.051-.386.007-.575-.1-.525-.512a3.447,3.447,0,0,0,0-.414q0-17.656-.019-35.312c0-.777.218-.971.957-.936,1.46.068,2.925.046,4.388.061a1.293,1.293,0,0,1,.255.851c.013,1.044.018,2.089,0,3.133-.006.324,0,.671-.321.888a.741.741,0,0,1-.323-.052c-1.347-.505-1.838-.182-1.842,1.272-.014,5.055,0,10.11-.006,15.166q0,4.641,0,9.282a7.617,7.617,0,0,0,.023.911c.111.922.631,1.237,1.5.914a1.421,1.421,0,0,1,.631-.178.607.607,0,0,1,.308.552q.1,1.9,0,3.8a.958.958,0,0,1-.226.525" transform="translate(-238.057 -40.718)" fill="#fc502d"/>
    <path id="Trazado_208907" data-name="Trazado 208907" d="M328.69,56.865c.324-.568.119-1.184.142-1.775.039-1.018.012-2.039.013-3.059.907-.057,2.043-.381,2.65.1.54.431.157,1.61.16,2.457.016,4.281,0,8.562.009,12.843,0,1.021.287,1.351,1.308,1.571a3.8,3.8,0,0,1,0,3.112c-1.011.2-1.308.545-1.308,1.566,0,4.863-.015,9.726.014,14.589,0,.667-.129.955-.849.877-.656-.072-1.322-.041-1.984-.055,0-1.351,0-2.7-.006-4.054,0-.265.09-.558-.152-.781a.962.962,0,0,1-.136-.712q.056-12.985,0-25.971a.942.942,0,0,1,.14-.711" transform="translate(-255.795 -40.386)" fill="#97301b"/>
    <path id="Trazado_208908" data-name="Trazado 208908" d="M331.114,96.677q0-1.556,0-3.112a1.411,1.411,0,0,0,1.189-1.617c-.009-2.844.019-5.687.033-8.531a6.5,6.5,0,0,0,.663.006c.457-.041.681.13.629.61a4.707,4.707,0,0,0,0,.5q0,19.494,0,38.987a3.05,3.05,0,0,1-2.491,3.231c-1.591.173-3.187.04-4.781.07a.185.185,0,0,1-.2-.208,2.074,2.074,0,0,0,.856-.977q2.461-4.874,4.946-9.736a2.849,2.849,0,0,0,.342-1.342q-.018-8.132,0-16.263c0-.866-.294-1.442-1.187-1.616" transform="translate(-253.937 -64.946)" fill="#ebf3fe"/>
    <path id="Trazado_208909" data-name="Trazado 208909" d="M305.823,17.844a39.083,39.083,0,0,1-.029-4.78,1.837,1.837,0,0,1,1.821-1.7c.989-.033,1.98.011,2.97.021a2.128,2.128,0,0,1,.736,1.7c.056,1.327.024,2.655.016,3.983,0,.592-.2.916-.885.877-1.541-.088-3.089.1-4.629-.095" transform="translate(-238.037 -8.836)" fill="#fc502d"/>
    <path id="Trazado_208910" data-name="Trazado 208910" d="M309.322,231.465H315.9l-3.276,6.481-3.3-6.481" transform="translate(-240.829 -180.212)" fill="#fdcabd"/>
    <path id="Trazado_208911" data-name="Trazado 208911" d="M306.132,17.84c1.46,0,2.921-.035,4.379.009.665.02.949-.144.9-.861a22.21,22.21,0,0,1-.009-2.4,6.466,6.466,0,0,0-.5-3.214c.468-.011.938-.049,1.4-.027a1.917,1.917,0,0,1,1.892,1.834c.057,1.434.015,2.871.027,4.307,0,.3-.084.455-.418.452-2.536-.022-5.071-.032-7.607-.049-.02,0-.039-.036-.059-.056" transform="translate(-238.346 -8.832)" fill="#97301b"/>
    <path id="Trazado_208912" data-name="Trazado 208912" d="M87.394,277.753a7.772,7.772,0,0,0,2.43.128c.848.037,1.7.009,2.548.01-.246.269-.571.16-.861.16q-35.58.007-71.16,0c-.291,0-.615.108-.862-.159q6.744,0,13.488-.007c.32,0,.666.109.956-.133.192-.214.446-.178.694-.176,13.1.1,26.193.016,39.289.049.506,0,1.044-.249,1.522.127.18.179.41.136.626.136q4.931,0,9.861,0c.216,0,.447.047.628-.13l.841-.005" transform="translate(-15.174 -216.088)" fill="#dceafe"/>
    <path id="Trazado_208913" data-name="Trazado 208913" d="M123.35,213.044c-.413.02-.825.058-1.238.058q-19.514,0-39.029,0c-.413,0-.825-.038-1.238-.058a1.6,1.6,0,0,1-.817-1.59c.022-2.349,0-4.7.01-7.049,0-1.2.437-1.634,1.666-1.638,2.488-.009,4.977-.05,7.463.022.9.026,1.072-.267,1.044-1.091-.062-1.85-.023-3.7-.018-5.555,0-1.291.41-1.7,1.672-1.706q4.685-.006,9.371,0c1.17,0,1.578.424,1.613,1.6.018.6-.257,1.382.118,1.752s1.157.109,1.76.112c2.239.013,4.478,0,6.717.007,1.117,0,1.551.434,1.567,1.552.012.857.053,1.718-.014,2.569-.051.659.2.759.788.752,2.515-.032,5.031-.016,7.546-.013,1.445,0,1.829.383,1.83,1.809,0,2.294-.014,4.588.009,6.882a1.6,1.6,0,0,1-.821,1.588" transform="translate(-63.086 -151.38)"/>
    <path id="Trazado_208914" data-name="Trazado 208914" d="M95.723,117.081c-2.241,0-4.482,0-6.723,0-1.273,0-1.656-.371-1.658-1.621q-.011-6.764,0-13.528c0-1.209.389-1.59,1.6-1.592q6.764-.01,13.529,0c1.215,0,1.606.382,1.608,1.578q.011,6.805,0,13.611c0,1.146-.4,1.546-1.551,1.551-2.268.011-4.537,0-6.806,0" transform="translate(-67.998 -78.117)"/>
    <path id="Trazado_208915" data-name="Trazado 208915" d="M191.921,105.725h7.714c.249,0,.5,0,.746.015a1.134,1.134,0,0,1,1.156,1.167,1.162,1.162,0,0,1-1.048,1.276,3.756,3.756,0,0,1-.743.031q-7.839,0-15.677,0a5.329,5.329,0,0,1-.663-.012,1.255,1.255,0,0,1-1.177-1.267,1.233,1.233,0,0,1,1.231-1.2c.248-.019.5-.012.746-.012h7.714" transform="translate(-141.879 -82.314)" fill="#010101"/>
    <path id="Trazado_208916" data-name="Trazado 208916" d="M191.9,135.04c-2.764,0-5.528.009-8.292-.006a1.228,1.228,0,0,1-1.377-1.222c0-.724.516-1.2,1.366-1.238.193-.009.387,0,.581,0h11.277c1.52,0,3.04-.007,4.561,0,1,.006,1.53.443,1.534,1.226s-.53,1.234-1.523,1.238c-2.709.008-5.417,0-8.126,0" transform="translate(-141.88 -103.215)"/>
    <path id="Trazado_208917" data-name="Trazado 208917" d="M188.282,161.812c-1.521,0-3.043.009-4.564,0-.919-.008-1.465-.465-1.487-1.2-.023-.773.545-1.279,1.5-1.282q4.647-.014,9.295,0c.981,0,1.518.466,1.513,1.256s-.512,1.222-1.527,1.229c-1.577.01-3.153,0-4.73,0" transform="translate(-141.879 -124.04)" fill="#010101"/>
    <path id="Trazado_208918" data-name="Trazado 208918" d="M320.938,72.247a3.863,3.863,0,0,1,.146,1.141q-.008,12.557,0,25.114a3.836,3.836,0,0,1-.15,1.14,1.285,1.285,0,0,1-1.6.49,1.354,1.354,0,0,1-.744-1.436q.011-12.761,0-25.521a1.343,1.343,0,0,1,.754-1.429,1.274,1.274,0,0,1,1.6.5" transform="translate(-248.043 -55.768)"/>
    <path id="Trazado_208919" data-name="Trazado 208919" d="M145.809,212.6c0,1.992-.015,3.983.01,5.974.007.537-.083.789-.712.777-2.1-.039-4.2-.033-6.306,0-.565.008-.687-.192-.684-.72q.03-6.14,0-12.281c0-.5.08-.732.668-.722,2.129.037,4.26.033,6.389,0,.533-.008.647.179.642.666-.021,2.1-.009,4.2-.009,6.306" transform="translate(-107.534 -160.09)" fill="#0d2380"/>
    <path id="Trazado_208920" data-name="Trazado 208920" d="M184.047,226.366c0-1.492.018-2.984-.01-4.475-.009-.473.135-.607.6-.6,2.155.023,4.31.029,6.464,0,.548-.008.626.2.623.675q-.028,4.434,0,8.868c0,.538-.136.718-.689.711q-3.149-.043-6.3,0c-.538.007-.72-.145-.707-.7.035-1.491.012-2.983.012-4.475" transform="translate(-143.284 -172.286)" fill="#0d2380"/>
    <path id="Trazado_208921" data-name="Trazado 208921" d="M96.076,243.268c1.079,0,2.158.018,3.236-.008.451-.011.641.1.632.594-.029,1.41-.025,2.821,0,4.232.008.449-.167.56-.583.557q-3.236-.023-6.472,0c-.444,0-.64-.1-.629-.6.031-1.41.027-2.821,0-4.232-.008-.452.162-.564.581-.555,1.078.023,2.157.008,3.236.008" transform="translate(-71.829 -189.394)" fill="#0d2380"/>
    <path id="Trazado_208922" data-name="Trazado 208922" d="M233.82,243.266c1.078,0,2.157.016,3.235-.008.427-.01.581.119.574.562-.024,1.41-.021,2.82,0,4.23.006.412-.093.595-.546.591q-3.277-.026-6.553,0c-.425,0-.582-.122-.575-.563.023-1.41.027-2.821,0-4.23-.01-.5.187-.6.633-.59,1.078.026,2.157.008,3.235.008" transform="translate(-179.033 -189.393)" fill="#0d2380"/>
    <path id="Trazado_208923" data-name="Trazado 208923" d="M110.33,117.537c0,1.713-.017,3.426.011,5.138.008.5-.111.664-.639.66q-5.263-.036-10.526,0c-.456,0-.622-.116-.62-.6q.027-5.3,0-10.608c0-.425.119-.575.56-.573q5.346.022,10.692,0c.478,0,.528.212.525.6-.013,1.8-.006,3.591-.006,5.387" transform="translate(-76.734 -86.85)" fill="#cae1fe"/>
    <path id="Trazado_208924" data-name="Trazado 208924" d="M107.132,125.454c.711-.024,1.089.5,1.48.95s.649.511,1.088.018c.771-.867,1.621-1.664,2.451-2.478a1.249,1.249,0,0,1,1.9-.161,1.236,1.236,0,0,1-.126,1.9q-1.863,1.893-3.756,3.755a1.256,1.256,0,0,1-2.02-.005q-.955-.922-1.875-1.881a1.155,1.155,0,0,1-.254-1.373,1.181,1.181,0,0,1,1.112-.725" transform="translate(-82.448 -96.088)"/>
  </g>
</svg>
