<svg id="Grupo_139540" data-name="Grupo 139540" xmlns="http://www.w3.org/2000/svg" xmlns:xlink="http://www.w3.org/1999/xlink" width="84.64" height="85.287" viewBox="0 0 84.64 85.287">
  <defs>
    <clipPath id="clip-path">
      <rect id="Rectángulo_88700" data-name="Rectángulo 88700" width="84.64" height="85.287" fill="none"/>
    </clipPath>
  </defs>
  <g id="Grupo_139541" data-name="Grupo 139541" clip-path="url(#clip-path)">
    <path id="Trazado_206548" data-name="Trazado 206548" d="M82.895,85.287H1.777C.313,84.8,0,84.35,0,82.622Q0,60.069,0,37.517,0,20.5,0,3.48A3.737,3.737,0,0,1,.53,1.175,2.73,2.73,0,0,1,2.442,0H82.23a2.8,2.8,0,0,1,2.407,3.078q.005,39.894,0,79.789c0,1.481-.435,2.07-1.743,2.42" transform="translate(0)"/>
    <path id="Trazado_206549" data-name="Trazado 206549" d="M252.062,41.409c1.228.018,1.64-.374,1.641-1.608q.005-12.009,0-24.019a2.213,2.213,0,0,0-1.637-2.4,2.509,2.509,0,0,0-.9-.056q-13.116-.005-26.232,0c-1.434,0-1.817-.707-1.111-2.051,1.938-.01,3.877-.027,5.816-.028q12.508,0,25.016,0c1.094,0,1.1,0,1.1,1.113q0,31.689-.008,63.379c0,.307.192.792-.2.889a2.723,2.723,0,0,1-1.707-.044c-.264-.112-.125-.508-.125-.774q-.009-8.453,0-16.907,0-6.2,0-12.41c0-1.24-.409-1.631-1.641-1.614a15.266,15.266,0,0,0,0-3.47" transform="translate(-173.828 -8.747)" fill="#596c75"/>
    <path id="Trazado_206550" data-name="Trazado 206550" d="M40.5,11.212c2.3-.01,4.6-.026,6.9-.027,7.95,0,15.9.01,23.849-.019.8,0,1.07.147,1.069,1.028q-.043,31.727-.031,63.455c0,.322.22.822-.258.931a3.613,3.613,0,0,1-1.642-.02c-.143-.035-.134-.225-.136-.363,0-.25,0-.5,0-.749q0-25.857,0-51.714c0-1.335-.333-1.718-1.51-1.753a17.758,17.758,0,0,1,0-3.44c1.119-.031,1.5-.421,1.51-1.564q.007-.66,0-1.321a2.146,2.146,0,0,0-1.662-2.34,2.794,2.794,0,0,0-.906-.051q-13.032,0-26.064,0c-1.434,0-1.816-.706-1.11-2.052" transform="translate(-31.232 -8.685)" fill="#586b75"/>
    <path id="Trazado_206551" data-name="Trazado 206551" d="M40.669,324.668c1.187-.017,2.374-.047,3.562-.048,4.7-.006,9.4,0,14.1,0,1.3,0,1.671-.369,1.659-1.593a14.7,14.7,0,0,0,3.412,0c-.012,1.17.354,1.574,1.493,1.593,1.079.018,2.159.025,3.238,0a2.116,2.116,0,0,0,2.283-2.363c.01-1.526.026-3.052-.01-4.577-.013-.543.141-.7.686-.69,1.405.02,1.406-.008,1.406,1.385,0,3.44-.007,6.879.008,10.319,0,.46-.048.682-.612.681q-15.528-.029-31.056-.017a1.126,1.126,0,0,1-.164-.024.812.812,0,0,1-.253-.592q-.072-1.731,0-3.464a1.024,1.024,0,0,1,.246-.6" transform="translate(-31.415 -246.564)" fill="#b5c3ce"/>
    <path id="Trazado_206552" data-name="Trazado 206552" d="M223.99,324.67c.33-.018.661-.051.991-.051q13,0,26.006,0c2.223,0,2.89-.66,2.891-2.858,0-1.36.024-2.72-.012-4.079-.014-.537.133-.706.685-.7,1.385.019,1.385-.01,1.385,1.4,0,3.442-.009,6.883.01,10.324,0,.486-.088.663-.626.662q-15.537-.027-31.074-.016a2.312,2.312,0,0,1-.247-.026.806.806,0,0,1-.253-.591q-.072-1.73,0-3.461a1.009,1.009,0,0,1,.246-.6" transform="translate(-174.011 -246.563)" fill="#b5c3ce"/>
    <path id="Trazado_206553" data-name="Trazado 206553" d="M268.607,100.242c.193.15.369.283.36.586q-.037,1.148,0,2.3c.01.3-.168.436-.36.586a1.251,1.251,0,0,0-.863,1.354c.009,1.275-.023,2.551.014,3.826.016.542-.136.713-.692.7-1.138-.027-1.139.007-1.139-1.14q0-6.072,0-12.143c0-1.808-.77-2.574-2.572-2.577l-18.34-.028c-.414-.542-.237-1.154-.21-1.748a5.822,5.822,0,0,0,.009-3.742,1.519,1.519,0,0,1,.2-1.289q7.132-.015,14.264-.029c2.571,0,5.143.022,7.714-.017.636-.01.774.177.77.788-.029,3.685-.009,7.37-.019,11.055,0,.69.129,1.269.866,1.52" transform="translate(-190.374 -67.579)" fill="#b5c3ce"/>
    <path id="Trazado_206554" data-name="Trazado 206554" d="M18.922,11.276C18.9,13.24,18.9,13.24,20.845,13.24q12.558,0,25.117.006c.347,0,.722-.116,1.041.136l-29.744,0c-2.164,0-2.81.651-2.81,2.831q0,29.641-.007,59.283c0,.373.2.9-.143,1.095a3.009,3.009,0,0,1-1.626.078c-.21-.01-.245-.195-.249-.368-.007-.25-.006-.5-.006-.749q0-31.515,0-63.029c0-1.272,0-1.276,1.273-1.271,1.744.006,3.488.018,5.233.028" transform="translate(-9.658 -8.749)" fill="#455960"/>
    <path id="Trazado_206555" data-name="Trazado 206555" d="M202.751,11.277c-.022,1.963-.022,1.963,1.926,1.963q12.642,0,25.284.006c.347,0,.722-.119,1.038.142l-29.835-.008c-2.1,0-2.737.634-2.737,2.716q0,29.775-.008,59.549c0,.337.205.868-.184.976a5.106,5.106,0,0,1-1.645.022c-.187-.012-.192-.244-.2-.412,0-.222,0-.444,0-.666q0-31.607,0-63.214c0-1.1,0-1.107,1.127-1.1q2.617.01,5.234.028" transform="translate(-152.762 -8.749)" fill="#455960"/>
    <path id="Trazado_206556" data-name="Trazado 206556" d="M60.928,164.131c2.215-.01,4.43-.028,6.645-.03,5.124,0,10.248.011,15.372-.018.637,0,.772.174.764.784-.034,2.747-.021,5.5-.009,8.243,0,.433,0,.7-.59.7-7.34-.023-14.679-.017-22.019-.02a.936.936,0,0,1-.163-.029c-.559-1.128-.244-1.706.956-1.719,1.456-.016,2.913,0,4.369-.005a2.459,2.459,0,0,0,.973-.11c.565-.195,1.037-.5.918-1.184-.125-.716-.713-.862-1.325-.873-1.6-.03-3.206,0-4.808-.016-.406,0-.839.07-1.176-.266a1.367,1.367,0,0,1,.024-1.322,1.688,1.688,0,0,1,1.189-.244c1.493-.01,2.987,0,4.48-.005a3.36,3.36,0,0,0,.907-.076.908.908,0,0,0,.715-.908.878.878,0,0,0-.7-.909,3.446,3.446,0,0,0-.989-.082c-1.493,0-2.987,0-4.48-.005a1.612,1.612,0,0,1-1.111-.237,1.555,1.555,0,0,1,.064-1.666" transform="translate(-47.18 -127.632)" fill="#b5c3ce"/>
    <path id="Trazado_206557" data-name="Trazado 206557" d="M84.685,34.621a5.209,5.209,0,0,1,0,3.44,1.254,1.254,0,0,0-1.009,1.2,4.227,4.227,0,0,0-.053,1.158c-.022,1.219.136,1.08-1.045,1.083-2.216.006-4.432,0-6.648,0H61.888c-1.214,0-1.353-.182-1.109-1.443.259-.442.706-.374,1.107-.379,1.408-.018,2.815-.006,4.223-.007.276,0,.552.007.828-.016a1.168,1.168,0,0,0,1.219-.921c.118-.6-.3-.9-.781-1.115A4.169,4.169,0,0,0,65.74,37.5c-1.321-.017-2.642.009-3.962-.011-.985-.016-1.165-.272-.975-1.3.285-.409.727-.333,1.127-.338,1.4-.016,2.806-.005,4.209-.006.248,0,.5,0,.743-.012a1.2,1.2,0,0,0,1.262-.865c.164-.644-.267-.954-.782-1.179a7.77,7.77,0,0,0-2.291-.117c-1.042-.027-2.086,0-3.129-.01-1.251-.014-1.572-.58-1.009-1.755.247-.017.494-.049.741-.049,7.064,0,14.127.009,21.191-.02.7,0,.914.168.851.863-.074.811-.092,1.657.969,1.921" transform="translate(-47.187 -24.764)" fill="#e7ecf1"/>
    <path id="Trazado_206558" data-name="Trazado 206558" d="M79.227,307.107c-.168.169-.3.356-.6.345-.736-.027-1.474-.027-2.21,0-.3.011-.433-.175-.6-.343a1.667,1.667,0,0,0-.706-.842,1.922,1.922,0,0,0-.9-.073c-4.153-.005-8.306-.013-12.459.007-.614,0-1.033-.085-1.022-.821.01-.7.25-.983,1.016-1,1.578-.03,3.156-.006,4.734-.012a2.24,2.24,0,0,0,1.057-.133c.489-.247.817-.608.654-1.188a1.186,1.186,0,0,0-1.217-.823c-1.625-.08-3.252-.01-4.877-.039-.428-.008-.9.092-1.23-.314-.224-1.056-.034-1.316,1.024-1.327,1.519-.016,3.038,0,4.558-.006a2.135,2.135,0,0,0,.974-.129c.485-.212.9-.5.786-1.108a1.13,1.13,0,0,0-1.21-.92c-1.651-.053-3.3,0-4.953-.028-.425-.006-.9.092-1.2-.358a1.543,1.543,0,0,1-.108-.735c.028-.484.211-.767.768-.738.69.036,1.384.008,2.076.008H82.76c.908,0,.909,0,.91.885,0,2.663-.018,5.327.014,7.989.007.61-.136.818-.776.8a15.418,15.418,0,0,0-2.975.058,1.663,1.663,0,0,0-.706.84" transform="translate(-47.237 -230.65)" fill="#e7ecf1"/>
    <path id="Trazado_206559" data-name="Trazado 206559" d="M245,32c.275-.015.55-.042.824-.042q10.442,0,20.884,0c.3,0,.6.042.9.064a.77.77,0,0,1,.08.482c0,2.8-.012,5.6.012,8.4,0,.538-.14.708-.692.707-7.133-.017-14.267-.01-21.4-.014-.848,0-.993-.3-.756-1.451.266-.432.711-.367,1.114-.373,1.38-.018,2.761-.006,4.141-.007.276,0,.553.007.828-.013.555-.039,1.067-.185,1.21-.8.154-.667-.225-1.037-.818-1.237a7.479,7.479,0,0,0-2.21-.115c-1.07-.025-2.141.005-3.212-.011-1.049-.016-1.241-.273-1.027-1.318.3-.394.737-.323,1.14-.327,1.352-.016,2.705,0,4.058-.006a6.907,6.907,0,0,0,.91-.028c.509-.068,1.01-.194,1.156-.773a1,1,0,0,0-.7-1.241,5.474,5.474,0,0,0-1.962-.126c-1.154-.023-2.309,0-3.463-.01-1.256-.013-1.577-.574-1.017-1.754" transform="translate(-190.365 -24.856)" fill="#8c9ba7"/>
    <path id="Trazado_206560" data-name="Trazado 206560" d="M245.124,257.8c1.522-.011,3.043-.032,4.565-.033,5.785,0,11.571.009,17.356-.016.653,0,.853.171.832.831-.048,1.524-.025,3.051-.009,4.577,0,.421-.051.66-.572.659q-11.085-.037-22.17-.041a1.3,1.3,0,0,1-.2-1.128,5.758,5.758,0,0,0,0-3.713,1.316,1.316,0,0,1,.2-1.137" transform="translate(-190.485 -200.494)" fill="#798b97"/>
    <path id="Trazado_206561" data-name="Trazado 206561" d="M61.06,257.766c2.267-.012,4.534-.033,6.8-.036,5.006-.005,10.013.022,15.019-.024.834-.008,1,.237.967,1.011-.065,1.494-.031,2.993-.011,4.489.006.412-.079.581-.54.58q-11.118-.038-22.235-.044a1.254,1.254,0,0,1-.192-1.1,4.084,4.084,0,0,0,0-3.762,1.259,1.259,0,0,1,.191-1.111" transform="translate(-47.314 -200.457)" fill="#01cffa"/>
    <path id="Trazado_206562" data-name="Trazado 206562" d="M60.96,86.945q7.138-.015,14.277-.029c2.6,0,5.2.012,7.8-.012.515,0,.716.093.7.668-.043,1.607-.026,3.217-.007,4.825,0,.4-.064.587-.533.586q-11.041-.024-22.082-.017a.7.7,0,0,1-.161-.038,1.987,1.987,0,0,1-.2-1.508,1.1,1.1,0,0,1,.415-.59c.7-.635.7-1.03.046-1.716a1.524,1.524,0,0,1-.417-.5,2,2,0,0,1,.161-1.665" transform="translate(-47.213 -67.598)" fill="#98e5fb"/>
    <path id="Trazado_206563" data-name="Trazado 206563" d="M83.817,219.386q0,2.9,0,5.808a1.316,1.316,0,0,1-.807.089q-10.576.008-21.151,0c-.975,0-1-.034-.986-1.041a4.653,4.653,0,0,0-.015-4.049c-.056-.6.114-.915.815-.914,7.224.019,14.447.012,21.671.013a.665.665,0,0,1,.477.09" transform="translate(-47.328 -170.569)" fill="#798b97"/>
    <path id="Trazado_206564" data-name="Trazado 206564" d="M83.7,125.654q.007,2.9.014,5.807a1.578,1.578,0,0,1-.891.086q-10.409.009-20.817,0c-1.3,0-1.372-.088-1.257-1.451a1.476,1.476,0,0,1,.5-.725c.585-.607.59-1.022.02-1.622a1.542,1.542,0,0,1-.515-.724,1.769,1.769,0,0,1-.05-.414c0-.924.126-1.055,1.032-1.056q10.619,0,21.237,0c.241,0,.5-.075.723.092" transform="translate(-47.219 -97.656)" fill="#798b97"/>
    <path id="Trazado_206565" data-name="Trazado 206565" d="M252.478,128.98q8.092-.014,16.183-.035c.418,0,.586.116.585.562q-.019,6.113,0,12.227c0,.445-.171.566-.588.565q-8.091-.029-16.183-.037c-.566-1.126-.249-1.713.961-1.717,3.858-.014,7.716,0,11.574-.005a2.572,2.572,0,0,0,1.136-.147,1.667,1.667,0,0,0,1.172-1.727c.027-2.026.04-4.052,0-6.077-.026-1.22-.585-1.691-1.964-1.7-3.849-.017-7.7,0-11.548-.01a2.213,2.213,0,0,1-1.369-.221,1.5,1.5,0,0,1,.045-1.679" transform="translate(-196.173 -100.3)" fill="#596b75"/>
    <path id="Trazado_206566" data-name="Trazado 206566" d="M223.187,86.922l-.017,1.338a.654.654,0,0,1-.476.082c-1.007-.028-1.342.267-1.43,1.264a5.6,5.6,0,0,0-.008.748c.053,1.149.373,1.448,1.521,1.424a.575.575,0,0,1,.393.088q.009.917.018,1.835c-.72.009-1.439.023-2.159.027-1.711.01-2.5.781-2.5,2.476,0,4.192-.025,8.384.02,12.575.008.78-.3.838-.914.808-.54-.027-.958.071-.953-.771q.058-10.576.008-21.152c0-.607.124-.806.765-.787,1.909.056,3.821.036,5.731.046" transform="translate(-168.547 -67.575)" fill="#9eabb9"/>
    <path id="Trazado_206567" data-name="Trazado 206567" d="M245.805,305.869c-.243.2-.532.1-.8.1-9.136,0-18.272-.015-27.408.008-.738,0-.919-.185-.907-.916.047-2.718.033-5.438.007-8.156-.005-.54.139-.7.689-.7q13.912.019,27.824,0c.4,0,.747-.056.741.566-.028,2.913-.012,5.826-.014,8.739,0,.135.017.28-.138.357a1.752,1.752,0,0,1-.279-1.268c-.007-2.276,0-4.552-.005-6.828,0-1.076-.051-1.124-1.128-1.125q-9.722-.007-19.444,0c-1.256,0-1.256,0-1.654,1.178-.321.352-.754.288-1.161.3-.772.026-1.549-.046-2.318.045-.733.087-1.124.463-1.107,1,.016.524.448.9,1.177.91,2.9.042,5.8.006,8.7.022a1.793,1.793,0,0,1,1.27.241c-.157.549-.632.433-1.006.441-1.37.03-2.743.046-4.112,0-.746-.026-1.284.13-1.477.922a1.884,1.884,0,0,1-1.269.251,17.34,17.34,0,0,0-2.152.061c-.8.127-1.2.508-1.13,1.072.085.737.646.825,1.223.83,2.873.023,5.746,0,8.619.017.453,0,.952-.12,1.322.3-.231.49-.694.389-1.086.4-1.384.026-2.77.008-4.154.011a3.889,3.889,0,0,0-.745.048.377.377,0,0,0-.344.4.4.4,0,0,0,.312.433,4.347,4.347,0,0,0,1.075.064q9.722,0,19.443,0a1.987,1.987,0,0,1,1.432.279" transform="translate(-168.555 -230.405)" fill="#9eabb9"/>
    <path id="Trazado_206568" data-name="Trazado 206568" d="M45.9,300.394c-.4.279-.859.128-1.288.135-1.381.021-2.762,0-4.144.009-1.36,0-1.2-.13-1.219,1.18a1.55,1.55,0,0,1-1.106.238,19.035,19.035,0,0,0-2.238.06c-.724.111-1.134.51-1.1,1.027s.466.868,1.209.878c2.435.031,4.87.008,7.306.013.609,0,1.218-.011,1.826.006a1.126,1.126,0,0,1,.924.267c-.249.257-.571.16-.864.162-1.739.009-3.479.026-5.218-.008-.592-.012-.746.194-.753.763-.007.6.221.739.778.736,4.141-.019,8.282-.013,12.423,0,.318,0,.669-.113.945.164-1.522-.019-3.043-.052-4.565-.055-5.067-.009-10.134-.019-15.2.008-.66,0-.832-.176-.824-.831.037-2.746.03-5.494,0-8.241-.005-.551.156-.692.7-.692q13.955.022,27.909,0c.533,0,.637.166.633.659q-.033,4.2,0,8.407c0,.534-.12.721-.68.705-1.05-.03-2.1.024-3.153.043a7.3,7.3,0,0,1,2.773-.147c.67,0,.909-.165.9-.878-.041-2.606-.032-5.213,0-7.819.007-.6-.143-.819-.783-.817q-10.542.031-21.084,0c-.571,0-.826.16-.756.75a6.412,6.412,0,0,1,.005.748c-.28.3-.655.255-1.009.265-.691.019-1.384-.02-2.075.02-.892.051-1.408.434-1.39,1,.019.6.5.943,1.411.949,2.822.016,5.645,0,8.467.012.428,0,.9-.1,1.245.287" transform="translate(-25.501 -230.402)" fill="#d8e6eb"/>
    <path id="Trazado_206569" data-name="Trazado 206569" d="M223.213,31.984c.011,1.512.011,1.512,1.556,1.512,1.409,0,2.819-.005,4.228,0,.294,0,.614-.094.872.147-.351.38-.819.279-1.248.281-2.683.012-5.366,0-8.049.006a7.045,7.045,0,0,0-.994.037.847.847,0,0,0-.846.853.914.914,0,0,0,.746.967,9.017,9.017,0,0,0,1.9.119c.618.044,1.278-.18,1.842.259,0,1.163,0,1.163,1.148,1.163,1.488,0,2.977,0,4.465,0,.294,0,.611-.092.873.136-.346.389-.815.285-1.243.287-2.625.012-5.25.005-7.875.006a6.455,6.455,0,0,0-.91.033c-.519.074-.908.33-.932.884a.936.936,0,0,0,.906,1,19.9,19.9,0,0,0,2.069.057c.509.027,1.06-.143,1.5.272.02,1.75-.225,1.48,1.5,1.483,6.73.011,13.46-.008,20.19.021.741,0,.934-.205.924-.935-.039-2.858-.013-5.717-.011-8.576.24.156.14.4.14.606.007,2.774-.011,5.548.017,8.321.006.578-.151.749-.738.748q-13.909-.031-27.817-.011c-.537,0-.7-.139-.7-.691.027-2.8.02-5.6,0-8.4,0-.443.092-.649.59-.64,1.964.035,3.928.035,5.892.048" transform="translate(-168.58 -24.841)" fill="#798b97"/>
    <path id="Trazado_206570" data-name="Trazado 206570" d="M18.85,324.633l.008,4.657c-1.991.009-3.982.006-5.973.037-.451.007-.55-.154-.548-.573q.02-5.613,0-11.226c0-.421.106-.566.552-.579,1.513-.042,1.512-.063,1.512,1.441,0,1.247-.008,2.495,0,3.742a2.182,2.182,0,0,0,2.46,2.454c.662.012,1.324.031,1.986.047" transform="translate(-9.596 -246.529)" fill="#9eabb9"/>
    <path id="Trazado_206571" data-name="Trazado 206571" d="M39.234,36.106c0,1.161,0,1.162,1.15,1.162,1.544,0,3.087,0,4.631,0,.293,0,.612-.1.869.146-.325.359-.764.277-1.168.279-2.6.011-5.207,0-7.81.006-.277,0-.554-.006-.831.005-.835.036-1.3.381-1.316.965s.444.927,1.309.983c.719.047,1.44,0,2.16.024.353.01.73-.039,1.006.272,0,1.485,0,1.485,1.5,1.485,6.689,0,13.379-.016,20.068.02.837,0,1.16-.2,1.054-1.056a1.465,1.465,0,0,1,.122-1.125c-.007.744.257,1.686-.1,2.175-.341.469-1.342.143-2.05.144-8.725.01-17.45,0-26.175.019-.661,0-.9-.113-.885-.842.048-2.719.034-5.44.007-8.16-.006-.568.134-.77.73-.754,1.908.052,3.818.047,5.727.064,0,1.512,0,1.512,1.551,1.512,1.436,0,2.872,0,4.308,0,.268,0,.557-.077.792.137-.342.4-.812.289-1.238.291-2.677.012-5.355.006-8.032.007a8.4,8.4,0,0,0-.91.03.906.906,0,0,0-.9.817.938.938,0,0,0,.784,1.024,8.473,8.473,0,0,0,1.812.108c.617.045,1.276-.181,1.839.257" transform="translate(-25.488 -24.778)" fill="#d8e6eb"/>
    <path id="Trazado_206572" data-name="Trazado 206572" d="M202.575,324.661q0,2.326.008,4.652c-1.936.01-3.873,0-5.81.039-.486.008-.6-.163-.6-.62q.024-5.575,0-11.149c0-.478.155-.6.617-.609,1.468-.025,1.467-.044,1.467,1.4,0,1.3-.009,2.607,0,3.911a2.107,2.107,0,0,0,2.241,2.324c.689.031,1.38.038,2.07.055" transform="translate(-152.596 -246.553)" fill="#9eabb9"/>
    <path id="Trazado_206573" data-name="Trazado 206573" d="M45.758,172.162a3.238,3.238,0,0,1-1.614.134c-1.293.027-2.59.056-3.881-.009-.8-.04-1.123.206-1,1.006a3.264,3.264,0,0,1,.006.5c-1.964.011-3.928.013-5.892.042-.435.006-.568-.139-.566-.572q.024-4.285,0-8.569c0-.435.132-.575.566-.569,1.964.028,3.928.029,5.892.039v1.619c-.267.329-.648.263-1,.274-.775.022-1.551-.028-2.324.025-.75.051-1.235.47-1.175,1.019.074.685.574.9,1.175.938.774.046,1.55,0,2.324.024.351.01.732-.056,1,.273q0,.643,0,1.286c-.271.315-.647.267-1,.276-.689.018-1.379-.008-2.068.012-.908.027-1.4.365-1.412.951-.015.616.5,1,1.447,1.007,2.15.023,4.3.005,6.451.008.744,0,1.489-.013,2.233.009a.963.963,0,0,1,.83.278" transform="translate(-25.527 -127.661)" fill="#9eabb9"/>
    <path id="Trazado_206574" data-name="Trazado 206574" d="M61.941,125.434q-10.789,0-21.578,0c-1.285,0-1.143-.126-1.155,1.16,0,.166,0,.333,0,.5-.287.293-.663.24-1.016.247-.913.018-1.827-.025-2.739.021-.8.04-1.271.458-1.247,1.047.022.552.469.892,1.267.917.913.029,1.827,0,2.74.015.351.007.731-.05,1,.269-.021,1.652-.021,1.653,1.659,1.652l21.081-.016c-.176.338-.491.177-.736.177-9.216,0-18.433-.012-27.649,0-.656,0-.854-.174-.834-.835.048-1.524.033-3.051.006-4.576-.009-.535.158-.73.708-.729q13.991.009,27.981-.008c.179,0,.4-.075.51.16" transform="translate(-25.463 -97.435)" fill="#586b75"/>
    <path id="Trazado_206575" data-name="Trazado 206575" d="M267.663,202.105a.329.329,0,0,1-.08.02l-22.52-.006a1,1,0,0,1-.254-.768c.008-.512.173-.831.783-.809,1,.036,1.993.01,2.99.01h17.86c1.485,0,1.485,0,1.221,1.552" transform="translate(-190.424 -155.992)" fill="#8c9ba7"/>
    <path id="Trazado_206576" data-name="Trazado 206576" d="M253.815,140.619c-.287.251-.634.142-.954.143-3.783.008-7.566,0-11.348.01-1.712.006-1.478-.272-1.494,1.479-1.08.009-2.16,0-3.239.036-.5.017-.6-.2-.6-.644q.018-6.037,0-12.075c0-.449.106-.654.6-.637,1.079.038,2.159.028,3.239.037q0,.8,0,1.608c-.156.23-.415.255-.65.328-.908.282-1.2.59-1.224,1.536-.058,2.136-.052,4.274,0,6.41.023,1.026.548,1.46,1.71,1.472,2.548.026,5.1.007,7.644.009,1.717,0,3.434-.007,5.151.006.4,0,.843-.074,1.168.282" transform="translate(-183.715 -100.288)" fill="#465a61"/>
    <path id="Trazado_206577" data-name="Trazado 206577" d="M231.254,225.1c-4.569,0-9.137-.017-13.706.018-.708.005-.871-.2-.848-.875.052-1.552.034-3.108.006-4.661-.008-.473.128-.605.6-.6q14,.018,27.994-.005c.524,0,.654.158.645.661-.03,1.581-.037,3.164,0,4.744.015.587-.159.743-.74.74-4.652-.023-9.3-.013-13.955-.013Z" transform="translate(-168.558 -170.33)" fill="#d8e6eb"/>
    <path id="Trazado_206578" data-name="Trazado 206578" d="M61.948,219.028c-7.326,0-14.652.008-21.978-.034-.933-.005-.736.568-.8,1.073a.752.752,0,0,1-.48.06,1.372,1.372,0,0,0-.49.036c-.747.225-1.031,1.269-.737,2.7.134.652.56.906,1.366.806.134-.017.268-.068.387.042-.022,1.13-.022,1.131,1.088,1.131l21.642-.01c-.217.339-.556.166-.829.166-9.168,0-18.336-.011-27.5.005-.688,0-.9-.178-.88-.877.052-1.5.035-3,.006-4.5-.01-.542.093-.782.717-.781q13.919.019,27.837,0c.22,0,.508-.142.657.174" transform="translate(-25.458 -170.211)" fill="#586b75"/>
    <path id="Trazado_206579" data-name="Trazado 206579" d="M39.269,86.959v1.763c-.252.353-.638.286-.987.294-.969.023-1.939-.013-2.908.02-.57.019-1.058.18-1.11.866-.042.556.35.973,1.052,1.06.937.116,1.882.025,2.823.054a1.644,1.644,0,0,1,1.115.213l.013,1.713c-1.985.015-3.97.022-5.954.051-.422.006-.5-.187-.5-.554.013-1.659.021-3.318,0-4.976-.007-.464.18-.545.584-.54,1.958.025,3.916.026,5.874.036" transform="translate(-25.522 -67.612)" fill="#61dafa"/>
    <path id="Trazado_206580" data-name="Trazado 206580" d="M39.266,262.63q0,.583.006,1.165c-1.965.011-3.93.012-5.895.042-.44.007-.567-.145-.562-.575q.031-2.455,0-4.911c-.005-.428.121-.584.562-.577,1.964.03,3.929.032,5.894.045v1.16a.387.387,0,0,1-.15.066c-.518.08-1.226-.213-1.457.482a3.976,3.976,0,0,0,.026,2.608c.11.311.443.39.761.421.272.027.555-.068.817.074" transform="translate(-25.525 -200.509)" fill="#01bff8"/>
    <path id="Trazado_206581" data-name="Trazado 206581" d="M223.23,257.843q-.009.591-.017,1.182a.263.263,0,0,1-.076.032c-1.673.129-2.17.841-1.787,2.564a1.029,1.029,0,0,0,1.216.953c.216,0,.439-.085.641.061q.013.592.025,1.185c-1.959.01-3.919.008-5.878.037-.469.007-.62-.149-.614-.617q.034-2.406,0-4.813c-.006-.465.139-.628.611-.621,1.959.03,3.919.028,5.878.037" transform="translate(-168.591 -200.534)" fill="#586b75"/>
    <path id="Trazado_206582" data-name="Trazado 206582" d="M245.815,201.849c-.005-1.468-.005-1.468-1.433-1.468H224.714c-1.506,0-1.506,0-1.5,1.483-1.964.011-3.929-.006-5.892.046-.769.02-.56-.473-.589-.877-.035-.476-.043-.834.653-.82,2.213.042,4.427.008,6.642.007h20.757c1.31,0,1.476.262,1.03,1.629" transform="translate(-168.576 -155.735)" fill="#798b97"/>
    <path id="Trazado_206583" data-name="Trazado 206583" d="M318.043,95.65c.634,0,1.27-.026,1.9.007a1.169,1.169,0,0,1,1.226,1.186,1.144,1.144,0,0,1-1.148,1.258c-1.348.052-2.7.045-4.05-.008a1.133,1.133,0,0,1-1.115-1.212,1.186,1.186,0,0,1,1.2-1.22c.66-.037,1.323-.008,1.985-.008v0" transform="translate(-244.912 -74.394)" fill="#010101"/>
    <path id="Trazado_206584" data-name="Trazado 206584" d="M253.6,94.1c0,.276.016.553,0,.828a1.227,1.227,0,0,1-2.419.221,5.457,5.457,0,0,1,.005-2.22,1.117,1.117,0,0,1,1.281-.925,1.13,1.13,0,0,1,1.127,1.1,9.536,9.536,0,0,1,.006.993h0" transform="translate(-195.292 -71.562)" fill="#010101"/>
    <path id="Trazado_206585" data-name="Trazado 206585" d="M238.522,95.922c-1.33.563-2.079.069-2.1-1.388q-.006-.416,0-.832c.02-1.456.768-1.949,2.1-1.387a3.789,3.789,0,0,1,0,3.606" transform="translate(-183.899 -71.631)" fill="#010101"/>
    <path id="Trazado_206586" data-name="Trazado 206586" d="M268.553,94.046a8.175,8.175,0,0,1-.005.91,1.156,1.156,0,0,1-1.181,1.145,1.126,1.126,0,0,1-1.265-1.045,8.186,8.186,0,0,1,0-1.982,1.13,1.13,0,0,1,1.251-1.065,1.157,1.157,0,0,1,1.2,1.128,7.4,7.4,0,0,1,.007.91" transform="translate(-206.939 -71.568)"/>
    <path id="Trazado_206587" data-name="Trazado 206587" d="M286.021,95.825a1.247,1.247,0,0,1,1.268,1.252,1.306,1.306,0,0,1-1.233,1.229,1.247,1.247,0,0,1-1.248-1.277,1.2,1.2,0,0,1,1.213-1.2" transform="translate(-221.537 -74.537)" fill="#020202"/>
    <path id="Trazado_206588" data-name="Trazado 206588" d="M300.884,95.7a1.229,1.229,0,1,1,.042,2.457,1.229,1.229,0,0,1-.042-2.457" transform="translate(-233.107 -74.439)" fill="#010102"/>
    <path id="Trazado_206589" data-name="Trazado 206589" d="M45.054,174.143c-1.1-.009-2.21-.013-3.314-.029-.935-.014-1.521-.528-1.494-1.293.026-.735.587-1.191,1.494-1.2,1.1-.014,2.21-.02,3.314-.029l5.959.028c1.033.005,1.618.457,1.616,1.245s-.59,1.247-1.616,1.252q-2.979.017-5.959.028" transform="translate(-31.304 -133.471)"/>
    <path id="Trazado_206590" data-name="Trazado 206590" d="M51.561,191.415,42.1,191.4a4.477,4.477,0,0,1-.745-.02,1.194,1.194,0,0,1-1.082-1.26,1.215,1.215,0,0,1,1.236-1.206c1.187-.043,2.377-.032,3.565-.044,2.01.011,4.019.018,6.029.033.9.007,1.434.371,1.515,1.074a1.235,1.235,0,0,1-1.061,1.435" transform="translate(-31.329 -146.915)"/>
    <path id="Trazado_206591" data-name="Trazado 206591" d="M147.019,191.521a1.257,1.257,0,0,1-1.246-1.282,1.287,1.287,0,0,1,1.251-1.208,1.253,1.253,0,0,1,1.23,1.295,1.227,1.227,0,0,1-1.235,1.195" transform="translate(-113.388 -147.038)" fill="#020202"/>
    <path id="Trazado_206592" data-name="Trazado 206592" d="M133.56,189.033a1.252,1.252,0,0,1,1.228,1.3,1.226,1.226,0,0,1-1.236,1.193,1.257,1.257,0,0,1-1.244-1.2,1.282,1.282,0,0,1,1.252-1.289" transform="translate(-102.916 -147.039)" fill="#020202"/>
    <path id="Trazado_206593" data-name="Trazado 206593" d="M107.848,190.29a1.226,1.226,0,0,1-1.2,1.229,1.256,1.256,0,0,1-1.283-1.245,1.291,1.291,0,0,1,1.216-1.243,1.254,1.254,0,0,1,1.267,1.259" transform="translate(-81.957 -147.037)" fill="#020202"/>
    <path id="Trazado_206594" data-name="Trazado 206594" d="M121.32,190.269a1.226,1.226,0,0,1-1.176,1.254,1.256,1.256,0,0,1-1.307-1.219,1.281,1.281,0,0,1,1.273-1.267,1.253,1.253,0,0,1,1.21,1.233" transform="translate(-92.438 -147.041)" fill="#020202"/>
    <path id="Trazado_206595" data-name="Trazado 206595" d="M147,171.717a1.246,1.246,0,0,1,.037,2.491,1.246,1.246,0,1,1-.037-2.491" transform="translate(-113.389 -133.57)" fill="#020202"/>
    <path id="Trazado_206596" data-name="Trazado 206596" d="M134.786,172.941a1.246,1.246,0,0,1-1.25,1.273,1.246,1.246,0,1,1,.033-2.491,1.236,1.236,0,0,1,1.217,1.218" transform="translate(-102.912 -133.574)" fill="#020202"/>
    <path id="Trazado_206597" data-name="Trazado 206597" d="M120.12,171.724a1.245,1.245,0,0,1-.078,2.489,1.245,1.245,0,1,1,.078-2.489" transform="translate(-92.433 -133.575)" fill="#020202"/>
    <path id="Trazado_206598" data-name="Trazado 206598" d="M106.609,174.213a1.246,1.246,0,1,1,.019-2.491,1.246,1.246,0,0,1-.019,2.491" transform="translate(-81.962 -133.574)" fill="#020202"/>
    <path id="Trazado_206599" data-name="Trazado 206599" d="M45.049,59.425c-1.077-.012-2.155-.02-3.232-.036-1-.014-1.6-.515-1.573-1.306.03-.761.588-1.189,1.583-1.19q4.936-.006,9.871,0a1.248,1.248,0,0,1,.858,1.57c-.218.783-.837.933-1.554.933-1.984,0-3.969.019-5.954.031" transform="translate(-31.303 -44.252)"/>
    <path id="Trazado_206600" data-name="Trazado 206600" d="M45.047,42.1c-1.077-.014-2.154-.024-3.231-.043-1-.018-1.6-.523-1.574-1.308.03-.753.594-1.187,1.584-1.187q4.935,0,9.871.005a1.233,1.233,0,0,1,.878,1.486c-.172.794-.771,1-1.5,1.007q-3.016.016-6.032.04" transform="translate(-31.301 -30.771)" fill="#010101"/>
    <path id="Trazado_206601" data-name="Trazado 206601" d="M106.6,59.4a1.3,1.3,0,0,1-1.233-1.312,1.251,1.251,0,0,1,1.262-1.177,1.217,1.217,0,0,1,1.218,1.289,1.26,1.26,0,0,1-1.247,1.2" transform="translate(-81.962 -44.272)" fill="#020202"/>
    <path id="Trazado_206602" data-name="Trazado 206602" d="M121.317,58.147a1.255,1.255,0,0,1-1.27,1.258,1.3,1.3,0,0,1-1.213-1.249,1.253,1.253,0,0,1,1.287-1.237,1.214,1.214,0,0,1,1.2,1.228" transform="translate(-92.435 -44.275)" fill="#020202"/>
    <path id="Trazado_206603" data-name="Trazado 206603" d="M134.79,58.181a1.258,1.258,0,0,1-1.222,1.225,1.292,1.292,0,0,1-1.261-1.283,1.251,1.251,0,0,1,1.319-1.2,1.214,1.214,0,0,1,1.163,1.26" transform="translate(-102.915 -44.275)" fill="#020202"/>
    <path id="Trazado_206604" data-name="Trazado 206604" d="M148.259,58.177a1.258,1.258,0,0,1-1.218,1.229,1.291,1.291,0,0,1-1.265-1.279,1.251,1.251,0,0,1,1.316-1.206,1.215,1.215,0,0,1,1.167,1.256" transform="translate(-113.392 -44.275)" fill="#020202"/>
    <path id="Trazado_206605" data-name="Trazado 206605" d="M107.847,40.788a1.252,1.252,0,0,1-1.25,1.277,1.3,1.3,0,0,1-1.232-1.231,1.248,1.248,0,0,1,1.269-1.252,1.2,1.2,0,0,1,1.213,1.207" transform="translate(-81.958 -30.788)" fill="#030303"/>
    <path id="Trazado_206606" data-name="Trazado 206606" d="M121.315,40.781a1.252,1.252,0,0,1-1.244,1.282,1.3,1.3,0,0,1-1.238-1.225A1.25,1.25,0,0,1,120.1,39.58a1.2,1.2,0,0,1,1.219,1.2" transform="translate(-92.433 -30.787)" fill="#030303"/>
    <path id="Trazado_206607" data-name="Trazado 206607" d="M134.786,40.8a1.252,1.252,0,0,1-1.257,1.27,1.3,1.3,0,0,1-1.225-1.237,1.248,1.248,0,0,1,1.276-1.245,1.2,1.2,0,0,1,1.207,1.213" transform="translate(-102.912 -30.789)" fill="#030303"/>
    <path id="Trazado_206608" data-name="Trazado 206608" d="M148.254,40.8A1.252,1.252,0,0,1,147,42.065a1.3,1.3,0,0,1-1.225-1.237,1.248,1.248,0,0,1,1.276-1.245,1.2,1.2,0,0,1,1.207,1.213" transform="translate(-113.388 -30.789)" fill="#030303"/>
    <path id="Trazado_206609" data-name="Trazado 206609" d="M51.672,306.187c-3.318,0-6.636-.01-9.954.008a1.3,1.3,0,0,1-1.479-1.03c-.178-.771.452-1.439,1.386-1.469,1.132-.036,2.265-.032,3.4-.045q3.017.019,6.033.037c.726,0,1.322.219,1.494,1.011a1.239,1.239,0,0,1-.878,1.488" transform="translate(-31.277 -236.195)" fill="#000001"/>
    <path id="Trazado_206610" data-name="Trazado 206610" d="M51.862,323.513c-3.428.018-6.855.049-10.282.046a1.237,1.237,0,0,1-1.338-1.271,1.28,1.28,0,0,1,1.41-1.21c1.131-.032,2.263-.038,3.394-.056,1.983.017,3.967.041,5.95.048.675,0,1.284.1,1.54.837a1.29,1.29,0,0,1-.673,1.6" transform="translate(-31.301 -249.708)" fill="#010101"/>
    <path id="Trazado_206611" data-name="Trazado 206611" d="M120.112,303.886a1.249,1.249,0,0,1,1.208,1.315,1.211,1.211,0,0,1-1.254,1.167,1.25,1.25,0,0,1-1.226-1.212,1.289,1.289,0,0,1,1.272-1.27" transform="translate(-92.439 -236.378)" fill="#020202"/>
    <path id="Trazado_206612" data-name="Trazado 206612" d="M134.791,305.107a1.209,1.209,0,0,1-1.163,1.256,1.245,1.245,0,0,1-1.318-1.2,1.289,1.289,0,0,1,1.262-1.28,1.251,1.251,0,0,1,1.22,1.223" transform="translate(-102.916 -236.376)" fill="#020202"/>
    <path id="Trazado_206613" data-name="Trazado 206613" d="M148.258,305.095a1.208,1.208,0,0,1-1.153,1.266,1.245,1.245,0,0,1-1.329-1.188,1.29,1.29,0,0,1,1.251-1.291,1.254,1.254,0,0,1,1.23,1.213" transform="translate(-113.392 -236.374)" fill="#020202"/>
    <path id="Trazado_206614" data-name="Trazado 206614" d="M107.851,305.136a1.208,1.208,0,0,1-1.188,1.232,1.246,1.246,0,0,1-1.294-1.226,1.289,1.289,0,0,1,1.288-1.253,1.246,1.246,0,0,1,1.194,1.247" transform="translate(-81.961 -236.379)" fill="#020202"/>
    <path id="Trazado_206615" data-name="Trazado 206615" d="M107.852,322.546a1.206,1.206,0,0,1-1.211,1.21,1.251,1.251,0,0,1-1.27-1.251,1.279,1.279,0,0,1,1.229-1.222,1.23,1.23,0,0,1,1.251,1.264" transform="translate(-81.963 -249.909)" fill="#020202"/>
    <path id="Trazado_206616" data-name="Trazado 206616" d="M121.319,322.557a1.207,1.207,0,0,1-1.3,1.2,1.25,1.25,0,0,1-1.18-1.256,1.279,1.279,0,0,1,1.237-1.214,1.228,1.228,0,0,1,1.244,1.271" transform="translate(-92.438 -249.912)" fill="#020202"/>
    <path id="Trazado_206617" data-name="Trazado 206617" d="M133.571,321.295a1.226,1.226,0,0,1,1.219,1.293,1.211,1.211,0,0,1-1.242,1.179,1.237,1.237,0,1,1,.023-2.473" transform="translate(-102.917 -249.919)" fill="#020202"/>
    <path id="Trazado_206618" data-name="Trazado 206618" d="M148.257,322.546a1.206,1.206,0,0,1-1.211,1.21,1.251,1.251,0,0,1-1.27-1.251,1.279,1.279,0,0,1,1.229-1.222,1.23,1.23,0,0,1,1.251,1.264" transform="translate(-113.392 -249.909)" fill="#020202"/>
    <path id="Trazado_206619" data-name="Trazado 206619" d="M229.039,59.4c-1.1-.011-2.21-.017-3.314-.034-.972-.016-1.517-.478-1.516-1.267s.54-1.226,1.532-1.228q4.891-.012,9.783-.012a1.212,1.212,0,0,1,1,1.472c-.139.8-.728,1.034-1.461,1.037q-3.011.013-6.023.033" transform="translate(-174.4 -44.224)"/>
    <path id="Trazado_206620" data-name="Trazado 206620" d="M229.039,42.117c-1.1-.012-2.209-.016-3.314-.04-.98-.021-1.517-.483-1.514-1.273s.52-1.22,1.531-1.221q4.974,0,9.949.011a1.245,1.245,0,0,1,.8,1.6c-.215.728-.832.88-1.512.883-1.98.008-3.961.024-5.942.037" transform="translate(-174.402 -30.79)"/>
    <path id="Trazado_206621" data-name="Trazado 206621" d="M290.533,56.923a1.249,1.249,0,0,1,1.275,1.247,1.29,1.29,0,0,1-1.221,1.237,1.258,1.258,0,0,1-1.261-1.266,1.22,1.22,0,0,1,1.208-1.218" transform="translate(-225.051 -44.278)" fill="#010202"/>
    <path id="Trazado_206622" data-name="Trazado 206622" d="M304.048,59.407a1.263,1.263,0,0,1-1.256-1.188,1.221,1.221,0,0,1,1.211-1.3,1.248,1.248,0,0,1,1.268,1.168,1.285,1.285,0,0,1-1.223,1.316" transform="translate(-235.526 -44.277)" fill="#010202"/>
    <path id="Trazado_206623" data-name="Trazado 206623" d="M318.745,58.195a1.286,1.286,0,0,1-1.329,1.209,1.259,1.259,0,0,1-1.153-1.288,1.223,1.223,0,0,1,1.315-1.191,1.25,1.25,0,0,1,1.166,1.27" transform="translate(-246.005 -44.277)" fill="#010202"/>
    <path id="Trazado_206624" data-name="Trazado 206624" d="M332.21,58.149a1.285,1.285,0,0,1-1.28,1.26,1.259,1.259,0,0,1-1.2-1.243,1.223,1.223,0,0,1,1.186-1.24,1.246,1.246,0,0,1,1.3,1.223" transform="translate(-256.478 -44.279)" fill="#010202"/>
    <path id="Trazado_206625" data-name="Trazado 206625" d="M290.524,39.6a1.24,1.24,0,0,1,1.283,1.231,1.3,1.3,0,0,1-1.212,1.246,1.253,1.253,0,0,1-1.27-1.256,1.211,1.211,0,0,1,1.2-1.222" transform="translate(-225.052 -30.802)" fill="#020202"/>
    <path id="Trazado_206626" data-name="Trazado 206626" d="M305.276,40.846a1.29,1.29,0,0,1-1.311,1.226,1.253,1.253,0,0,1-1.17-1.268,1.215,1.215,0,0,1,1.3-1.2,1.243,1.243,0,0,1,1.184,1.247" transform="translate(-235.528 -30.801)" fill="#020202"/>
    <path id="Trazado_206627" data-name="Trazado 206627" d="M330.978,42.077a1.26,1.26,0,0,1-1.246-1.282,1.213,1.213,0,0,1,1.221-1.2,1.243,1.243,0,0,1,1.259,1.173,1.3,1.3,0,0,1-1.234,1.308" transform="translate(-256.482 -30.8)" fill="#020202"/>
    <path id="Trazado_206628" data-name="Trazado 206628" d="M317.513,42.076a1.259,1.259,0,0,1-1.25-1.277,1.213,1.213,0,0,1,1.217-1.2,1.242,1.242,0,0,1,1.263,1.168,1.3,1.3,0,0,1-1.23,1.312" transform="translate(-246.005 -30.799)" fill="#020202"/>
    <path id="Trazado_206629" data-name="Trazado 206629" d="M318.01,268.09c-.637,0-1.275.027-1.911-.006a1.2,1.2,0,0,1-1.232-1.2,1.143,1.143,0,0,1,1.1-1.233,24.848,24.848,0,0,1,4.146.009,1.1,1.1,0,0,1,1.051,1.262A1.117,1.117,0,0,1,320,268.082c-.663.035-1.329.007-1.994.009" transform="translate(-244.919 -206.575)" fill="#010101"/>
    <path id="Trazado_206630" data-name="Trazado 206630" d="M268.554,264.3a8,8,0,0,1,0,.832,1.162,1.162,0,0,1-1.173,1.164,1.123,1.123,0,0,1-1.274-1.046,7.865,7.865,0,0,1,0-1.992,1.124,1.124,0,0,1,1.279-1.039,1.137,1.137,0,0,1,1.162,1.082,7.425,7.425,0,0,1,.008,1h0" transform="translate(-206.938 -203.966)"/>
    <path id="Trazado_206631" data-name="Trazado 206631" d="M253.7,264.282c0,.277.017.556,0,.832a1.135,1.135,0,0,1-1.152,1.174,1.118,1.118,0,0,1-1.284-1.032,7.4,7.4,0,0,1,.015-2.07,1.113,1.113,0,0,1,1.331-.969,1.125,1.125,0,0,1,1.089,1.149c.023.3,0,.61,0,.915" transform="translate(-195.392 -203.959)" fill="#000001"/>
    <path id="Trazado_206632" data-name="Trazado 206632" d="M238.464,266.135c-1.365.536-2.078.064-2.106-1.4q-.008-.414,0-.829c.03-1.445.779-1.935,2.112-1.385a3.816,3.816,0,0,1-.006,3.61" transform="translate(-183.848 -204.034)" fill="#000101"/>
    <path id="Trazado_206633" data-name="Trazado 206633" d="M286.055,266.02a1.251,1.251,0,0,1,1.236,1.2,1.289,1.289,0,0,1-1.264,1.274,1.234,1.234,0,0,1-1.213-1.3,1.191,1.191,0,0,1,1.241-1.169" transform="translate(-221.541 -206.923)" fill="#010101"/>
    <path id="Trazado_206634" data-name="Trazado 206634" d="M300.951,265.831a1.274,1.274,0,0,1,1.219,1.222,1.24,1.24,0,0,1-1.276,1.233,1.17,1.17,0,0,1-1.192-1.208,1.2,1.2,0,0,1,1.249-1.248" transform="translate(-233.123 -206.776)" fill="#010101"/>
    <path id="Trazado_206635" data-name="Trazado 206635" d="M134.067,268.218c-.634,0-1.269.031-1.9-.008a1.226,1.226,0,0,1-.025-2.451c1.321-.044,2.646-.046,3.967,0a1.154,1.154,0,0,1,1.156,1.253,1.192,1.192,0,0,1-1.213,1.205,1.642,1.642,0,0,1-.165.01h-1.819v-.012" transform="translate(-101.857 -206.694)" fill="#000101"/>
    <path id="Trazado_206636" data-name="Trazado 206636" d="M84.569,264.233c0,.3.021.608-.005.909a1.221,1.221,0,0,1-2.4.228,5.419,5.419,0,0,1-.019-2.217,1.222,1.222,0,0,1,2.416.17c.024.3,0,.606,0,.91" transform="translate(-63.818 -203.936)" fill="#000101"/>
    <path id="Trazado_206637" data-name="Trazado 206637" d="M67.334,264.127a6.921,6.921,0,0,1,.1-1.047,1.1,1.1,0,0,1,1.213-.9,1.069,1.069,0,0,1,1.146.975,12.066,12.066,0,0,1,.028,1.98,1.107,1.107,0,0,1-1.171,1.137A1.129,1.129,0,0,1,67.4,265.22c-.052-.324-.04-.659-.063-1.093" transform="translate(-52.376 -203.937)" fill="#000101"/>
    <path id="Trazado_206638" data-name="Trazado 206638" d="M54.71,266.112c-1.324.519-2.021.049-2.037-1.374q-.005-.458,0-.916c.017-1.419.722-1.888,2.042-1.361a3.653,3.653,0,0,1,0,3.651" transform="translate(-40.97 -203.992)" fill="#000101"/>
    <path id="Trazado_206639" data-name="Trazado 206639" d="M103.334,267.263a1.251,1.251,0,0,1-1.224,1.216,1.278,1.278,0,0,1-1.257-1.278,1.239,1.239,0,0,1,1.318-1.194,1.211,1.211,0,0,1,1.163,1.255" transform="translate(-78.448 -206.913)" fill="#000202"/>
    <path id="Trazado_206640" data-name="Trazado 206640" d="M117.019,268.29a1.216,1.216,0,0,1-1.276-1.23,1.233,1.233,0,0,1,1.2-1.235,1.257,1.257,0,0,1,1.285,1.238,1.238,1.238,0,0,1-1.206,1.226" transform="translate(-90.031 -206.772)" fill="#000202"/>
    <path id="Trazado_206641" data-name="Trazado 206641" d="M43.185,97.529c-1.27,0-2.54.01-3.809-.007-.979-.013-1.513-.478-1.511-1.268s.513-1.218,1.525-1.225c1.27-.009,2.54,0,3.81-.006a1.276,1.276,0,0,1,.979,1.253,1.36,1.36,0,0,1-.994,1.253" transform="translate(-29.453 -73.914)" fill="#000101"/>
    <path id="Trazado_206642" data-name="Trazado 206642" d="M118.642,93.38c0-.276-.018-.554,0-.829a1.142,1.142,0,0,1,1.14-1.179,1.111,1.111,0,0,1,1.292,1.009,7.829,7.829,0,0,1,0,2.063,1.129,1.129,0,0,1-1.288,1.026,1.145,1.145,0,0,1-1.147-1.179c-.018-.3,0-.608,0-.911" transform="translate(-92.28 -71.07)" fill="#010101"/>
    <path id="Trazado_206643" data-name="Trazado 206643" d="M106.2,93.428a6.659,6.659,0,0,1-.007.911,1.235,1.235,0,0,1-2.465-.049,16.108,16.108,0,0,1-.006-1.657A1.241,1.241,0,1,1,106.2,92.6c.019.275,0,.552,0,.829H106.2" transform="translate(-80.665 -71.056)" fill="#000101"/>
    <path id="Trazado_206644" data-name="Trazado 206644" d="M133.52,93.326a7.047,7.047,0,0,1,.007-.909,1.217,1.217,0,0,1,2.383-.144,5.67,5.67,0,0,1,.018,2.22,1.117,1.117,0,0,1-1.242.979,1.138,1.138,0,0,1-1.171-1.152c-.023-.33,0-.662,0-.993h.01" transform="translate(-103.845 -71.069)" fill="#010101"/>
    <path id="Trazado_206645" data-name="Trazado 206645" d="M150.722,93.459a8.445,8.445,0,0,1,0,.91,1.139,1.139,0,0,1-1.212,1.109,1.1,1.1,0,0,1-1.2-1.024,9.992,9.992,0,0,1,0-2.062,1.094,1.094,0,0,1,1.275-1.017,1.113,1.113,0,0,1,1.132,1.092,9.285,9.285,0,0,1,.007.992" transform="translate(-115.319 -71.074)" fill="#010101"/>
    <path id="Trazado_206646" data-name="Trazado 206646" d="M72.809,96.308a1.24,1.24,0,0,1-1.276,1.242,1.293,1.293,0,0,1-1.2-1.26,1.236,1.236,0,0,1,1.3-1.217,1.187,1.187,0,0,1,1.175,1.235" transform="translate(-54.711 -73.952)" fill="#010202"/>
    <path id="Trazado_206647" data-name="Trazado 206647" d="M87.653,96.145a1.215,1.215,0,0,1-1.262,1.244,1.233,1.233,0,1,1,.061-2.465,1.21,1.21,0,0,1,1.2,1.221" transform="translate(-66.252 -73.836)" fill="#010202"/>
    <path id="Trazado_206648" data-name="Trazado 206648" d="M134.1,227.181c.634,0,1.269-.019,1.9.006a1.238,1.238,0,0,1,.031,2.475c-1.294.038-2.591.035-3.886,0a1.244,1.244,0,0,1-1.222-1.223,1.267,1.267,0,0,1,1.273-1.257c.055,0,.11,0,.165,0H134.1" transform="translate(-101.841 -176.707)"/>
    <path id="Trazado_206649" data-name="Trazado 206649" d="M84.56,225.584c0,.3.018.609,0,.911a1.15,1.15,0,0,1-1.1,1.139,1.111,1.111,0,0,1-1.288-.915,5.105,5.105,0,0,1,0-2.3,1.1,1.1,0,0,1,1.3-.9,1.147,1.147,0,0,1,1.093,1.148c.021.3,0,.607,0,.911" transform="translate(-63.81 -173.861)" fill="#010101"/>
    <path id="Trazado_206650" data-name="Trazado 206650" d="M54.775,227.464c-1.2.595-2.015.112-2.038-1.211-.006-.36,0-.72,0-1.079.014-1.354.7-1.824,1.992-1.359a3.539,3.539,0,0,1,.046,3.649" transform="translate(-41.019 -173.959)" fill="#010101"/>
    <path id="Trazado_206651" data-name="Trazado 206651" d="M69.705,225.616a7.629,7.629,0,0,1-.007.99,1.123,1.123,0,0,1-1.113,1.029,1.1,1.1,0,0,1-1.24-.871,4.983,4.983,0,0,1,0-2.376,1.206,1.206,0,0,1,2.352.154,8.307,8.307,0,0,1,.008,1.073" transform="translate(-52.272 -173.86)" fill="#010101"/>
    <path id="Trazado_206652" data-name="Trazado 206652" d="M103.332,228.526a1.237,1.237,0,0,1-1.188,1.243,1.252,1.252,0,0,1-1.294-1.23,1.275,1.275,0,0,1,1.28-1.255,1.261,1.261,0,0,1,1.2,1.242" transform="translate(-78.446 -176.792)" fill="#010101"/>
    <path id="Trazado_206653" data-name="Trazado 206653" d="M117.019,229.7a1.243,1.243,0,1,1,1.2-1.324,1.254,1.254,0,0,1-1.2,1.324" transform="translate(-90.032 -176.739)" fill="#010101"/>
    <path id="Trazado_206654" data-name="Trazado 206654" d="M43.221,136c-1.3,0-2.6,0-3.894-.012-.913-.008-1.447-.475-1.442-1.232s.535-1.248,1.434-1.26c1.3-.017,2.6-.009,3.894-.012a1.364,1.364,0,0,1,.981,1.3A1.336,1.336,0,0,1,43.221,136" transform="translate(-29.469 -103.83)"/>
    <path id="Trazado_206655" data-name="Trazado 206655" d="M103.748,131.9c0-.276-.017-.554,0-.829a1.259,1.259,0,0,1,1.2-1.242A1.24,1.24,0,0,1,106.22,131a12.075,12.075,0,0,1,0,1.822,1.2,1.2,0,0,1-1.276,1.145,1.186,1.186,0,0,1-1.185-1.153,7.833,7.833,0,0,1-.006-.911h0" transform="translate(-80.694 -100.989)"/>
    <path id="Trazado_206656" data-name="Trazado 206656" d="M118.656,131.93c0-.3-.023-.61,0-.911a1.154,1.154,0,0,1,1.118-1.129,1.131,1.131,0,0,1,1.283.932,5.42,5.42,0,0,1,.013,2.219,1.126,1.126,0,0,1-1.338.957,1.148,1.148,0,0,1-1.081-1.158c-.022-.3,0-.607,0-.911h0" transform="translate(-92.288 -101.031)" fill="#010101"/>
    <path id="Trazado_206657" data-name="Trazado 206657" d="M133.529,131.961c0-.3-.016-.608,0-.91a1.218,1.218,0,0,1,2.414-.159,5.877,5.877,0,0,1,.019,2.058,1.225,1.225,0,0,1-2.439-.161c-.011-.275,0-.552,0-.828h.006" transform="translate(-103.858 -101.04)" fill="#010101"/>
    <path id="Trazado_206658" data-name="Trazado 206658" d="M150.544,132.007a7.255,7.255,0,0,1-.008.991,1.1,1.1,0,0,1-1.111,1.022,1.119,1.119,0,0,1-1.264-.943,5.645,5.645,0,0,1-.02-2.138,1.216,1.216,0,0,1,2.419.159c.016.3,0,.607,0,.91h-.018" transform="translate(-115.16 -101.045)" fill="#010101"/>
    <path id="Trazado_206659" data-name="Trazado 206659" d="M87.647,134.7a1.251,1.251,0,0,1-1.25,1.272,1.244,1.244,0,1,1,.034-2.488,1.237,1.237,0,0,1,1.216,1.216" transform="translate(-66.247 -103.831)" fill="#010101"/>
    <path id="Trazado_206660" data-name="Trazado 206660" d="M72.788,134.821a1.213,1.213,0,0,1-1.2,1.22,1.256,1.256,0,0,1-1.276-1.249,1.307,1.307,0,0,1,1.308-1.235,1.249,1.249,0,0,1,1.167,1.264" transform="translate(-54.693 -103.887)" fill="#010202"/>
    <path id="Trazado_206661" data-name="Trazado 206661" d="M259.659,146.383q-6.919,0-13.838-.006c-1.635,0-2.123-.464-2.124-2.11q0-2.823,0-5.647c0-1.763.391-2.174,2.167-2.28l12.875.029c1.718,0,2.224.507,2.225,2.226,0,1.97,0,3.94,0,5.911a1.722,1.722,0,0,1-1.306,1.877" transform="translate(-189.559 -106.052)"/>
    <path id="Trazado_206662" data-name="Trazado 206662" d="M221.642,94.02a9.63,9.63,0,0,1,.049-.989,1.217,1.217,0,0,1,2.383-.082,6.062,6.062,0,0,1,.017,2.139,1.217,1.217,0,0,1-2.411-.076,9.892,9.892,0,0,1-.006-.991h-.033" transform="translate(-172.404 -71.573)" fill="#010101"/>
    <path id="Trazado_206663" data-name="Trazado 206663" d="M268.473,306.39q-10.873-.011-21.746-.018c-.5,0-.9.034-.892-.7.008-.647.229-.79.825-.777,1.659.035,3.32.016,4.98.008.294,0,.614.092.872-.148a.613.613,0,0,1,.075-.235c.783-1.264.435-1.961-1.064-2.025-1.519-.065-3.041-.008-4.561-.024a1.507,1.507,0,0,1-1.107-.226c.028-1.287-.175-1.174,1.224-1.177,1.521,0,3.041,0,4.562-.005.294,0,.614.094.87-.152a.9.9,0,0,1,.172-.369c.688-1.062.33-1.807-.957-1.871-1.592-.079-3.187-.01-4.78-.031-.375,0-.78.069-1.086-.254,0-1.488,0-1.488,1.5-1.488,6.732,0,13.464.013,20.2-.018.747,0,.927.214.918.937-.036,2.859-.007,5.719,0,8.578Z" transform="translate(-191.223 -230.925)" fill="#b5c3ce"/>
    <path id="Trazado_206664" data-name="Trazado 206664" d="M229,303.651c2.009.013,4.018.015,6.027.042,1.054.014,1.635.648,1.463,1.534a1.348,1.348,0,0,1-.839.948c-3.344,0-6.689.013-10.033.008-1,0-1.61-.629-1.427-1.47a1.282,1.282,0,0,1,1.412-1.022c1.132-.018,2.264-.027,3.4-.04" transform="translate(-174.359 -236.195)"/>
    <path id="Trazado_206665" data-name="Trazado 206665" d="M229.032,321.021c2.008.017,4.016.026,6.024.054,1.068.015,1.643.623,1.471,1.513a1.279,1.279,0,0,1-.838.944c-3.316.012-6.632.03-9.947.031-1.011,0-1.529-.439-1.535-1.23s.518-1.239,1.514-1.262c1.1-.025,2.207-.034,3.311-.05" transform="translate(-174.399 -249.706)"/>
    <path id="Trazado_206666" data-name="Trazado 206666" d="M245.912,220.8c-.014-1.134-.014-1.135,1.094-1.135,6.864,0,13.728.012,20.592-.017.741,0,.952.2.922.934-.057,1.412-.034,2.829-.008,4.243.01.51-.169.669-.672.668q-10.628-.018-21.257,0c-1.008,0-.59-.689-.675-1.152a22.405,22.405,0,0,0,0-3.545" transform="translate(-191.268 -170.85)" fill="#e7ecf1"/>
    <path id="Trazado_206667" data-name="Trazado 206667" d="M238.545,223.881a3.79,3.79,0,0,1,0,3.545c-1.258.625-2.087.125-2.115-1.281q-.01-.494,0-.989c.028-1.408.861-1.909,2.118-1.275" transform="translate(-183.901 -173.935)" fill="#010101"/>
    <path id="Trazado_206668" data-name="Trazado 206668" d="M224.189,225.706a6.66,6.66,0,0,1-.1,1.034,1.118,1.118,0,0,1-1.212.912,1.091,1.091,0,0,1-1.145-.99,11.818,11.818,0,0,1-.03-1.985,1.127,1.127,0,0,1,1.174-1.148,1.148,1.148,0,0,1,1.255,1.066,10.561,10.561,0,0,1,.059,1.11" transform="translate(-172.429 -173.872)" fill="#010101"/>
    <path id="Trazado_206669" data-name="Trazado 206669" d="M37.873,225.549a7.359,7.359,0,0,1,.008-.993A1.148,1.148,0,0,1,39,223.519a1.067,1.067,0,0,1,1.219.779,4.6,4.6,0,0,1,.008,2.529,1.075,1.075,0,0,1-1.28.8,1.145,1.145,0,0,1-1.069-1.085c-.03-.329-.005-.662-.005-.993h0" transform="translate(-29.449 -173.858)" fill="#000101"/>
    <path id="Trazado_206670" data-name="Trazado 206670" d="M40.311,264.206a5.972,5.972,0,0,1-.07,1.069,1.153,1.153,0,0,1-1.327.973,1.115,1.115,0,0,1-1.1-1.126,16.5,16.5,0,0,1-.011-1.654,1.2,1.2,0,0,1,1.184-1.312,1.252,1.252,0,0,1,1.3,1.3c.017.247,0,.5,0,.745h.02" transform="translate(-29.395 -203.916)" fill="#000101"/>
    <path id="Trazado_206671" data-name="Trazado 206671" d="M224.319,264.329a9.575,9.575,0,0,1-.145,1.119,1.087,1.087,0,0,1-1.307.872,1.057,1.057,0,0,1-1.056-1.07c-.028-.608-.025-1.219-.007-1.828a1.066,1.066,0,0,1,1.061-1.149,1.105,1.105,0,0,1,1.328.951c.07.351.084.712.127,1.105" transform="translate(-172.519 -204.003)" fill="#010101"/>
    <path id="Trazado_206672" data-name="Trazado 206672" d="M271.122,147.718c2.63-.009,5.26-.01,7.89-.036.427,0,.578.112.569.558q-.041,1.955,0,3.912c.009.443-.143.567-.57.563-2.629-.027-5.259-.031-7.889-.043a.693.693,0,0,1-.222-.43,31.212,31.212,0,0,1,0-4.1.64.64,0,0,1,.224-.427" transform="translate(-210.666 -114.875)" fill="#01cffa"/>
    <path id="Trazado_206673" data-name="Trazado 206673" d="M258.716,147.717v4.955c-1.107.012-2.214.009-3.319.042-.4.012-.519-.126-.513-.52q.031-2,0-4c-.006-.4.112-.528.513-.517,1.106.032,2.214.026,3.32.036" transform="translate(-198.26 -114.873)" fill="#01bff9"/>
    <path id="Trazado_206674" data-name="Trazado 206674" d="M330.954,306.363a1.217,1.217,0,0,1-1.225-1.2,1.258,1.258,0,0,1,1.244-1.284,1.289,1.289,0,0,1,1.237,1.3,1.239,1.239,0,0,1-1.256,1.178" transform="translate(-256.479 -236.373)" fill="#020202"/>
    <path id="Trazado_206675" data-name="Trazado 206675" d="M317.472,303.888a1.284,1.284,0,0,1,1.268,1.271,1.242,1.242,0,0,1-1.226,1.21,1.22,1.22,0,0,1-1.255-1.169,1.254,1.254,0,0,1,1.213-1.312" transform="translate(-246.001 -236.379)" fill="#020202"/>
    <path id="Trazado_206676" data-name="Trazado 206676" d="M303.9,306.367a1.22,1.22,0,0,1-1.114-1.3,1.247,1.247,0,0,1,1.353-1.164,1.282,1.282,0,0,1,1.127,1.321,1.24,1.24,0,0,1-1.365,1.146" transform="translate(-235.522 -236.382)" fill="#020202"/>
    <path id="Trazado_206677" data-name="Trazado 206677" d="M291.8,305.157a1.239,1.239,0,0,1-1.306,1.21,1.216,1.216,0,0,1-1.177-1.246,1.255,1.255,0,0,1,1.211-1.232,1.284,1.284,0,0,1,1.271,1.268" transform="translate(-225.048 -236.38)" fill="#020202"/>
    <path id="Trazado_206678" data-name="Trazado 206678" d="M291.8,322.581a1.241,1.241,0,0,1-1.322,1.191,1.212,1.212,0,0,1-1.158-1.26,1.225,1.225,0,0,1,1.309-1.2,1.257,1.257,0,0,1,1.172,1.269" transform="translate(-225.05 -249.931)" fill="#020202"/>
    <path id="Trazado_206679" data-name="Trazado 206679" d="M304.068,323.772a1.211,1.211,0,0,1-1.273-1.23,1.224,1.224,0,0,1,1.194-1.235,1.261,1.261,0,0,1,1.287,1.239,1.243,1.243,0,0,1-1.208,1.227" transform="translate(-235.529 -249.928)" fill="#020202"/>
    <path id="Trazado_206680" data-name="Trazado 206680" d="M317.508,321.285a1.274,1.274,0,0,1,1.231,1.217,1.244,1.244,0,0,1-1.264,1.254,1.217,1.217,0,0,1-1.218-1.287,1.237,1.237,0,0,1,1.25-1.184" transform="translate(-246 -249.911)" fill="#020202"/>
    <path id="Trazado_206681" data-name="Trazado 206681" d="M330.96,321.292a1.266,1.266,0,0,1,1.249,1.28,1.249,1.249,0,0,1-1.244,1.191,1.219,1.219,0,0,1-1.237-1.27,1.231,1.231,0,0,1,1.232-1.2" transform="translate(-256.478 -249.917)" fill="#020202"/>
    <path id="Trazado_206682" data-name="Trazado 206682" d="M317.933,229.662c-.608,0-1.216.021-1.823-.007a1.255,1.255,0,0,1-1.287-1.243,1.236,1.236,0,0,1,1.281-1.239q1.9-.035,3.811,0a1.2,1.2,0,0,1,1.23,1.191,1.239,1.239,0,0,1-1.224,1.293c-.055.005-.11,0-.166,0h-1.823" transform="translate(-244.886 -176.693)"/>
    <path id="Trazado_206683" data-name="Trazado 206683" d="M268.579,225.6a6.04,6.04,0,0,1-.008.912,1.168,1.168,0,0,1-1.24,1.1,1.155,1.155,0,0,1-1.213-1.125,11.324,11.324,0,0,1-.008-1.825,1.23,1.23,0,0,1,1.25-1.186,1.244,1.244,0,0,1,1.222,1.215c.023.3,0,.609,0,.913h-.007" transform="translate(-206.968 -173.828)" fill="#010101"/>
    <path id="Trazado_206684" data-name="Trazado 206684" d="M253.71,225.559c0,.277.015.554,0,.83a1.234,1.234,0,0,1-2.466.059,10.825,10.825,0,0,1,0-1.824,1.234,1.234,0,0,1,2.464.105c.017.276,0,.553,0,.83" transform="translate(-195.399 -173.83)" fill="#010101"/>
    <path id="Trazado_206685" data-name="Trazado 206685" d="M287.285,228.5a1.26,1.26,0,0,1-1.181,1.264,1.226,1.226,0,0,1-1.3-1.21,1.249,1.249,0,0,1,1.164-1.276,1.283,1.283,0,0,1,1.318,1.222" transform="translate(-221.534 -176.79)" fill="#020202"/>
    <path id="Trazado_206686" data-name="Trazado 206686" d="M302.144,228.437a1.282,1.282,0,0,1-1.28,1.259,1.245,1.245,0,0,1-.024-2.488,1.269,1.269,0,0,1,1.3,1.229" transform="translate(-233.094 -176.732)" fill="#030303"/>
  </g>
</svg>
