<svg id="Grupo_140132" data-name="Grupo 140132" xmlns="http://www.w3.org/2000/svg" xmlns:xlink="http://www.w3.org/1999/xlink" width="85" height="84.779" viewBox="0 0 85 84.779">
  <defs>
    <clipPath id="clip-path">
      <rect id="Rectángulo_88929" data-name="Rectángulo 88929" width="85" height="84.779" fill="none"/>
    </clipPath>
  </defs>
  <g id="Grupo_140131" data-name="Grupo 140131" clip-path="url(#clip-path)">
    <path id="Trazado_207988" data-name="Trazado 207988" d="M144.75,14.131c-1.251,0-2.427.006-3.6,0a2.839,2.839,0,0,1-3.063-3.009q-.016-4.061,0-8.122A2.829,2.829,0,0,1,141.072.007q6.9-.015,13.8,0a2.831,2.831,0,0,1,3.024,3.046q.014,4.016,0,8.033a2.839,2.839,0,0,1-3.029,3.043c-1.032.009-2.065.029-3.1-.01-.488-.019-.542.155-.421.551a6.6,6.6,0,0,1,.255,1.024c.124.91.434,1.549,1.543,1.268.351-.089.491.058.516.461.148,2.359.162,2.358-2.165,2.358-2.83,0-5.661-.013-8.491.012-.515,0-.787-.081-.687-.659a3.763,3.763,0,0,0,.006-.617c0-.471-.156-1.036.051-1.387.239-.406.856-.133,1.305-.163a.412.412,0,0,0,.457-.389c.175-.8.392-1.586.609-2.447" transform="translate(-105.49 0)"/>
    <path id="Trazado_207989" data-name="Trazado 207989" d="M144.746,289.488c-1.308,0-2.486.009-3.663,0a2.835,2.835,0,0,1-3-2.98q-.018-4.1,0-8.21a2.82,2.82,0,0,1,2.959-2.931q6.943-.017,13.886,0a2.814,2.814,0,0,1,2.961,2.929q.025,4.149,0,8.3a2.816,2.816,0,0,1-2.909,2.894c-.619.012-1.238,0-1.857,0h-1.886c.219.89.411,1.727.634,2.557.143.529.612.274.889.246.739-.075.931.166.909.906-.057,1.942-.017,1.943-1.967,1.943-2.889,0-5.779-.017-8.668.014-.577.006-.8-.144-.714-.722a4.047,4.047,0,0,0,.005-.617c0-1.375,0-1.395,1.329-1.487.344-.024.435-.155.5-.449.173-.771.378-1.535.593-2.389" transform="translate(-105.486 -210.374)"/>
    <path id="Trazado_207990" data-name="Trazado 207990" d="M13.3,229.632c.121.538.254.99.319,1.453.135.966.468,1.651,1.642,1.377.336-.078.494.087.445.435a.477.477,0,0,0,0,.088c.114,2.3.114,2.3-2.211,2.3-2.8,0-5.6-.017-8.4.014-.574.006-.807-.14-.716-.72a4.016,4.016,0,0,0,.005-.617c0-1.378,0-1.4,1.328-1.489.343-.024.435-.152.5-.448.172-.771.378-1.535.593-2.391-1.233,0-2.4.005-3.574,0a2.853,2.853,0,0,1-3.093-3.069q-.012-4.016,0-8.033a2.841,2.841,0,0,1,3.048-3.021q6.855-.011,13.709,0a2.838,2.838,0,0,1,3.053,3.017q.017,4.061,0,8.121a2.83,2.83,0,0,1-3,2.984c-1.178.011-2.355,0-3.65,0" transform="translate(-0.1 -164.645)"/>
    <path id="Trazado_207991" data-name="Trazado 207991" d="M282.7,85.966c-1.319,0-2.5.009-3.675,0a2.835,2.835,0,0,1-2.993-2.989q-.018-4.061,0-8.121a2.841,2.841,0,0,1,3.058-3.012q6.855-.011,13.709,0a2.837,2.837,0,0,1,3.043,3.027q.016,4.061,0,8.121a2.828,2.828,0,0,1-3.008,2.974c-1.15.011-2.3.006-3.449.009a1.027,1.027,0,0,0-.182.063c.2.794.415,1.6.594,2.41.138.624.63.352.922.321.754-.079.92.19.9.914-.054,1.934-.017,1.935-1.974,1.935-2.889,0-5.779-.018-8.668.015-.593.007-.789-.168-.706-.731a5.216,5.216,0,0,0,.006-.617c.013-.466-.127-1.033.09-1.37s.816-.1,1.246-.115c.27-.013.409-.065.474-.367.172-.8.393-1.592.615-2.466" transform="translate(-210.883 -54.883)"/>
    <path id="Trazado_207992" data-name="Trazado 207992" d="M144.752,151.808c-1.272,0-2.477.01-3.681,0a2.834,2.834,0,0,1-2.987-2.995q-.017-4.061,0-8.122a2.825,2.825,0,0,1,2.976-3q6.943-.016,13.886,0a2.814,2.814,0,0,1,2.946,2.943q.024,4.1,0,8.21a2.825,2.825,0,0,1-3.014,2.968c-1.032.01-2.064.025-3.1-.009-.457-.015-.573.112-.437.537a5.8,5.8,0,0,1,.253,1.024c.116.914.426,1.551,1.535,1.28.438-.107.513.138.527.538.079,2.283.09,2.282-2.149,2.282-2.8,0-5.6-.028-8.4.02-.693.012-.889-.2-.787-.831a4.246,4.246,0,0,0,.005-.529c.014-.466-.124-1.034.095-1.367s.817-.095,1.247-.111c.276-.01.4-.077.468-.373.172-.8.393-1.591.614-2.46" transform="translate(-105.49 -105.186)"/>
    <path id="Trazado_207993" data-name="Trazado 207993" d="M294.429,223.949c1.413.071,1.331.077,1.429,1.527.211,3.109-1.113,4.4-4.152,4.162-.817-.063-1.644-.009-2.52-.009a13.535,13.535,0,0,1,.342,1.519c.106.99.5,1.561,1.6,1.31.417-.094.454.159.471.506.111,2.316.119,2.316-2.2,2.316-2.8,0-5.6-.013-8.4.012-.542,0-.836-.087-.734-.7a4.339,4.339,0,0,0,.006-.705c0-1.321,0-1.32,1.31-1.432.143-.012.391-.02.408-.08.233-.848.47-1.7.625-2.563.056-.315-.306-.169-.47-.172-1.061-.016-2.123,0-3.184-.011a2.83,2.83,0,0,1-2.931-2.962q-.02-4.1,0-8.21a2.818,2.818,0,0,1,2.942-2.948q6.944-.019,13.886,0a2.835,2.835,0,0,1,2.983,3c.005.383,0,.765,0,1.148,0,1.457,0,1.457-1.413,1.528-1.149.468-1.662.189-1.684-.988-.03-1.647.052-1.585-1.712-1.586q-5.344,0-10.687,0c-1.16,0-1.2.047-1.208,1.179q-.009,2.821,0,5.642c0,1.022.069,1.088,1.119,1.09q5.7.01,11.393,0c.982,0,1.045-.081,1.077-1.053.006-.176,0-.353.009-.529.063-1.176.542-1.456,1.691-.988" transform="translate(-210.88 -164.64)"/>
    <path id="Trazado_207994" data-name="Trazado 207994" d="M1.448,76.092c-1.515-.076-1.515-.076-1.407-1.616A2.8,2.8,0,0,1,2.754,71.84q7.208-.042,14.417,0a2.72,2.72,0,0,1,2.664,2.671q.062,4.369,0,8.739a2.766,2.766,0,0,1-2.741,2.691q-1.679.051-3.361,0c-.469-.015-.561.129-.431.543a6.034,6.034,0,0,1,.254,1.024c.117.915.432,1.546,1.538,1.276.341-.083.5.04.525.453.159,2.367.173,2.366-2.157,2.366-2.772,0-5.544-.034-8.314.022-.774.016-.989-.227-.87-.926a3.345,3.345,0,0,0,0-.441c.016-.465-.122-1.035.1-1.365S5.2,88.8,5.63,88.786c.281-.008.4-.089.464-.379.174-.8.393-1.59.612-2.454-1.275,0-2.48.01-3.686,0a2.841,2.841,0,0,1-2.982-3c-.009-1.059.052-2.122-.02-3.177-.05-.739.167-1.02.9-.889a2.356,2.356,0,0,0,.527-.023c1.15-.468,1.637-.188,1.689.988.033.734.009,1.469.015,2.2,0,.554.263.791.812.791q5.963.007,11.926,0c.588,0,.854-.238.852-.84q-.012-3.13,0-6.26c0-.619-.3-.815-.874-.815-3.946,0-7.891,0-11.837.007-.39,0-.721.042-.9.522-.337.931-.693,1.037-1.686.632" transform="translate(0 -54.869)"/>
    <path id="Trazado_207995" data-name="Trazado 207995" d="M303.562,233.059c-1.418.072-1.418.072-1.418,1.546,0,1.308,0,1.308-1.278,1.308-4.035,0-8.069-.013-12.1.014-.608,0-.8-.138-.788-.769.04-2.321.028-4.644.007-6.966,0-.519.054-.776.693-.771q6.4.046,12.81,0c.572,0,.731.188.664.705a4.836,4.836,0,0,0,0,.617c0,1.474,0,1.474,1.418,1.545v2.769" transform="translate(-220.013 -173.751)" fill="#aab2d3"/>
    <path id="Trazado_207996" data-name="Trazado 207996" d="M6.136,85.217a4.008,4.008,0,0,1,.7-.022c.591.083.812-.165.713-.729-.11-.627.22-.7.75-.7q6.317.026,12.634,0c.609,0,.8.139.788.77-.039,2.321-.028,4.644-.006,6.966,0,.521-.056.775-.695.77q-6.405-.046-12.811,0c-.575,0-.691-.192-.669-.707.038-.88-.041-1.767.026-2.644.056-.73-.16-1.035-.907-.907a2.44,2.44,0,0,1-.527-.023V85.217" transform="translate(-4.688 -63.994)" fill="#aab2d3"/>
    <path id="Trazado_207997" data-name="Trazado 207997" d="M232.97,25.186c.153.087.309.169.458.262,3.41,2.127,6.813,4.264,10.234,6.372.471.29.513.5.186.927-.425.555-.693,1.514-1.2,1.643-.477.122-1.178-.594-1.769-.961-2.965-1.842-5.916-3.707-8.9-5.523-.542-.33-.595-.569-.218-1.044a14.4,14.4,0,0,0,.853-1.331c.089-.142.14-.32.35-.344" transform="translate(-176.885 -19.242)"/>
    <path id="Trazado_207998" data-name="Trazado 207998" d="M77.064,306.588c.156.091.311.176.459.269,3.384,2.113,6.759,4.24,10.16,6.326.514.316.535.546.2.982-.426.554-.611,1.532-1.2,1.644-.489.094-1.135-.609-1.707-.965-2.988-1.861-5.966-3.738-8.97-5.573-.508-.31-.542-.536-.2-.981s.6-.937.893-1.41c.087-.141.147-.313.365-.293" transform="translate(-57.747 -234.233)"/>
    <path id="Trazado_207999" data-name="Trazado 207999" d="M242.662,306.363c.03-.022.093.079.13.137.444.689.894,1.376,1.311,2.081.126.212-.13.286-.264.37q-5.3,3.312-10.6,6.621c-.239.15-.413.185-.556-.1-.027-.052-.057-.1-.088-.152-.384-.623-1.125-1.29-1.056-1.858.072-.592,1.095-.841,1.709-1.227q4.4-2.763,8.807-5.5c.174-.108.349-.215.606-.373" transform="translate(-176.895 -234.061)"/>
    <path id="Trazado_208000" data-name="Trazado 208000" d="M77.185,34.817c-.094-.107-.188-.2-.272-.31-1.51-1.907-1.508-1.9.538-3.179,2.938-1.83,5.882-3.651,8.8-5.507.507-.322.808-.449,1.115.21.281.6,1.025,1.237.915,1.707s-1.006.788-1.574,1.143q-4.439,2.777-8.888,5.539l-.637.4" transform="translate(-57.943 -19.525)"/>
    <path id="Trazado_208001" data-name="Trazado 208001" d="M103.662,219.248c.022.245-.176.3-.31.391-2.561,1.707-5.129,3.4-7.683,5.121-.33.222-.469.152-.691-.138-1.423-1.857-1.43-1.852.5-3.137,2.05-1.365,4.112-2.714,6.143-4.107.457-.313.676-.268.942.192.337.581.735,1.127,1.1,1.678" transform="translate(-71.788 -165.925)"/>
    <path id="Trazado_208002" data-name="Trazado 208002" d="M235.191,222.78c-.284.427-.575.868-.868,1.307-.635.953-.636.952-1.6.313-2.328-1.547-4.649-3.1-6.991-4.63-.45-.293-.536-.5-.177-.939.447-.54.725-1.44,1.262-1.614.411-.133,1.117.608,1.68.979q3.092,2.042,6.174,4.1c.188.125.427.206.519.483" transform="translate(-172.156 -165.943)"/>
    <path id="Trazado_208003" data-name="Trazado 208003" d="M101.679,127.819c-.2.259-.37.493-.552.719-1.188,1.472-1.192,1.475-2.657.31-1.723-1.371-3.43-2.763-5.17-4.112-.378-.293-.363-.464-.1-.814,1.365-1.793,1.359-1.8,3.1-.419q2.448,1.947,4.885,3.906c.155.124.305.254.492.411" transform="translate(-71.059 -93.602)"/>
    <path id="Trazado_208004" data-name="Trazado 208004" d="M232.69,129.358c-.168-.194-.324-.36-.464-.54-.413-.531-1.136-1.067-1.138-1.6s.894-.885,1.407-1.3c1.641-1.332,3.309-2.633,4.946-3.969.38-.31.62-.442.947.069.377.589,1.178,1.122,1.177,1.678s-.934.924-1.47,1.358c-1.619,1.313-3.255,2.605-4.885,3.9-.157.126-.318.246-.52.4" transform="translate(-176.553 -92.958)"/>
    <path id="Trazado_208005" data-name="Trazado 208005" d="M38.932,171.827c0,1.206-.021,2.413.01,3.618.012.459-.119.581-.584.59-2.258.047-2.257.063-2.257-2.175,0-1.912.014-3.825-.011-5.737-.006-.458.119-.581.584-.59,2.258-.047,2.258-.063,2.258,2.175v2.118" transform="translate(-27.573 -127.987)"/>
    <path id="Trazado_208006" data-name="Trazado 208006" d="M314.825,171.893c0,1.206-.018,2.413.009,3.618.01.424-.118.528-.54.544-2.3.087-2.3.1-2.3-2.22,0-1.883.017-3.766-.012-5.648-.008-.5.132-.627.631-.633,2.212-.025,2.212-.043,2.212,2.133v2.206" transform="translate(-238.356 -128.008)"/>
    <path id="Trazado_208007" data-name="Trazado 208007" d="M176.88,99.287c0,1-.017,2,.008,3,.01.384-.107.48-.493.5-2.347.126-2.346.139-2.346-2.174,0-1.441.018-2.883-.011-4.324-.009-.459.119-.581.584-.59,2.258-.047,2.258-.063,2.258,2.175v1.412" transform="translate(-132.966 -73.106)"/>
    <path id="Trazado_208008" data-name="Trazado 208008" d="M174.039,236.94c0-.971.031-1.943-.012-2.912-.023-.521.166-.614.645-.619,2.2-.022,2.2-.038,2.2,2.145,0,1.412-.017,2.824.01,4.236.009.488-.042.712-.643.713-2.2,0-2.2.031-2.2-2.152V236.94" transform="translate(-132.956 -178.323)"/>
    <path id="Trazado_208009" data-name="Trazado 208009" d="M157.109,11.942c2.122,0,4.245.021,6.367-.014.585-.01.738.165.73.737-.031,2.353-.026,4.707,0,7.06.006.515-.1.71-.67.707q-6.411-.038-12.822,0c-.552,0-.692-.152-.686-.692.029-2.353.038-4.707,0-7.06-.012-.659.228-.759.809-.75,2.093.032,4.185.013,6.278.013" transform="translate(-114.617 -9.113)" fill="#aab2d3"/>
    <path id="Trazado_208010" data-name="Trazado 208010" d="M175.8,62.67c.209-.821.4-1.6.608-2.382.047-.18.016-.434.335-.4a.472.472,0,0,1,.439.362c.211.791.4,1.586.613,2.423Z" transform="translate(-134.311 -45.75)" fill="#d2d2d0"/>
    <path id="Trazado_208011" data-name="Trazado 208011" d="M157.1,295.787c-2.122,0-4.245-.017-6.367.012-.535.008-.7-.125-.7-.681.032-2.382.024-4.766,0-7.148,0-.464.076-.672.614-.67q6.455.031,12.91,0c.493,0,.655.125.65.635q-.038,3.618,0,7.237c.006.523-.185.628-.661.623-2.152-.021-4.3-.009-6.455-.009" transform="translate(-114.628 -219.499)" fill="#aab2d3"/>
    <path id="Trazado_208012" data-name="Trazado 208012" d="M178.3,338.087c-1.987.182-1.988.181-1.491-1.735.095-.365-.015-.931.447-1,.679-.107.507.611.593.941a5.073,5.073,0,0,1,.452,1.8" transform="translate(-134.874 -256.2)" fill="#d2d2d0"/>
    <path id="Trazado_208013" data-name="Trazado 208013" d="M19.207,227.45c2.122,0,4.245.016,6.367-.012.526-.007.71.111.7.676q-.049,3.574,0,7.148c.008.566-.178.677-.7.675q-6.411-.029-12.822,0c-.486,0-.661-.111-.656-.629q.04-3.618,0-7.237c-.006-.519.17-.635.656-.63,2.152.023,4.3.01,6.455.01" transform="translate(-9.241 -173.764)" fill="#aab2d3"/>
    <path id="Trazado_208014" data-name="Trazado 208014" d="M37.875,278.172c.2-.812.392-1.591.6-2.366.046-.172.006-.441.324-.417.271.021.487.191.457.427-.041.321.2.531.206.819.02.527.653,1.2.264,1.473-.405.286-1.171.064-1.848.064" transform="translate(-28.937 -210.398)" fill="#d2d2d0"/>
    <path id="Trazado_208015" data-name="Trazado 208015" d="M294.99,92.254c-2.093,0-4.186-.023-6.278.014-.6.011-.729-.185-.722-.745q.043-3.53,0-7.06c-.006-.527.116-.7.678-.7q6.411.037,12.822,0c.565,0,.683.174.677.7q-.04,3.53,0,7.06c.007.561-.128.754-.724.744-2.151-.036-4.3-.014-6.455-.014" transform="translate(-220.025 -63.997)" fill="#aab2d3"/>
    <path id="Trazado_208016" data-name="Trazado 208016" d="M313.772,134.505c.2-.812.392-1.591.6-2.366.046-.172.006-.441.324-.417.271.021.487.191.457.427-.041.321.2.531.206.819.02.527.653,1.2.264,1.473-.4.286-1.171.064-1.848.064" transform="translate(-239.724 -100.635)" fill="#d2d2d0"/>
    <path id="Trazado_208017" data-name="Trazado 208017" d="M157.16,149.637c2.093,0,4.186.013,6.278-.009.522-.006.784.056.772.694-.041,2.382-.028,4.766-.006,7.149,0,.485-.112.657-.631.654q-6.455-.03-12.91,0c-.515,0-.638-.163-.634-.651.022-2.383.034-4.766-.006-7.148-.011-.633.243-.7.77-.7,2.122.024,4.244.01,6.367.01" transform="translate(-114.619 -114.316)" fill="#aab2d3"/>
    <path id="Trazado_208018" data-name="Trazado 208018" d="M177.821,200.351h-1.983c.2-.814.4-1.6.6-2.392.047-.183.02-.433.339-.4a.476.476,0,0,1,.435.368c.208.791.4,1.587.608,2.421" transform="translate(-134.341 -150.936)" fill="#d2d2d0"/>
    <path id="Trazado_208019" data-name="Trazado 208019" d="M313.772,278.172c.2-.812.392-1.591.6-2.366.046-.172.006-.441.324-.417.271.021.487.191.457.427-.041.321.2.531.206.819.02.527.653,1.2.264,1.473-.4.286-1.171.064-1.848.064" transform="translate(-239.724 -210.398)" fill="#d2d2d0"/>
    <path id="Trazado_208020" data-name="Trazado 208020" d="M37.884,134.5c.2-.806.386-1.585.592-2.358.045-.17,0-.442.32-.422.272.017.486.184.463.422-.032.317.195.533.2.818.018.531.657,1.2.273,1.476-.4.287-1.17.064-1.853.064" transform="translate(-28.944 -100.637)" fill="#d2d2d0"/>
  </g>
</svg>
