<svg xmlns="http://www.w3.org/2000/svg" width="68.646" height="80" viewBox="0 0 68.646 80">
  <g id="gerente" transform="translate(-36.339 -0.001)">
    <g id="Layer_2_00000117640412861684638250000012643185509435069362_" transform="translate(36.339 0.001)">
      <g id="Layer_1-2_00000113318264787221426470000009555253507275741877_" transform="translate(0 0)">
        <path id="manager_00000093871218133722333200000003200289818060539292_" d="M97.165,51.272a57.046,57.046,0,0,0-14.692-4.684,10.184,10.184,0,0,1-2.653-5,21.954,21.954,0,0,0,7.269-11.14c4.9-.489,5.274-10.894,1.071-11.85-.021-.921-.1-1.871-.182-2.756C86.857,5.341,81.041.011,70.647.011c-11.479-.325-17.41,7.405-17.5,18.566-4.217.957-3.842,11.365,1.071,11.85a21.944,21.944,0,0,0,7.269,11.14,10.271,10.271,0,0,1-2.642,5,57.774,57.774,0,0,0-14.682,4.692c-3.97,1.928-7.83,4.3-7.83,10.226V70.27a1.189,1.189,0,0,0,.418.91c.375.357,9.819,8.258,31.534,8.787,1.553.046,3.213.043,4.767,0,21.748-.546,31.106-8.433,31.506-8.787a1.189,1.189,0,0,0,.421-.91V61.483c0-5.931-3.863-8.3-7.819-10.212ZM77.685,77.3c-.418.036-.868.054-1.293.079l-2.26-13.625L76.3,61.137c.621.539,1.532,1.585,2.421.928a23.923,23.923,0,0,0,6.952-8.819,29.947,29.947,0,0,1-1.193,10.979,57.157,57.157,0,0,1-6.8,13.071Zm-7.027.278c-1.132,0-2.228-.021-3.3-.061l2.31-13.925c.357-.757-2.41-3.374-2.831-4.063l3.813-3.32,3.82,3.328c-.453.714-3.171,3.281-2.828,4.056l2.31,13.925C72.886,77.554,71.793,77.575,70.658,77.575ZM57.315,65.732A32.674,32.674,0,0,1,55.684,53.35a23.88,23.88,0,0,0,6.9,8.715c.893.664,1.81-.4,2.428-.939l2.182,2.624L64.927,77.375c-.411-.025-.843-.043-1.243-.075A53.7,53.7,0,0,1,57.315,65.732ZM82.666,49.09c.693.125,1.378.268,2.064.421A26.361,26.361,0,0,1,78.1,59.477c-.739-.657-4.17-3.656-5-4.367,3.1-1.05,8.183-3.156,9.558-6.02h.011ZM64.356,58.484l-1.139.989a26.331,26.331,0,0,1-6.627-9.965c.686-.168,1.378-.3,2.071-.432,1.371,2.856,6.463,4.981,9.569,6.031ZM70.647,2.446c8.8,0,13.539,4.013,14.76,12.539a17.335,17.335,0,0,1-9.847-1.95,19.723,19.723,0,0,0-19.416.425C57.7,5.984,62.4,2.446,70.647,2.446ZM56.258,28.781a1.26,1.26,0,0,0-1.825-.757c-2.142-.328-2.3-6.809-.614-7.1,2.464.6,1.553-2.763,1.853-4.17A17.1,17.1,0,0,1,74.45,15.192a20.44,20.44,0,0,0,11.2,2.2c.2,1.243-.446,3.988,1.664,3.57.736-.143,1.468,1.428,1.318,3.681-.289,1.932-.714,3.031-1.785,3.385a1.264,1.264,0,0,0-1.828.757c-4.409,18.031-24.333,18-28.764,0ZM63.606,43.01a14.2,14.2,0,0,0,14.078,0,12.36,12.36,0,0,0,2.828,5.031c-.714,1.817-5.891,4.138-9.854,5.3-3.97-1.16-9.144-3.492-9.851-5.313A12.385,12.385,0,0,0,63.606,43.01ZM38.763,61.483c-.246-7.012,8.98-9.115,14.714-11.161a37.369,37.369,0,0,0,6.905,26.639,47.085,47.085,0,0,1-21.619-7.287Zm63.793,8.191A47.059,47.059,0,0,1,81,76.954a37.354,37.354,0,0,0,6.9-26.621c5.713,2.053,14.9,4.149,14.639,11.147Z" transform="translate(-36.339 -0.001)" fill="#0d2380"/>
      </g>
    </g>
  </g>
</svg>
