<svg xmlns="http://www.w3.org/2000/svg" width="98.437" height="80" viewBox="0 0 98.437 80">
  <g id="revision" transform="translate(0 -47.966)">
    <path id="Trazado_212125" data-name="Trazado 212125" d="M25.749,56.726l-7.578-1.1-3.389-6.867a1.451,1.451,0,0,0-2.585,0L8.807,55.625l-7.578,1.1a1.451,1.451,0,0,0-.8,2.459L5.914,64.53,4.619,72.078A1.451,1.451,0,0,0,6.71,73.6l6.778-3.564L20.267,73.6a1.451,1.451,0,0,0,2.091-1.519L21.064,64.53l5.484-5.345A1.451,1.451,0,0,0,25.749,56.726Zm-7.24,6.269a1.442,1.442,0,0,0-.415,1.276l.929,5.416L14.16,67.129a1.442,1.442,0,0,0-1.342,0L7.954,69.687l.929-5.416a1.442,1.442,0,0,0-.415-1.276L4.534,59.159l5.438-.79a1.441,1.441,0,0,0,1.085-.789l2.432-4.928,2.432,4.928a1.441,1.441,0,0,0,1.085.789l5.438.79Z" transform="translate(0)" fill="#0d2380"/>
    <path id="Trazado_212126" data-name="Trazado 212126" d="M25.749,197.726l-7.578-1.1-3.389-6.867a1.451,1.451,0,0,0-2.585,0l-3.389,6.867-7.578,1.1a1.451,1.451,0,0,0-.8,2.459l5.484,5.345-1.295,7.548A1.451,1.451,0,0,0,6.71,214.6l6.778-3.564,6.778,3.564a1.451,1.451,0,0,0,2.091-1.519l-1.294-7.548,5.484-5.345A1.451,1.451,0,0,0,25.749,197.726Zm-7.24,6.269a1.442,1.442,0,0,0-.415,1.276l.929,5.416-4.864-2.557a1.442,1.442,0,0,0-1.342,0l-4.864,2.557.929-5.416a1.442,1.442,0,0,0-.415-1.276l-3.935-3.836,5.438-.79a1.441,1.441,0,0,0,1.085-.789l2.432-4.928,2.432,4.928a1.441,1.441,0,0,0,1.085.789l5.438.79Z" transform="translate(0 -113.901)" fill="#0d2380"/>
    <path id="Trazado_212127" data-name="Trazado 212127" d="M25.749,338.726l-7.578-1.1-3.389-6.867a1.451,1.451,0,0,0-2.585,0l-3.389,6.867-7.578,1.1a1.451,1.451,0,0,0-.8,2.459l5.484,5.345-1.295,7.548A1.451,1.451,0,0,0,6.71,355.6l6.778-3.564,6.778,3.564a1.451,1.451,0,0,0,2.091-1.519l-1.294-7.548,5.484-5.345A1.451,1.451,0,0,0,25.749,338.726Zm-7.24,6.269a1.442,1.442,0,0,0-.415,1.276l.929,5.416-4.864-2.557a1.442,1.442,0,0,0-1.342,0l-4.864,2.557.929-5.416a1.442,1.442,0,0,0-.415-1.276l-3.935-3.836,5.438-.79a1.441,1.441,0,0,0,1.085-.789l2.432-4.928,2.432,4.928a1.441,1.441,0,0,0,1.085.789l5.438.79Z" transform="translate(0 -227.802)" fill="#0d2380"/>
    <path id="Trazado_212128" data-name="Trazado 212128" d="M238.2,74.342h-4.152a1.441,1.441,0,1,0,0,2.883H238.2a.481.481,0,0,1,.48.48v8.841a.481.481,0,0,1-.48.48H180.545a.481.481,0,0,1-.48-.48V77.705a.481.481,0,0,1,.48-.48h46.778a1.441,1.441,0,1,0,0-2.883H180.545a3.367,3.367,0,0,0-3.363,3.363v8.841a3.367,3.367,0,0,0,3.363,3.363H238.2a3.367,3.367,0,0,0,3.363-3.363V77.705A3.367,3.367,0,0,0,238.2,74.342Z" transform="translate(-143.129 -21.307)" fill="#0d2380"/>
    <path id="Trazado_212129" data-name="Trazado 212129" d="M228.517,107.342a1.441,1.441,0,0,0,0,2.883h40.36a1.441,1.441,0,0,0,0-2.883Z" transform="translate(-183.434 -47.964)" fill="#0d2380"/>
    <path id="Trazado_212130" data-name="Trazado 212130" d="M222.828,215.342H180.545a3.367,3.367,0,0,0-3.363,3.363v8.841a3.367,3.367,0,0,0,3.363,3.363H213.1a1.441,1.441,0,0,0,0-2.883H180.545a.481.481,0,0,1-.48-.48v-8.841a.481.481,0,0,1,.48-.48h42.282a.481.481,0,0,1,.48.48v8.841a.481.481,0,0,1-.48.48h-3a1.441,1.441,0,0,0,0,2.883h3a3.367,3.367,0,0,0,3.363-3.363v-8.841A3.367,3.367,0,0,0,222.828,215.342Z" transform="translate(-143.129 -135.208)" fill="#0d2380"/>
    <path id="Trazado_212131" data-name="Trazado 212131" d="M255.424,248.342H228.517a1.441,1.441,0,0,0,0,2.883h26.907a1.441,1.441,0,1,0,0-2.883Z" transform="translate(-183.434 -161.865)" fill="#0d2380"/>
    <path id="Trazado_212132" data-name="Trazado 212132" d="M203.608,356.342H190.231a1.441,1.441,0,0,0,0,2.883h13.378a.481.481,0,0,1,.48.48v8.841a.481.481,0,0,1-.48.48H180.545a.481.481,0,0,1-.48-.48v-8.841a.481.481,0,0,1,.48-.48H183.5a1.441,1.441,0,1,0,0-2.883h-2.959a3.367,3.367,0,0,0-3.363,3.363v8.841a3.367,3.367,0,0,0,3.363,3.363h23.063a3.367,3.367,0,0,0,3.363-3.363v-8.841A3.367,3.367,0,0,0,203.608,356.342Z" transform="translate(-143.129 -249.108)" fill="#0d2380"/>
    <path id="Trazado_212133" data-name="Trazado 212133" d="M233.233,392.225a1.441,1.441,0,0,0,0-2.883h-9.61a1.441,1.441,0,0,0,0,2.883Z" transform="translate(-179.48 -275.766)" fill="#0d2380"/>
  </g>
</svg>
