<svg xmlns="http://www.w3.org/2000/svg" width="74.531" height="80" viewBox="0 0 74.531 80">
  <g id="Grupo_141286" data-name="Grupo 141286" transform="translate(-1679.333 5055.001)">
    <g id="g295" transform="translate(1679.333 -5055.001)">
      <path id="path297" d="M46.172-58.923A1.172,1.172,0,0,1,45-60.1V-80.87a1.952,1.952,0,0,0-1.95-1.95H-5.706a1.952,1.952,0,0,0-1.95,1.95v5.686a1.172,1.172,0,0,1-1.172,1.172A1.172,1.172,0,0,1-10-75.184V-80.87a4.3,4.3,0,0,1,4.294-4.294H43.05a4.3,4.3,0,0,1,4.294,4.294V-60.1A1.172,1.172,0,0,1,46.172-58.923Z" transform="translate(10 85.164)" fill="#0d2380"/>
    </g>
    <g id="g299" transform="translate(1679.333 -5041.193)">
      <path id="path301" d="M-297.645-488.643h-35.217a4.3,4.3,0,0,1-4.294-4.294v-60.726a1.172,1.172,0,0,1,1.172-1.172,1.172,1.172,0,0,1,1.172,1.172v60.726a1.952,1.952,0,0,0,1.95,1.95h35.217a1.172,1.172,0,0,1,1.172,1.172A1.172,1.172,0,0,1-297.645-488.643Z" transform="translate(337.155 554.835)" fill="#0d2380"/>
    </g>
    <g id="g303" transform="translate(1722.614 -4995.909)">
      <path id="path305" d="M-100.237,10.907h-8.6a1.172,1.172,0,0,1-1.172-1.172,1.172,1.172,0,0,1,1.172-1.172h8.6a1.952,1.952,0,0,0,1.95-1.95V-8.828A1.172,1.172,0,0,1-97.115-10a1.172,1.172,0,0,1,1.172,1.172V6.614A4.3,4.3,0,0,1-100.237,10.907Z" transform="translate(110.006 10)" fill="#0d2380"/>
    </g>
    <g id="g307" transform="translate(1691.887 -5032.844)">
      <path id="path309" d="M-1.04-7.656H-8.828A1.172,1.172,0,0,1-10-8.828,1.172,1.172,0,0,1-8.828-10H-1.04A1.172,1.172,0,0,1,.132-8.828,1.172,1.172,0,0,1-1.04-7.656Z" transform="translate(10 10)" fill="#0d2380"/>
    </g>
    <g id="g311" transform="translate(1688.318 -5027.561)">
      <path id="path313" d="M-1.572-7.656H-8.828A1.172,1.172,0,0,1-10-8.828,1.172,1.172,0,0,1-8.828-10h7.256A1.172,1.172,0,0,1-.4-8.828,1.172,1.172,0,0,1-1.572-7.656Z" transform="translate(10 10)" fill="#0d2380"/>
    </g>
    <g id="g315" transform="translate(1688.318 -5022.279)">
      <path id="path317" d="M-3.04-7.656H-8.828A1.172,1.172,0,0,1-10-8.828,1.172,1.172,0,0,1-8.828-10H-3.04A1.172,1.172,0,0,1-1.869-8.828,1.172,1.172,0,0,1-3.04-7.656Z" transform="translate(10 10)" fill="#0d2380"/>
    </g>
    <g id="g319" transform="translate(1688.318 -5045.001)">
      <path id="path321" d="M6.172-7.656h-15A1.172,1.172,0,0,1-10-8.828,1.172,1.172,0,0,1-8.828-10h15A1.172,1.172,0,0,1,7.344-8.828,1.172,1.172,0,0,1,6.172-7.656Z" transform="translate(10 10)" fill="#0d2380"/>
    </g>
    <g id="g323" transform="translate(1688.318 -4987.97)">
      <path id="path325" d="M6.172-7.656h-15A1.172,1.172,0,0,1-10-8.828,1.172,1.172,0,0,1-8.828-10h15A1.172,1.172,0,0,1,7.344-8.828,1.172,1.172,0,0,1,6.172-7.656Z" transform="translate(10 10)" fill="#0d2380"/>
    </g>
    <g id="g327" transform="translate(1730.641 -5003.023)">
      <path id="path329" d="M-3.992-27.8a1.172,1.172,0,0,1-.829-.343l-4.836-4.834a1.172,1.172,0,0,1,0-1.657,1.172,1.172,0,0,1,1.657,0l4.007,4.006,1.657-1.657-4.006-4.007a1.172,1.172,0,0,1,0-1.657,1.172,1.172,0,0,1,1.657,0L.151-33.114a1.172,1.172,0,0,1,0,1.657l-3.314,3.314A1.172,1.172,0,0,1-3.992-27.8Z" transform="translate(10 38.293)" fill="#0d2380"/>
    </g>
    <g id="g331" transform="translate(1735.477 -4998.187)">
      <path id="path333" d="M-126.178-122.663a3.493,3.493,0,0,1-2.486-1.03l-12.043-12.043a1.172,1.172,0,0,1-.343-.829,1.172,1.172,0,0,1,.343-.829l3.315-3.315a1.172,1.172,0,0,1,1.657,0l12.043,12.043a3.493,3.493,0,0,1,1.03,2.486,3.493,3.493,0,0,1-1.03,2.486A3.492,3.492,0,0,1-126.178-122.663Zm-12.043-13.9,11.214,11.214a1.164,1.164,0,0,0,.829.343,1.164,1.164,0,0,0,.828-.343,1.164,1.164,0,0,0,.343-.829,1.164,1.164,0,0,0-.343-.829l-11.214-11.214Z" transform="translate(141.05 141.05)" fill="#0d2380"/>
    </g>
    <g id="g335" transform="translate(1693.707 -5039.957)">
      <path id="path337" d="M-367.308-109.66a23.749,23.749,0,0,1-16.849-6.968,23.672,23.672,0,0,1-6.979-16.849,23.672,23.672,0,0,1,6.979-16.849,23.672,23.672,0,0,1,16.849-6.979,23.672,23.672,0,0,1,16.849,6.979A23.791,23.791,0,0,1-345.922-144a1.172,1.172,0,0,1-.534,1.569,1.172,1.172,0,0,1-1.569-.534,21.454,21.454,0,0,0-4.091-5.7,21.344,21.344,0,0,0-15.192-6.293,21.344,21.344,0,0,0-15.192,6.293,21.344,21.344,0,0,0-6.293,15.192,21.344,21.344,0,0,0,6.293,15.192,21.509,21.509,0,0,0,30.383,0,21.348,21.348,0,0,0,5.678-20.308,1.172,1.172,0,0,1,.861-1.416,1.172,1.172,0,0,1,1.416.861,23.674,23.674,0,0,1-6.3,22.521A23.759,23.759,0,0,1-367.308-109.66Z" transform="translate(391.136 157.305)" fill="#0d2380"/>
    </g>
    <g id="g339" transform="translate(1698.402 -5035.261)">
      <path id="path341" d="M-252.552-233.42a19.011,19.011,0,0,1-13.534-5.6,19.011,19.011,0,0,1-5.6-13.534,19.011,19.011,0,0,1,5.6-13.535,19.011,19.011,0,0,1,13.534-5.6,19.011,19.011,0,0,1,13.534,5.6,19.011,19.011,0,0,1,5.6,13.535,19.011,19.011,0,0,1-5.6,13.534A19.011,19.011,0,0,1-252.552-233.42Zm0-35.921a16.683,16.683,0,0,0-11.877,4.911,16.683,16.683,0,0,0-4.911,11.877,16.682,16.682,0,0,0,4.911,11.877,16.682,16.682,0,0,0,11.877,4.911,16.683,16.683,0,0,0,11.877-4.911,16.682,16.682,0,0,0,4.911-11.877,16.683,16.683,0,0,0-4.911-11.877A16.683,16.683,0,0,0-252.552-269.34Z" transform="translate(271.684 271.684)" fill="#0d2380"/>
    </g>
  </g>
</svg>
