<svg xmlns="http://www.w3.org/2000/svg" width="73.333" height="80" viewBox="0 0 73.333 80">
  <g id="candado" transform="translate(-21.334)">
    <g id="Grupo_141287" data-name="Grupo 141287" transform="translate(21.334 0)">
      <g id="Page-1_6_" transform="translate(0)">
        <g id="_x30_07---Padlock">
          <path id="Shape_15_" d="M60.8,334.934a5.333,5.333,0,1,0-5.333-5.333A5.333,5.333,0,0,0,60.8,334.934Zm0-8a2.667,2.667,0,1,1-2.667,2.667A2.667,2.667,0,0,1,60.8,326.934Z" transform="translate(-50.134 -273.6)" fill="#0d2380"/>
          <path id="Shape_14_" d="M37.334,72c.449,0,.895-.021,1.333-.059v1.392A6.675,6.675,0,0,0,45.334,80H88a6.675,6.675,0,0,0,6.667-6.667V38.667A6.675,6.675,0,0,0,88,32V21.333a21.333,21.333,0,1,0-42.666,0V32a6.675,6.675,0,0,0-6.667,6.667v1.392c-.441-.037-.887-.059-1.333-.059a16,16,0,1,0,0,32ZM48,21.333a18.667,18.667,0,0,1,37.333,0V32h-4V21.333a14.667,14.667,0,0,0-29.333,0V32H48ZM54.667,32V21.333a12,12,0,0,1,24,0V32ZM41.334,38.667a4,4,0,0,1,4-4H88a4,4,0,0,1,4,4V73.333a4,4,0,0,1-4,4H45.334a4,4,0,0,1-4-4V71.479a16.048,16.048,0,0,0,11.08-10.145H60v4a6.667,6.667,0,0,0,13.333,0V58.991A10.667,10.667,0,1,0,56,50.666H52.414a16.048,16.048,0,0,0-11.08-10.145Zm-4,4a13.36,13.36,0,0,1,12.823,9.695,1.334,1.334,0,0,0,1.284.972H69.334a1.333,1.333,0,0,0,0-2.667H58.667A7.989,7.989,0,0,1,67.6,42.724a8.108,8.108,0,0,1,7.035,7.135,8.021,8.021,0,0,1-3.389,7.364,1.333,1.333,0,0,0-.579,1.1v7.013a4,4,0,0,1-8,0v-4h2.667a1.333,1.333,0,0,0,0-2.667h-13.9a1.333,1.333,0,0,0-1.284.972,13.333,13.333,0,1,1-12.82-16.972Z" transform="translate(-21.334 0)" fill="#0d2380"/>
        </g>
      </g>
    </g>
  </g>
</svg>
