<svg xmlns="http://www.w3.org/2000/svg" width="79.999" height="80" viewBox="0 0 79.999 80">
  <g id="Outline" transform="translate(-16 -16)">
    <g id="Outline-2" data-name="Outline" transform="translate(16 15.999)">
      <ellipse id="Elipse_5509" data-name="Elipse 5509" cx="1.667" cy="0.833" rx="1.667" ry="0.833" transform="translate(31.666 15.001)" fill="#0d2380"/>
      <path id="Trazado_212085" data-name="Trazado 212085" d="M118.483,106.307h9.808a1.333,1.333,0,0,0,0-2.667h-9.808a1.333,1.333,0,1,0,0,2.667Z" transform="translate(-100.292 -89.033)" fill="#0d2380"/>
      <path id="Trazado_212086" data-name="Trazado 212086" d="M133.625,134.4H118.483a1.333,1.333,0,1,0,0,2.667h15.142a1.333,1.333,0,1,0,0-2.667Z" transform="translate(-100.292 -114.667)" fill="#0d2380"/>
      <path id="Trazado_212087" data-name="Trazado 212087" d="M287.8,201.42H269.783a1.333,1.333,0,0,0-1.333,1.333v5.688a1.333,1.333,0,0,0,1.333,1.333H287.8a1.333,1.333,0,0,0,1.333-1.333v-5.688A1.333,1.333,0,0,0,287.8,201.42Zm-1.333,5.688H271.117v-3.022h15.348Z" transform="translate(-226.375 -170.517)" fill="#0d2380"/>
      <path id="Trazado_212088" data-name="Trazado 212088" d="M28,416H17.333A1.333,1.333,0,0,0,16,417.333V428a1.333,1.333,0,0,0,1.333,1.333H28A1.333,1.333,0,0,0,29.333,428V417.333A1.333,1.333,0,0,0,28,416Zm-1.333,10.667h-8v-8h8Z" transform="translate(-16 -349.334)" fill="#0d2380"/>
      <path id="Trazado_212089" data-name="Trazado 212089" d="M422.667,416a6.667,6.667,0,1,0,6.667,6.667A6.667,6.667,0,0,0,422.667,416Zm0,10.667a4,4,0,1,1,4-4A4,4,0,0,1,422.667,426.667Z" transform="translate(-349.334 -349.334)" fill="#0d2380"/>
      <path id="Trazado_212090" data-name="Trazado 212090" d="M223.842,417.033a1.39,1.39,0,0,0-2.387,0L216.122,427.7a1.344,1.344,0,0,0,1.193,1.93h10.667a1.344,1.344,0,0,0,1.193-1.93Zm-4.36,9.93,3.167-6.352,3.175,6.352Z" transform="translate(-182.649 -349.63)" fill="#0d2380"/>
      <path id="Trazado_212091" data-name="Trazado 212091" d="M49.333,68A1.333,1.333,0,0,0,48,69.332V76a1.333,1.333,0,0,0,2.667,0V70.666H81.333V76A1.333,1.333,0,1,0,84,76V70.666h30.666V76a1.333,1.333,0,1,0,2.667,0V69.332A1.333,1.333,0,0,0,116,68H84V61.332h23.77A4.21,4.21,0,0,0,112,57.154V20.178A4.21,4.21,0,0,0,107.77,16H99.936a1.333,1.333,0,0,0-.96.408L95.521,20h-28.9L63.5,16.453a1.333,1.333,0,0,0-1-.453H56.627a3.267,3.267,0,0,0-3.293,3.23V57.154a4.21,4.21,0,0,0,4.23,4.178h23.77V68ZM63.14,22.666H92.955l-2.167,2.252H63.14ZM56,19.229a.6.6,0,0,1,.627-.563H61.9L63.067,20H61.8a1.333,1.333,0,0,0-1.333,1.333v3.585H56Zm1.563,39.436A1.54,1.54,0,0,1,56,57.154V27.584H91.356a1.333,1.333,0,0,0,.96-.41l4.733-4.917h0l3.45-3.592h7.263a1.54,1.54,0,0,1,1.57,1.512V57.154a1.54,1.54,0,0,1-1.563,1.512Z" transform="translate(-42.667 -15.999)" fill="#0d2380"/>
    </g>
  </g>
</svg>
