<svg xmlns="http://www.w3.org/2000/svg" width="81.668" height="80" viewBox="0 0 81.668 80">
  <g id="icon_55_" transform="translate(-3.5 -4)">
    <path id="XMLID_13_" d="M39.641,60.643H35.156a4.1,4.1,0,0,1-4.108-4.078v-1.9a.849.849,0,0,0-.555-.762.867.867,0,0,0-.952.132l-1.358,1.348a4.14,4.14,0,0,1-5.812,0L19.2,52.238a4.059,4.059,0,0,1,0-5.765l1.358-1.348a.825.825,0,0,0,.148-.91.867.867,0,0,0-.782-.585H18.013a4.1,4.1,0,0,1-4.11-4.078V35.1a4.1,4.1,0,0,1,4.11-4.077h1.912a.853.853,0,0,0,.768-.553.843.843,0,0,0-.135-.943L19.2,28.178a4.061,4.061,0,0,1,0-5.767l3.172-3.147a4.23,4.23,0,0,1,5.812,0l1.358,1.348a.841.841,0,0,0,.918.147.861.861,0,0,0,.59-.775v-1.9a4.1,4.1,0,0,1,4.108-4.078h4.485a4.1,4.1,0,0,1,4.11,4.078v1.9a.846.846,0,0,0,.555.762.858.858,0,0,0,.952-.133l1.358-1.348a4.227,4.227,0,0,1,5.81,0L55.6,22.411a4.061,4.061,0,0,1,0,5.767l-1.358,1.348a.823.823,0,0,0-.147.912.867.867,0,0,0,.78.585h1.912A4.1,4.1,0,0,1,60.9,35.1v4.452a4.1,4.1,0,0,1-4.11,4.078H54.875a.85.85,0,0,0-.767.55.833.833,0,0,0,.133.945L55.6,46.473a4.056,4.056,0,0,1,0,5.765l-3.172,3.148a4.138,4.138,0,0,1-5.81,0L45.26,54.038a.824.824,0,0,0-.917-.145l-.035.013a.86.86,0,0,0-.555.762v1.9a4.1,4.1,0,0,1-4.112,4.078Zm-9.548-10.09a4.284,4.284,0,0,1,1.62.32,4.108,4.108,0,0,1,2.627,3.8v1.9a.813.813,0,0,0,.817.81h4.485a.814.814,0,0,0,.817-.81v-1.9a4.1,4.1,0,0,1,2.6-3.783l.093-.038a4.138,4.138,0,0,1,4.437.882l1.358,1.348a.821.821,0,0,0,1.155,0l3.172-3.148a.806.806,0,0,0,0-1.145l-1.358-1.348a4.06,4.06,0,0,1-.9-4.37l.067-.16a4.114,4.114,0,0,1,3.8-2.543h1.912a.814.814,0,0,0,.817-.81V35.1a.814.814,0,0,0-.817-.81H54.873a4.125,4.125,0,0,1-3.812-2.578,4.073,4.073,0,0,1,.85-4.5l1.358-1.348a.808.808,0,0,0,0-1.147L50.1,21.575a.817.817,0,0,0-1.153,0l-1.358,1.348a4.216,4.216,0,0,1-7.127-2.938v-1.9a.814.814,0,0,0-.817-.81H35.158a.814.814,0,0,0-.817.81v1.9a4.1,4.1,0,0,1-2.6,3.785,4.154,4.154,0,0,1-4.528-.845l-1.358-1.348a.819.819,0,0,0-1.155,0L21.53,24.723a.808.808,0,0,0,0,1.147l1.358,1.348a4.062,4.062,0,0,1,.863,4.467,4.14,4.14,0,0,1-3.825,2.607H18.015a.814.814,0,0,0-.817.81v4.452a.814.814,0,0,0,.817.81h1.912A4.13,4.13,0,0,1,23.74,42.94a4.076,4.076,0,0,1-.852,4.5L21.53,48.785a.806.806,0,0,0,0,1.145L24.7,53.078a.821.821,0,0,0,1.155,0l1.358-1.348a4.067,4.067,0,0,1,2.878-1.177Z" transform="translate(6.935 6.672)" fill="#0d2380"/>
    <path id="XMLID_10_" d="M31.661,40.718a9.084,9.084,0,1,1,9.153-9.085A9.13,9.13,0,0,1,31.661,40.718Zm0-14.9a5.817,5.817,0,1,0,5.862,5.817A5.845,5.845,0,0,0,31.661,25.817Z" transform="translate(12.672 12.367)" fill="#0d2380"/>
    <g id="XMLID_2100_" transform="translate(3.5 4)">
      <path id="XMLID_9_" d="M7.988,38.364a1.654,1.654,0,0,1-.238-.017A1.636,1.636,0,0,1,6.356,36.5,36.444,36.444,0,0,1,34.6,6.362a1.634,1.634,0,1,1,.705,3.19A33.152,33.152,0,0,0,9.614,36.964a1.642,1.642,0,0,1-1.627,1.4Z" transform="translate(-1.608 -2.452)" fill="#0d2380"/>
      <path id="XMLID_8_" d="M34.994,61.889a1.739,1.739,0,0,1-.355-.038A36.323,36.323,0,0,1,6.3,31.012a1.647,1.647,0,0,1,3.268-.405A33.044,33.044,0,0,0,35.347,58.66a1.632,1.632,0,0,1-.353,3.228Z" transform="translate(-1.645 12.785)" fill="#0d2380"/>
      <path id="XMLID_7_" d="M32.311,62.171a1.633,1.633,0,0,1-.282-3.243A33.252,33.252,0,0,0,59.181,30.606a1.647,1.647,0,0,1,3.268.405A36.556,36.556,0,0,1,32.6,62.148a1.9,1.9,0,0,1-.288.023Z" transform="translate(14.61 12.784)" fill="#0d2380"/>
      <path id="XMLID_6_" d="M60.719,38.477a1.641,1.641,0,0,1-1.627-1.4A32.946,32.946,0,0,0,32.029,9.4,1.634,1.634,0,1,1,32.6,6.177,36.211,36.211,0,0,1,62.349,36.609a1.634,1.634,0,0,1-1.392,1.85A1.435,1.435,0,0,1,60.719,38.477Z" transform="translate(14.61 -2.566)" fill="#0d2380"/>
      <path id="XMLID_5_" d="M25.122,17.358a1.643,1.643,0,0,1-1.548-2.192l2.132-5.833L19.686,7.17A1.632,1.632,0,0,1,18.7,5.078a1.652,1.652,0,0,1,2.108-.98l7.568,2.72a1.656,1.656,0,0,1,.932.843,1.623,1.623,0,0,1,.057,1.248l-2.69,7.37a1.646,1.646,0,0,1-1.55,1.078Z" transform="translate(6.565 -4)" fill="#0d2380"/>
      <path id="XMLID_4_" d="M52.521,30.092a1.633,1.633,0,0,1-.813-.215l-6.862-3.883a1.622,1.622,0,0,1-.613-2.228,1.649,1.649,0,0,1,2.245-.61l5.432,3.075,3.173-5.52a1.65,1.65,0,0,1,2.245-.61,1.623,1.623,0,0,1,.613,2.228l-3.988,6.938a1.649,1.649,0,0,1-1.432.825Z" transform="translate(23.509 6.59)" fill="#0d2380"/>
      <path id="XMLID_3_" d="M37.763,57.762a1.646,1.646,0,0,1-1.057-.382l-6.168-5.132a1.626,1.626,0,0,1-.2-2.3l5.077-6.007a1.66,1.66,0,0,1,2.32-.2,1.626,1.626,0,0,1,.205,2.3l-4.018,4.755,4.907,4.083a1.626,1.626,0,0,1,.205,2.3,1.664,1.664,0,0,1-1.267.583Z" transform="translate(14.133 22.238)" fill="#0d2380"/>
      <path id="XMLID_2_" d="M5.145,38.527a1.637,1.637,0,0,1-1.33-2.6l4.737-6.458a1.653,1.653,0,0,1,2.3-.358l6.387,4.612a1.629,1.629,0,0,1,.363,2.283,1.656,1.656,0,0,1-2.3.358l-5.057-3.652L6.476,37.854a1.645,1.645,0,0,1-1.332.673Z" transform="translate(-3.5 12.533)" fill="#0d2380"/>
    </g>
  </g>
</svg>
