<svg xmlns="http://www.w3.org/2000/svg" width="83.015" height="80" viewBox="0 0 83.015 80">
  <g id="Layer_x0020_1" transform="translate(0 -31)">
    <g id="_569517840" transform="translate(0 31)">
      <g id="Grupo_141268" data-name="Grupo 141268" transform="translate(8.511 8.413)">
        <path id="Trazado_212112" data-name="Trazado 212112" d="M228.69,272.328H176.216A1.2,1.2,0,0,1,175,271.112v-65.9A1.2,1.2,0,0,1,176.216,204h40.122a1.216,1.216,0,1,1,0,2.432h-39v63.611h50.188V260.8a1.216,1.216,0,0,1,2.432,0V271.21A1.349,1.349,0,0,1,228.69,272.328Zm0-39.2a1.2,1.2,0,0,1-1.216-1.216v-14.3a1.192,1.192,0,0,1,2.383,0v14.4A1.175,1.175,0,0,1,228.69,233.131Z" transform="translate(-175 -204)" fill="#0d2380" fill-rule="evenodd"/>
      </g>
      <g id="Grupo_141269" data-name="Grupo 141269" transform="translate(48.632 8.472)">
        <path id="Trazado_212113" data-name="Trazado 212113" d="M1013.568,219.934h-12.353a1.2,1.2,0,0,1-1.216-1.216V206.365a1.137,1.137,0,0,1,.729-1.07,1.117,1.117,0,0,1,1.265.292l12.45,12.4a1.226,1.226,0,0,1,.243,1.264A1.14,1.14,0,0,1,1013.568,219.934Zm-11.234-2.334h8.365l-8.365-8.365Z" transform="translate(-1000 -205.208)" fill="#0d2380" fill-rule="evenodd"/>
      </g>
      <g id="Grupo_141270" data-name="Grupo 141270" transform="translate(0 0)">
        <path id="Trazado_212114" data-name="Trazado 212114" d="M9.726,95.875H1.216A1.2,1.2,0,0,1,0,94.66V32.216A1.2,1.2,0,0,1,1.216,31h44.3a1.2,1.2,0,0,1,1.216,1.216v8.413a1.216,1.216,0,1,1-2.432,0V33.383H2.432V93.444H9.726a1.2,1.2,0,0,1,1.216,1.216A1.269,1.269,0,0,1,9.726,95.875Z" transform="translate(0 -31)" fill="#0d2380" fill-rule="evenodd"/>
      </g>
      <g id="Grupo_141271" data-name="Grupo 141271" transform="translate(30.492 27.404)">
        <path id="Trazado_212115" data-name="Trazado 212115" d="M644.7,629.929a17.707,17.707,0,1,1,12.5-30.249,17.7,17.7,0,0,1,0,25.094A17.34,17.34,0,0,1,644.7,629.929Zm0-33.021a15.3,15.3,0,0,0-10.845,26.164,15.322,15.322,0,0,0,21.739,0A15.3,15.3,0,0,0,644.7,596.907Z" transform="translate(-627 -594.5)" fill="#0d2380" fill-rule="evenodd"/>
      </g>
      <g id="Grupo_141272" data-name="Grupo 141272" transform="translate(60.304 57.191)">
        <path id="Trazado_212116" data-name="Trazado 212116" d="M1256.243,1229.808a2.939,2.939,0,0,1-2.091-.875l-13.277-13.325a2.94,2.94,0,0,1-.875-2.091,3.12,3.12,0,0,1,.875-2.091l3.55-3.55a2.877,2.877,0,0,1,4.134,0l13.277,13.277a2.878,2.878,0,0,1,0,4.134l-3.6,3.55A2.243,2.243,0,0,1,1256.243,1229.808Zm-9.727-20.377a.647.647,0,0,0-.389.146l-3.6,3.55a.658.658,0,0,0,0,.827l13.325,13.277a.592.592,0,0,0,.778,0l3.6-3.6a.592.592,0,0,0,0-.778l-13.277-13.277A.784.784,0,0,0,1246.517,1209.432Z" transform="translate(-1240 -1207)" fill="#0d2380" fill-rule="evenodd"/>
      </g>
      <g id="Grupo_141273" data-name="Grupo 141273" transform="translate(58.723 55.611)">
        <path id="Trazado_212117" data-name="Trazado 212117" d="M1212.582,1180.8a1.269,1.269,0,0,1-.827-.34l-3.891-3.891a1.175,1.175,0,0,1,0-1.7,1.119,1.119,0,0,1,1.654,0l3.939,3.891a1.175,1.175,0,0,1,0,1.7A2.009,2.009,0,0,1,1212.582,1180.8Z" transform="translate(-1207.5 -1174.5)" fill="#0d2380" fill-rule="evenodd"/>
      </g>
      <g id="Grupo_141274" data-name="Grupo 141274" transform="translate(15.66 66.383)">
        <path id="Trazado_212118" data-name="Trazado 212118" d="M356.091,1398.383H323.216a1.192,1.192,0,1,1,0-2.383h32.875a1.192,1.192,0,1,1,0,2.383Z" transform="translate(-322 -1396)" fill="#0d2380" fill-rule="evenodd"/>
      </g>
      <g id="Grupo_141275" data-name="Grupo 141275" transform="translate(15.66 57.386)">
        <path id="Trazado_212119" data-name="Trazado 212119" d="M334.255,1213.432H323.216a1.216,1.216,0,1,1,0-2.432h10.991a1.216,1.216,0,0,1,.049,2.432Z" transform="translate(-322 -1211)" fill="#0d2380" fill-rule="evenodd"/>
      </g>
      <g id="Grupo_141276" data-name="Grupo 141276" transform="translate(15.66 48.438)">
        <path id="Trazado_212120" data-name="Trazado 212120" d="M334.255,1029.432H323.216a1.235,1.235,0,0,1-1.216-1.216,1.2,1.2,0,0,1,1.216-1.216h10.991a1.2,1.2,0,0,1,1.216,1.216A1.227,1.227,0,0,1,334.255,1029.432Z" transform="translate(-322 -1027)" fill="#0d2380" fill-rule="evenodd"/>
      </g>
      <g id="Grupo_141277" data-name="Grupo 141277" transform="translate(15.66 39.441)">
        <path id="Trazado_212121" data-name="Trazado 212121" d="M334.255,844.432H323.216a1.216,1.216,0,1,1,0-2.432h10.991a1.216,1.216,0,0,1,.049,2.432Z" transform="translate(-322 -842)" fill="#0d2380" fill-rule="evenodd"/>
      </g>
      <g id="Grupo_141278" data-name="Grupo 141278" transform="translate(15.66 30.395)">
        <path id="Trazado_212122" data-name="Trazado 212122" d="M334.255,658.432H323.216A1.2,1.2,0,0,1,322,657.216,1.235,1.235,0,0,1,323.216,656h10.991a1.235,1.235,0,0,1,1.216,1.216A1.194,1.194,0,0,1,334.255,658.432Z" transform="translate(-322 -656)" fill="#0d2380" fill-rule="evenodd"/>
      </g>
      <g id="Grupo_141279" data-name="Grupo 141279" transform="translate(15.66 21.301)">
        <path id="Trazado_212123" data-name="Trazado 212123" d="M349.72,471.432h-26.5a1.216,1.216,0,1,1,0-2.432h26.5a1.216,1.216,0,1,1,0,2.432Z" transform="translate(-322 -469)" fill="#0d2380" fill-rule="evenodd"/>
      </g>
      <g id="Grupo_141280" data-name="Grupo 141280" transform="translate(35.907 37.742)">
        <path id="Trazado_212124" data-name="Trazado 212124" d="M744.928,822c-.146,0-.292,0-.34-.049h-.146a.524.524,0,0,1-.389-.1.442.442,0,0,1-.34-.146c-.146-.049-.292-.1-.34-.195s-.1,0-.1-.049a2.107,2.107,0,0,0-.34-.195c-.049-.1-.1-.1-.195-.146l-.049-.049-.292-.146a.379.379,0,0,0-.194-.195.994.994,0,0,1-.243-.438l-3.21-5.5a3.237,3.237,0,0,1,1.167-4.377h.049a3.294,3.294,0,0,1,4.425,1.167l1.654,2.918,12.158-7a3.191,3.191,0,1,1,3.161,5.544l-14.881,8.462a2.8,2.8,0,0,1-.34.195c-.1.1-.243.1-.292.146-.049,0-.049.1-.146.1a1.208,1.208,0,0,1-.438.049h-.34Zm-.292-2.432h.389c.1,0,.1,0,.146-.049.1,0,.1-.1.146-.1a.376.376,0,0,0,.146-.049l14.687-8.511a.871.871,0,0,0,.34-1.119.8.8,0,0,0-1.167-.292l-13.179,7.635a1.2,1.2,0,0,1-1.654-.438L742.2,812.76a.856.856,0,0,0-1.119-.34.788.788,0,0,0-.292,1.167l3.307,5.641c.049.1.049.1.146.146l.049.049c.1,0,.1.1.146.146a.048.048,0,0,1,.049.049c.1,0,.1.1.146.1C744.588,819.569,744.636,819.569,744.636,819.569Z" transform="translate(-738.33 -807.074)" fill="#0d2380" fill-rule="evenodd"/>
      </g>
    </g>
  </g>
</svg>
