<svg xmlns="http://www.w3.org/2000/svg" xmlns:xlink="http://www.w3.org/1999/xlink" width="80" height="80" viewBox="0 0 80 80">
  <defs>
    <clipPath id="clip-path">
      <path id="path3213" d="M0-682.665H80v80H0Z" transform="translate(0 682.665)" fill="#0d2380"/>
    </clipPath>
  </defs>
  <g id="g3207" transform="translate(0 682.665)">
    <g id="g3209" transform="translate(0 -682.665)">
      <g id="g3211" transform="translate(0 0)" clip-path="url(#clip-path)">
        <g id="g3217" transform="translate(51.797 51.795)">
          <path id="path3219" d="M-195.749-189.33a6.39,6.39,0,0,1-4.548-1.884l-16.214-16.214a3.454,3.454,0,0,1,0-4.879l4.217-4.217a3.428,3.428,0,0,1,2.44-1.01,3.428,3.428,0,0,1,2.439,1.01L-191.2-200.31a6.439,6.439,0,0,1,0,9.1A6.39,6.39,0,0,1-195.749-189.33Zm-14.106-25.861a1.1,1.1,0,0,0-.782.324l-4.217,4.217a1.108,1.108,0,0,0,0,1.565l16.214,16.214a4.062,4.062,0,0,0,2.891,1.2,4.062,4.062,0,0,0,2.891-1.2,4.093,4.093,0,0,0,0-5.782l-16.214-16.215A1.1,1.1,0,0,0-209.855-215.191Z" transform="translate(217.521 217.535)" fill="#0d2380"/>
        </g>
        <g id="g3221" transform="translate(0.001 0)">
          <path id="path3223" d="M-412.447-381.537a30.72,30.72,0,0,1-21.87-9.045,30.964,30.964,0,0,1,0-43.741,30.72,30.72,0,0,1,21.87-9.045,30.72,30.72,0,0,1,21.87,9.045,30.965,30.965,0,0,1,0,43.741A30.72,30.72,0,0,1-412.447-381.537Zm0-59.487a28.391,28.391,0,0,0-20.213,8.359,28.618,28.618,0,0,0,0,40.426,28.392,28.392,0,0,0,20.213,8.359,28.392,28.392,0,0,0,20.213-8.359,28.618,28.618,0,0,0,0-40.426A28.392,28.392,0,0,0-412.447-441.024Z" transform="translate(443.362 443.368)" fill="#0d2380"/>
        </g>
        <g id="g3225" transform="translate(5.655 32.561)">
          <path id="path3227" d="M-395.826,13.613a25.4,25.4,0,0,1-25.252-22.47,1.172,1.172,0,0,1,1.029-1.3,1.172,1.172,0,0,1,1.3,1.029,23.059,23.059,0,0,0,22.924,20.4A23.062,23.062,0,0,0-372.9-9.108a1.172,1.172,0,0,1,1.3-1.028,1.172,1.172,0,0,1,1.028,1.3A25.406,25.406,0,0,1-395.826,13.613Z" transform="translate(421.087 10.164)" fill="#0d2380"/>
        </g>
        <g id="g3229" transform="translate(5.638 5.493)">
          <path id="path3231" d="M39.382-170.3a1.172,1.172,0,0,1-1.164-1.045,23.03,23.03,0,0,0-22.941-20.547A23.03,23.03,0,0,0-7.664-171.343,1.172,1.172,0,0,1-8.956-170.3,1.172,1.172,0,0,1-9.994-171.6a25.371,25.371,0,0,1,25.271-22.634,25.37,25.37,0,0,1,25.271,22.637A1.172,1.172,0,0,1,39.51-170.3,1.186,1.186,0,0,1,39.382-170.3Z" transform="translate(10.001 194.232)" fill="#0d2380"/>
        </g>
        <g id="g3233" transform="translate(48.658 52.716)">
          <path id="path3235" d="M-4.944-3.773a1.168,1.168,0,0,1-.829-.343L-9.657-8a1.172,1.172,0,0,1,0-1.657A1.172,1.172,0,0,1-8-9.657l3.884,3.884a1.172,1.172,0,0,1,0,1.657A1.168,1.168,0,0,1-4.944-3.773Z" transform="translate(10 10)" fill="#0d2380"/>
        </g>
        <g id="g3237" transform="translate(52.716 48.658)">
          <path id="path3239" d="M-38.084-36.913a1.168,1.168,0,0,1-.829-.343L-42.8-41.139a1.172,1.172,0,0,1,0-1.657,1.172,1.172,0,0,1,1.657,0l3.884,3.884a1.172,1.172,0,0,1,0,1.657A1.168,1.168,0,0,1-38.084-36.913Z" transform="translate(43.14 43.14)" fill="#0d2380"/>
        </g>
        <g id="g3241" transform="translate(11.299 39.974)">
          <path id="path3243" d="M-285.125-51.016a1.172,1.172,0,0,1-1.1-.76,5.725,5.725,0,0,0-3.032-3.208,36.2,36.2,0,0,0-7.884-1.744l-5.788,3.654a1.172,1.172,0,0,1-1.243.005l-5.819-3.605a36.185,36.185,0,0,0-7.869,1.81,5.685,5.685,0,0,0-2.872,2.9,1.172,1.172,0,0,1-1.545.6,1.172,1.172,0,0,1-.6-1.545A8.025,8.025,0,0,1-318.82-57c2.353-1.06,6.608-1.741,8.934-2.053a1.172,1.172,0,0,1,.773.165l5.554,3.442,5.525-3.488a1.172,1.172,0,0,1,.772-.172c2.329.292,6.59.938,8.951,1.978a8.083,8.083,0,0,1,4.282,4.529,1.172,1.172,0,0,1-.684,1.509A1.17,1.17,0,0,1-285.125-51.016Z" transform="translate(322.974 59.116)" fill="#0d2380"/>
        </g>
        <g id="g3245" transform="translate(19.361 11.739)">
          <path id="path3247" d="M-110.2-10a7.856,7.856,0,0,1,7.84,7.808l.021,4.9a1.172,1.172,0,0,1-.349.839,1.172,1.172,0,0,1-.844.337,2.159,2.159,0,0,0-1.344.486,1.8,1.8,0,0,1-1.338.427c-2.044,0-2.353-.907-2.355-1.447l-.017-3.973a1.328,1.328,0,0,0-1.326-1.32,2.915,2.915,0,0,0-.9.136,8.821,8.821,0,0,1-2.643.44h-.308a8.907,8.907,0,0,1-2.647-.418,2.863,2.863,0,0,0-.849-.129,1.344,1.344,0,0,0-.978.392,1.317,1.317,0,0,0-.384.939l.017,3.973a1.444,1.444,0,0,1-.422,1.033,1.471,1.471,0,0,1-1.036.43,1.449,1.449,0,0,1-1.019-.417,5.141,5.141,0,0,0-2.53-.469A1.222,1.222,0,0,1-124.836,2.8l-.025-6.043a4.075,4.075,0,0,1,3.971-4.086,4.051,4.051,0,0,1,3.778-2.642l6.878-.029Zm5.512,11.7-.016-3.879a5.508,5.508,0,0,0-5.5-5.474V-8.829l-.024,1.172-6.878.029a1.7,1.7,0,0,0-1.6,1.148A2.224,2.224,0,0,1-120.8-4.987a1.728,1.728,0,0,0-1.719,1.734l.021,4.928a8.294,8.294,0,0,1,1.547.279l-.011-2.526a3.645,3.645,0,0,1,1.064-2.6,3.645,3.645,0,0,1,2.59-1.086,5.291,5.291,0,0,1,1.6.234,6.506,6.506,0,0,0,1.92.312h.329a6.486,6.486,0,0,0,1.939-.328,5.191,5.191,0,0,1,1.564-.247h0a3.686,3.686,0,0,1,3.714,3.654l.013,3.075A4.171,4.171,0,0,1-104.688,1.7Z" transform="translate(124.861 10.001)" fill="#0d2380"/>
        </g>
        <g id="g3249" transform="translate(18.539 23.277)">
          <path id="path3251" d="M-5.08,4.711a10.278,10.278,0,0,1-6.776-2.55A9.233,9.233,0,0,1-14.96-3.6a2.76,2.76,0,0,1-2.281-2.7l-.007-1.755a2.747,2.747,0,0,1,1.477-2.451,1.172,1.172,0,0,1,1.582.493,1.172,1.172,0,0,1-.493,1.582.412.412,0,0,0-.222.366L-14.9-6.31a.412.412,0,0,0,.414.41l.6,0a1.172,1.172,0,0,1,1.177,1.142A6.969,6.969,0,0,0-10.334.379,7.977,7.977,0,0,0-5.089,2.367,7.961,7.961,0,0,0,.111.335,6.968,6.968,0,0,0,2.443-4.825,1.172,1.172,0,0,1,3.609-5.977l.6,0A.41.41,0,0,0,4.5-6.1a.41.41,0,0,0,.119-.292L4.611-8.147a.412.412,0,0,0-.225-.364,1.172,1.172,0,0,1-.507-1.578A1.172,1.172,0,0,1,5.457-10.6a2.747,2.747,0,0,1,1.5,2.439L6.962-6.4a2.737,2.737,0,0,1-.8,1.952A2.735,2.735,0,0,1,4.7-3.68,9.232,9.232,0,0,1,1.648,2.1,10.261,10.261,0,0,1-5.08,4.711Z" transform="translate(17.248 10.726)" fill="#0d2380"/>
        </g>
        <g id="g3253" transform="translate(34.442 34.85)">
          <path id="path3255" d="M-18.259-46.258a1.183,1.183,0,0,1-.147-.009,2.59,2.59,0,0,1-2.262-2.552l-.016-3.73a1.172,1.172,0,0,1,1.167-1.177A1.172,1.172,0,0,1-18.34-52.56l.016,3.73a.24.24,0,0,0,.21.236A1.172,1.172,0,0,1-17.1-47.285,1.172,1.172,0,0,1-18.259-46.258Z" transform="translate(20.684 53.727)" fill="#0d2380"/>
        </g>
        <g id="g3257" transform="translate(23.371 34.891)">
          <path id="path3259" d="M-19.145-2.522a1.172,1.172,0,0,1-1.16-1.016A1.172,1.172,0,0,1-19.3-4.855a.24.24,0,0,0,.208-.238l-.016-3.73A1.172,1.172,0,0,1-17.94-10a1.172,1.172,0,0,1,1.177,1.167l.016,3.73a2.59,2.59,0,0,1-2.241,2.571A1.183,1.183,0,0,1-19.145-2.522Z" transform="translate(20.316 10)" fill="#0d2380"/>
        </g>
        <g id="g3261" transform="translate(19.112 40.734)">
          <path id="path3263" d="M-2.993-2.474a3.642,3.642,0,0,1-2.688-1.18L-9.693-8.037a1.172,1.172,0,0,1,.073-1.656,1.172,1.172,0,0,1,1.656.073l4.012,4.383a1.3,1.3,0,0,0,1.547.277L1.072-6.75a1.172,1.172,0,0,1,1.578.505,1.172,1.172,0,0,1-.505,1.578L-1.332-2.876A3.623,3.623,0,0,1-2.993-2.474Z" transform="translate(10 10)" fill="#0d2380"/>
        </g>
        <g id="g3265" transform="translate(29.549 40.646)">
          <path id="path3267" d="M-93.064-2.415A3.623,3.623,0,0,1-94.7-2.807l-3.489-1.768a1.172,1.172,0,0,1-.515-1.575,1.172,1.172,0,0,1,1.575-.516L-93.645-4.9a1.3,1.3,0,0,0,1.547-.29l3.972-4.424A1.172,1.172,0,0,1-86.47-9.7a1.172,1.172,0,0,1,.089,1.655l-3.972,4.424A3.641,3.641,0,0,1-93.064-2.415Z" transform="translate(98.835 10)" fill="#0d2380"/>
        </g>
        <g id="g3269" transform="translate(26.392 48.51)">
          <path id="path3271" d="M-19.23-2.407a1.175,1.175,0,0,1-.266-.031,1.172,1.172,0,0,1-.877-1.407L-19.154-9.1a1.172,1.172,0,0,1,1.407-.877,1.172,1.172,0,0,1,.877,1.407L-18.09-3.314A1.172,1.172,0,0,1-19.23-2.407Z" transform="translate(20.404 10.002)" fill="#0d2380"/>
        </g>
        <g id="g3273" transform="translate(31.523 48.494)">
          <path id="path3275" d="M-18.465-47.622a1.172,1.172,0,0,1-1.138-.9l-1.279-5.305a1.172,1.172,0,0,1,.865-1.414,1.172,1.172,0,0,1,1.414.865l1.279,5.305a1.172,1.172,0,0,1-.865,1.414A1.175,1.175,0,0,1-18.465-47.622Z" transform="translate(20.916 55.272)" fill="#0d2380"/>
        </g>
        <g id="g3277" transform="translate(26.053 45.652)">
          <path id="path3279" d="M-7.429-4.734a1.172,1.172,0,0,1-1.029-.611L-10.016-8.2a1.172,1.172,0,0,1-.091-.906,1.172,1.172,0,0,1,.585-.7,1.181,1.181,0,0,1,1.581.493,1.206,1.206,0,0,1,.057.127l1.148,2.106,2.515-.011,1.206-2.248L-2-8.8l.561-1.028A1.191,1.191,0,0,1-.948-8.231L-2.484-5.369a1.172,1.172,0,0,1-1.028.618l-3.912.017Z" transform="translate(10.159 9.937)" fill="#0d2380"/>
        </g>
      </g>
    </g>
  </g>
</svg>
