<svg xmlns="http://www.w3.org/2000/svg" width="71.992" height="80" viewBox="0 0 71.992 80">
  <g id="Grupo_141285" data-name="Grupo 141285" transform="translate(-3076.168 5055)">
    <g id="g109" transform="translate(3076.168 -5001.208)">
      <path id="path111" d="M-538.2,16.208H-598.47a5.866,5.866,0,0,1-5.859-5.859V3.828a1.172,1.172,0,0,1,1.172-1.172,1.172,1.172,0,0,1,1.172,1.172v6.521a3.52,3.52,0,0,0,3.516,3.516H-538.2a3.52,3.52,0,0,0,3.516-3.516V-8.828A1.172,1.172,0,0,1-533.509-10a1.172,1.172,0,0,1,1.172,1.172V10.349A5.866,5.866,0,0,1-538.2,16.208Z" transform="translate(604.329 10)" fill="#0d2380"/>
    </g>
    <g id="g113" transform="translate(3076.168 -5049.645)">
      <path id="path115" d="M-402.131-517.009h-47.513a5.874,5.874,0,0,1-5.867-5.867V-581.1a5.874,5.874,0,0,1,5.867-5.867h60.257a5.874,5.874,0,0,1,5.867,5.867v45.478a5.828,5.828,0,0,1-1.719,4.149l-12.744,12.744A5.829,5.829,0,0,1-402.131-517.009Zm-47.513-67.613a3.527,3.527,0,0,0-3.523,3.523v58.223a3.527,3.527,0,0,0,3.523,3.523h47.513a3.5,3.5,0,0,0,2.492-1.032l12.744-12.744a3.5,3.5,0,0,0,1.032-2.492V-581.1a3.527,3.527,0,0,0-3.524-3.523Z" transform="translate(455.511 586.967)" fill="#0d2380"/>
    </g>
    <g id="g117" transform="translate(3126.452 -5001.395)">
      <path id="path119" d="M-8.828-153.529A1.172,1.172,0,0,1-10-154.7a1.172,1.172,0,0,1,1.172-1.172,2.678,2.678,0,0,0,2.675-2.675v-7.822a5.025,5.025,0,0,1,5.019-5.019H6.689a2.678,2.678,0,0,0,2.675-2.675,1.172,1.172,0,0,1,1.172-1.172,1.172,1.172,0,0,1,1.172,1.172,5.025,5.025,0,0,1-5.019,5.019H-1.134a2.678,2.678,0,0,0-2.675,2.675v7.822A5.025,5.025,0,0,1-8.828-153.529Z" transform="translate(10 175.237)" fill="#0d2380"/>
    </g>
    <g id="g121" transform="translate(3076.168 -5032.898)">
      <path id="path123" d="M-113.2-7.656H-127.06a1.172,1.172,0,0,1-1.172-1.172A1.172,1.172,0,0,1-127.06-10H-113.2a1.172,1.172,0,0,1,1.172,1.172A1.172,1.172,0,0,1-113.2-7.656Z" transform="translate(128.232 10)" fill="#0d2380"/>
    </g>
    <g id="g125" transform="translate(3094.71 -5032.898)">
      <path id="path127" d="M-393.82-7.656h-51.105A1.172,1.172,0,0,1-446.1-8.828,1.172,1.172,0,0,1-444.926-10h51.105a1.172,1.172,0,0,1,1.172,1.172A1.172,1.172,0,0,1-393.82-7.656Z" transform="translate(446.098 10)" fill="#0d2380"/>
    </g>
    <g id="g129" transform="translate(3087.045 -5055)">
      <path id="path131" d="M-26.846-100.8a3.568,3.568,0,0,1-3.564-3.564v-7.581a3.568,3.568,0,0,1,3.564-3.564h.538a3.568,3.568,0,0,1,3.564,3.564v2.964a1.172,1.172,0,0,1-1.172,1.172,1.172,1.172,0,0,1-1.172-1.172v-2.964a1.221,1.221,0,0,0-1.22-1.22h-.538a1.221,1.221,0,0,0-1.22,1.22v7.581a1.221,1.221,0,0,0,1.22,1.22,1.172,1.172,0,0,1,1.172,1.172A1.172,1.172,0,0,1-26.846-100.8Z" transform="translate(30.409 115.51)" fill="#0d2380"/>
    </g>
    <g id="g133" transform="translate(3129.617 -5055)">
      <path id="path135" d="M-26.846-100.8a3.568,3.568,0,0,1-3.564-3.564v-7.581a3.568,3.568,0,0,1,3.564-3.564h.538a3.568,3.568,0,0,1,3.564,3.564v2.964a1.172,1.172,0,0,1-1.172,1.172,1.172,1.172,0,0,1-1.172-1.172v-2.964a1.221,1.221,0,0,0-1.22-1.22h-.538a1.221,1.221,0,0,0-1.22,1.22v7.581a1.221,1.221,0,0,0,1.22,1.22,1.172,1.172,0,0,1,1.172,1.172A1.172,1.172,0,0,1-26.846-100.8Z" transform="translate(30.409 115.51)" fill="#0d2380"/>
    </g>
    <g id="g137" transform="translate(3083.199 -5025.867)">
      <path id="path139" d="M-59.274-66.51h-5.58A2.291,2.291,0,0,1-67.143-68.8v-5.58a2.291,2.291,0,0,1,2.288-2.288h5.58a2.291,2.291,0,0,1,2.288,2.288v5.58A2.291,2.291,0,0,1-59.274-66.51Zm-.056-7.868-5.525.056L-64.8-68.8l5.469-.055Z" transform="translate(67.143 76.666)" fill="#0d2380"/>
    </g>
    <g id="g141" transform="translate(3099.123 -5025.867)">
      <path id="path143" d="M-59.274-66.51h-5.58A2.291,2.291,0,0,1-67.143-68.8v-5.58a2.291,2.291,0,0,1,2.288-2.288h5.58a2.291,2.291,0,0,1,2.288,2.288v5.58A2.291,2.291,0,0,1-59.274-66.51Zm-.056-7.868-5.525.056L-64.8-68.8l5.469-.055Z" transform="translate(67.143 76.666)" fill="#0d2380"/>
    </g>
    <g id="g145" transform="translate(3115.048 -5025.867)">
      <path id="path147" d="M-59.274-66.51h-5.58A2.291,2.291,0,0,1-67.143-68.8v-5.58a2.291,2.291,0,0,1,2.288-2.288h5.58a2.291,2.291,0,0,1,2.288,2.288v5.58A2.291,2.291,0,0,1-59.274-66.51Zm-.056-7.868-5.525.056L-64.8-68.8l5.469-.055Z" transform="translate(67.143 76.666)" fill="#0d2380"/>
    </g>
    <g id="g149" transform="translate(3130.972 -5025.867)">
      <path id="path151" d="M-59.274-66.51h-5.58A2.291,2.291,0,0,1-67.143-68.8v-5.58a2.291,2.291,0,0,1,2.288-2.288h5.58a2.291,2.291,0,0,1,2.288,2.288v5.58A2.291,2.291,0,0,1-59.274-66.51Zm-.056-7.868-5.525.056L-64.8-68.8l5.469-.055Z" transform="translate(67.143 76.666)" fill="#0d2380"/>
    </g>
    <g id="g153" transform="translate(3083.199 -5011.371)">
      <path id="path155" d="M-59.274-66.51h-5.58A2.291,2.291,0,0,1-67.143-68.8v-5.58a2.291,2.291,0,0,1,2.288-2.288h5.58a2.291,2.291,0,0,1,2.288,2.288v5.58A2.291,2.291,0,0,1-59.274-66.51Zm-.056-7.868-5.525.056L-64.8-68.8l5.469-.055Z" transform="translate(67.143 76.666)" fill="#0d2380"/>
    </g>
    <g id="g157" transform="translate(3099.123 -5011.371)">
      <path id="path159" d="M-59.274-66.51h-5.58A2.291,2.291,0,0,1-67.143-68.8v-5.58a2.291,2.291,0,0,1,2.288-2.288h5.58a2.291,2.291,0,0,1,2.288,2.288v5.58A2.291,2.291,0,0,1-59.274-66.51Zm-.056-7.868-5.525.056L-64.8-68.8l5.469-.055Z" transform="translate(67.143 76.666)" fill="#0d2380"/>
    </g>
    <g id="g161" transform="translate(3115.048 -5011.371)">
      <path id="path163" d="M-59.274-66.51h-5.58A2.291,2.291,0,0,1-67.143-68.8v-5.58a2.291,2.291,0,0,1,2.288-2.288h5.58a2.291,2.291,0,0,1,2.288,2.288v5.58A2.291,2.291,0,0,1-59.274-66.51Zm-.056-7.868-5.525.056L-64.8-68.8l5.469-.055Z" transform="translate(67.143 76.666)" fill="#0d2380"/>
    </g>
    <g id="g165" transform="translate(3130.972 -5011.023)">
      <path id="path167" d="M-59.274-66.51h-5.58A2.291,2.291,0,0,1-67.143-68.8v-5.58a2.291,2.291,0,0,1,2.288-2.288h5.58a2.291,2.291,0,0,1,2.288,2.288v5.58A2.291,2.291,0,0,1-59.274-66.51Zm-.056-7.868-5.525.056L-64.8-68.8l5.469-.055Z" transform="translate(67.143 76.666)" fill="#0d2380"/>
    </g>
    <g id="g169" transform="translate(3083.199 -4996.875)">
      <path id="path171" d="M-59.274-66.51h-5.58A2.291,2.291,0,0,1-67.143-68.8v-5.58a2.291,2.291,0,0,1,2.288-2.288h5.58a2.291,2.291,0,0,1,2.288,2.288v5.58A2.291,2.291,0,0,1-59.274-66.51Zm-.056-7.868-5.525.056L-64.8-68.8l5.469-.055Z" transform="translate(67.143 76.666)" fill="#0d2380"/>
    </g>
    <g id="g173" transform="translate(3099.123 -4996.875)">
      <path id="path175" d="M-59.274-66.51h-5.58A2.291,2.291,0,0,1-67.143-68.8v-5.58a2.291,2.291,0,0,1,2.288-2.288h5.58a2.291,2.291,0,0,1,2.288,2.288v5.58A2.291,2.291,0,0,1-59.274-66.51Zm-.056-7.868-5.525.056L-64.8-68.8l5.469-.055Z" transform="translate(67.143 76.666)" fill="#0d2380"/>
    </g>
    <g id="g177" transform="translate(3115.048 -4996.875)">
      <path id="path179" d="M-2.132-23.1h-5.58A2.291,2.291,0,0,1-10-25.388,1.172,1.172,0,0,1-8.828-26.56a1.172,1.172,0,0,1,1.172,1.172l5.525-.056-.056-5.525-5.525.056.056,1.553a1.172,1.172,0,0,1-1.172,1.172A1.172,1.172,0,0,1-10-29.359v-1.609a2.291,2.291,0,0,1,2.288-2.288h5.58A2.291,2.291,0,0,1,.156-30.968v5.58A2.291,2.291,0,0,1-2.132-23.1Z" transform="translate(10 33.256)" fill="#0d2380"/>
    </g>
  </g>
</svg>
